<mxfile host="app.diagrams.net" agent="Mozilla/5.0 (Windows NT 10.0; Win64; x64) AppleWebKit/537.36 (KHTML, like Gecko) Chrome/138.0.0.0 Safari/537.36" version="28.0.4">
  <diagram id="C5RBs43oDa-KdzZeNtuy" name="Page-1">
    <mxGraphModel dx="1501" dy="782" grid="1" gridSize="10" guides="1" tooltips="1" connect="1" arrows="1" fold="1" page="1" pageScale="1" pageWidth="827" pageHeight="1169" math="0" shadow="0">
      <root>
        <mxCell id="WIyWlLk6GJQsqaUBKTNV-0" />
        <mxCell id="WIyWlLk6GJQsqaUBKTNV-1" parent="WIyWlLk6GJQsqaUBKTNV-0" />
        <mxCell id="JEA_5MePLRgP0R8tFWte-58" value="" style="edgeStyle=orthogonalEdgeStyle;rounded=0;orthogonalLoop=1;jettySize=auto;html=1;" edge="1" parent="WIyWlLk6GJQsqaUBKTNV-1" source="JEA_5MePLRgP0R8tFWte-59" target="JEA_5MePLRgP0R8tFWte-66">
          <mxGeometry relative="1" as="geometry" />
        </mxCell>
        <mxCell id="JEA_5MePLRgP0R8tFWte-59" value="Periode Accounting" style="rounded=1;whiteSpace=wrap;html=1;fontSize=12;glass=0;strokeWidth=1;shadow=0;" vertex="1" parent="WIyWlLk6GJQsqaUBKTNV-1">
          <mxGeometry x="210" y="285" width="120" height="40" as="geometry" />
        </mxCell>
        <mxCell id="JEA_5MePLRgP0R8tFWte-60" value="" style="edgeStyle=orthogonalEdgeStyle;rounded=0;orthogonalLoop=1;jettySize=auto;html=1;" edge="1" parent="WIyWlLk6GJQsqaUBKTNV-1" source="JEA_5MePLRgP0R8tFWte-64" target="JEA_5MePLRgP0R8tFWte-68">
          <mxGeometry relative="1" as="geometry" />
        </mxCell>
        <mxCell id="JEA_5MePLRgP0R8tFWte-61" value="Tidak" style="edgeLabel;html=1;align=center;verticalAlign=middle;resizable=0;points=[];" vertex="1" connectable="0" parent="JEA_5MePLRgP0R8tFWte-60">
          <mxGeometry x="0.1371" relative="1" as="geometry">
            <mxPoint as="offset" />
          </mxGeometry>
        </mxCell>
        <mxCell id="JEA_5MePLRgP0R8tFWte-62" style="edgeStyle=orthogonalEdgeStyle;rounded=0;orthogonalLoop=1;jettySize=auto;html=1;entryX=1;entryY=0.5;entryDx=0;entryDy=0;" edge="1" parent="WIyWlLk6GJQsqaUBKTNV-1" source="JEA_5MePLRgP0R8tFWte-64" target="JEA_5MePLRgP0R8tFWte-71">
          <mxGeometry relative="1" as="geometry">
            <Array as="points">
              <mxPoint x="360" y="510" />
              <mxPoint x="360" y="740" />
            </Array>
          </mxGeometry>
        </mxCell>
        <mxCell id="JEA_5MePLRgP0R8tFWte-63" value="YA" style="edgeLabel;html=1;align=center;verticalAlign=middle;resizable=0;points=[];" vertex="1" connectable="0" parent="JEA_5MePLRgP0R8tFWte-62">
          <mxGeometry x="-0.2381" y="-2" relative="1" as="geometry">
            <mxPoint as="offset" />
          </mxGeometry>
        </mxCell>
        <mxCell id="JEA_5MePLRgP0R8tFWte-64" value="Sudah punya periode accounting sebelumnya?" style="rhombus;whiteSpace=wrap;html=1;shadow=0;fontFamily=Helvetica;fontSize=12;align=center;strokeWidth=1;spacing=6;spacingTop=-4;" vertex="1" parent="WIyWlLk6GJQsqaUBKTNV-1">
          <mxGeometry x="210" y="455" width="120" height="110" as="geometry" />
        </mxCell>
        <mxCell id="JEA_5MePLRgP0R8tFWte-65" value="" style="edgeStyle=orthogonalEdgeStyle;rounded=0;orthogonalLoop=1;jettySize=auto;html=1;" edge="1" parent="WIyWlLk6GJQsqaUBKTNV-1" source="JEA_5MePLRgP0R8tFWte-66" target="JEA_5MePLRgP0R8tFWte-64">
          <mxGeometry relative="1" as="geometry" />
        </mxCell>
        <mxCell id="JEA_5MePLRgP0R8tFWte-66" value="Buat periode accounting" style="rounded=1;whiteSpace=wrap;html=1;fontSize=12;glass=0;strokeWidth=1;shadow=0;" vertex="1" parent="WIyWlLk6GJQsqaUBKTNV-1">
          <mxGeometry x="210" y="365" width="120" height="40" as="geometry" />
        </mxCell>
        <mxCell id="JEA_5MePLRgP0R8tFWte-67" value="" style="edgeStyle=orthogonalEdgeStyle;rounded=0;orthogonalLoop=1;jettySize=auto;html=1;" edge="1" parent="WIyWlLk6GJQsqaUBKTNV-1" source="JEA_5MePLRgP0R8tFWte-68" target="JEA_5MePLRgP0R8tFWte-71">
          <mxGeometry relative="1" as="geometry" />
        </mxCell>
        <mxCell id="JEA_5MePLRgP0R8tFWte-68" value="Input Saldo Awal" style="rounded=1;whiteSpace=wrap;html=1;fontSize=12;glass=0;strokeWidth=1;shadow=0;" vertex="1" parent="WIyWlLk6GJQsqaUBKTNV-1">
          <mxGeometry x="210" y="635" width="120" height="40" as="geometry" />
        </mxCell>
        <mxCell id="JEA_5MePLRgP0R8tFWte-69" value="" style="edgeStyle=orthogonalEdgeStyle;rounded=0;orthogonalLoop=1;jettySize=auto;html=1;" edge="1" parent="WIyWlLk6GJQsqaUBKTNV-1" source="JEA_5MePLRgP0R8tFWte-70" target="JEA_5MePLRgP0R8tFWte-59">
          <mxGeometry relative="1" as="geometry" />
        </mxCell>
        <mxCell id="JEA_5MePLRgP0R8tFWte-70" value="Start" style="ellipse;whiteSpace=wrap;html=1;" vertex="1" parent="WIyWlLk6GJQsqaUBKTNV-1">
          <mxGeometry x="235" y="180" width="70" height="60" as="geometry" />
        </mxCell>
        <mxCell id="JEA_5MePLRgP0R8tFWte-71" value="End" style="ellipse;whiteSpace=wrap;html=1;" vertex="1" parent="WIyWlLk6GJQsqaUBKTNV-1">
          <mxGeometry x="235" y="710" width="70" height="60" as="geometry" />
        </mxCell>
        <mxCell id="JEA_5MePLRgP0R8tFWte-72" value="Buat Periode Accounting" style="text;html=1;align=center;verticalAlign=middle;whiteSpace=wrap;rounded=0;" vertex="1" parent="WIyWlLk6GJQsqaUBKTNV-1">
          <mxGeometry x="200" y="140" width="140" height="30" as="geometry" />
        </mxCell>
        <mxCell id="JEA_5MePLRgP0R8tFWte-73" value="" style="edgeStyle=orthogonalEdgeStyle;rounded=0;orthogonalLoop=1;jettySize=auto;html=1;" edge="1" parent="WIyWlLk6GJQsqaUBKTNV-1" source="JEA_5MePLRgP0R8tFWte-74" target="JEA_5MePLRgP0R8tFWte-76">
          <mxGeometry relative="1" as="geometry" />
        </mxCell>
        <mxCell id="JEA_5MePLRgP0R8tFWte-74" value="Periode Accounting" style="rounded=1;whiteSpace=wrap;html=1;fontSize=12;glass=0;strokeWidth=1;shadow=0;" vertex="1" parent="WIyWlLk6GJQsqaUBKTNV-1">
          <mxGeometry x="485" y="285" width="120" height="40" as="geometry" />
        </mxCell>
        <mxCell id="JEA_5MePLRgP0R8tFWte-75" value="" style="edgeStyle=orthogonalEdgeStyle;rounded=0;orthogonalLoop=1;jettySize=auto;html=1;" edge="1" parent="WIyWlLk6GJQsqaUBKTNV-1" source="JEA_5MePLRgP0R8tFWte-76" target="JEA_5MePLRgP0R8tFWte-81">
          <mxGeometry relative="1" as="geometry" />
        </mxCell>
        <mxCell id="JEA_5MePLRgP0R8tFWte-76" value="Close periode accounting" style="rounded=1;whiteSpace=wrap;html=1;fontSize=12;glass=0;strokeWidth=1;shadow=0;" vertex="1" parent="WIyWlLk6GJQsqaUBKTNV-1">
          <mxGeometry x="485" y="365" width="120" height="40" as="geometry" />
        </mxCell>
        <mxCell id="JEA_5MePLRgP0R8tFWte-77" value="" style="edgeStyle=orthogonalEdgeStyle;rounded=0;orthogonalLoop=1;jettySize=auto;html=1;" edge="1" parent="WIyWlLk6GJQsqaUBKTNV-1" source="JEA_5MePLRgP0R8tFWte-78" target="JEA_5MePLRgP0R8tFWte-74">
          <mxGeometry relative="1" as="geometry" />
        </mxCell>
        <mxCell id="JEA_5MePLRgP0R8tFWte-78" value="Start" style="ellipse;whiteSpace=wrap;html=1;" vertex="1" parent="WIyWlLk6GJQsqaUBKTNV-1">
          <mxGeometry x="510" y="180" width="70" height="60" as="geometry" />
        </mxCell>
        <mxCell id="JEA_5MePLRgP0R8tFWte-79" value="Close Periode Accounting" style="text;html=1;align=center;verticalAlign=middle;whiteSpace=wrap;rounded=0;" vertex="1" parent="WIyWlLk6GJQsqaUBKTNV-1">
          <mxGeometry x="475" y="140" width="140" height="30" as="geometry" />
        </mxCell>
        <mxCell id="JEA_5MePLRgP0R8tFWte-80" value="" style="edgeStyle=orthogonalEdgeStyle;rounded=0;orthogonalLoop=1;jettySize=auto;html=1;" edge="1" parent="WIyWlLk6GJQsqaUBKTNV-1" source="JEA_5MePLRgP0R8tFWte-81" target="JEA_5MePLRgP0R8tFWte-84">
          <mxGeometry relative="1" as="geometry" />
        </mxCell>
        <mxCell id="JEA_5MePLRgP0R8tFWte-81" value="Auto Create Row baru untuk m_coa (coa 1,2,3 cash balance dari periode sebelumnya) (coa 4,5 diforce ke 0)" style="rounded=1;whiteSpace=wrap;html=1;fontSize=12;glass=0;strokeWidth=1;shadow=0;" vertex="1" parent="WIyWlLk6GJQsqaUBKTNV-1">
          <mxGeometry x="470" y="455" width="150" height="85" as="geometry" />
        </mxCell>
        <mxCell id="JEA_5MePLRgP0R8tFWte-82" value="End" style="ellipse;whiteSpace=wrap;html=1;" vertex="1" parent="WIyWlLk6GJQsqaUBKTNV-1">
          <mxGeometry x="510" y="675" width="70" height="60" as="geometry" />
        </mxCell>
        <mxCell id="JEA_5MePLRgP0R8tFWte-83" value="" style="edgeStyle=orthogonalEdgeStyle;rounded=0;orthogonalLoop=1;jettySize=auto;html=1;" edge="1" parent="WIyWlLk6GJQsqaUBKTNV-1" source="JEA_5MePLRgP0R8tFWte-84" target="JEA_5MePLRgP0R8tFWte-82">
          <mxGeometry relative="1" as="geometry" />
        </mxCell>
        <mxCell id="JEA_5MePLRgP0R8tFWte-84" value="Langsung open periode selanjutnya" style="rounded=1;whiteSpace=wrap;html=1;fontSize=12;glass=0;strokeWidth=1;shadow=0;" vertex="1" parent="WIyWlLk6GJQsqaUBKTNV-1">
          <mxGeometry x="485" y="585" width="120" height="40" as="geometry" />
        </mxCell>
        <mxCell id="JEA_5MePLRgP0R8tFWte-85" value="Periode Accounting" style="swimlane;" vertex="1" parent="WIyWlLk6GJQsqaUBKTNV-1">
          <mxGeometry x="130" y="80" width="560" height="740" as="geometry" />
        </mxCell>
        <mxCell id="JEA_5MePLRgP0R8tFWte-90" value="" style="shape=image;verticalLabelPosition=bottom;labelBackgroundColor=default;verticalAlign=top;aspect=fixed;imageAspect=0;image=data:image/png,iVBORw0KGgoAAAANSUhEUgAABeQAAAI6CAIAAADJyd/uAAAgAElEQVR4AezdC3AU14Ev/DG1TlW8lZSdspdELrx71+s4G69vqOv1F7KX3GTLlTjX11VJ1sYmWRt7Y7OODSa2sTEGLJ4CBAIk9AQE4i2MeApkBEIGIRlkECAkAZIQeiCht+Y9Pe/uL91n5uioe2bU89Qw+qtkuTXTc/qcX3cz03+dc1pjsXAWjjNbxC+z2WySvoxGo0H8Mur1Bp1er9XptDqdgC8IQAACEIAABCAAAQhAAAIQgAAExr0AL3253W6Xy+1yuZxOp91ut1ptFo4zGk16vUGr1fUPDPT09nd393R23m1r72htbevp6dXpdBaLxeFwkBIcDofFYtHpdD09va2tbW3tHZ2dd7u7e3p6+/sHBvR6g8Fm4Vx2QRCsbrvZaXV5vtxut5uUENquICmHTq8XN2EQAxCj0UjyELNZDEjE/zhODEwsHP2yKr5sUfvSWK02q00EJV9m75dR/DIRZb3BoDcYQiPAqyAAAQhAAAIQgAAEIAABCEAAAhBIJAESlPA87zuvMZkMBpNWqxscGurr90Q2XV1373R2tXfckb4729rvtLXfae/obO+403Gn805nV1eXJ6bp6x8YHBrSanUGg8lkNls4zmq12e12p9MpZTXDSQ3P86GpkpRDrzeQ3MNoNHqzEDPJRsSN2mxiYCJ+e77sMfzSiJkRx5mk7IgESLRzjSepkTrX6PT60AjwKghAAAIQgAAEIAABCEAAAhCAAAQSTIDkNWJwouhfw1mtJrOZdrEZGBwkkU1PT19PT+/du92y756eXvGp3v6+/oGBwUGtVkdiFJPZzIk5iTypCbNbjSAIWp1ObzBIP4wGg9inhuY1FovFk5CIA5A4s1mMb6R+NmKMY7Va2Z9i5cRMJ/I/NXQYlFkaBkVGQkndasQa6/UGOhIqwQ4sNAcCEIAABCAAAQhAAAIQgAAEIACBkAV85jUOh8Nms3GcVRwSJXaxEYMF0stmYHCwf2Cgr7+/r3+Q+RZHPA0MDg5ptSSmEcckmUzSACAxBHE4HGyfmvCTGhLWkDFQZBgUyUBMYj8e6WvEMCg6EkkKjry9bMj/ozYKyjaiZw2pGRmpJc1ZIyY1CGtCPnDxQghAAAIQgAAEIAABCEAAAhCAQAILyPIapzR/jcPhsNvtNpudRDZSLxujwSDOZaPT6XU6vVarG9JqSTpDHpFCE2mcjzTuSRqEJA46IkmNNPyJdOIJa6oauiOGtFras0av19OwhqQibM8a0qdmjHrWWMQJhpVzDEvV9WpiGBTdq1iAAAQgAAEIQAACEIAABCAAAQhAQBKQzV9D5pVxOp2yyMYsDS9i5l0hCYlnWl+Sj3h70wzHNOIkNdIwK9qhJuR5atjdpdOLmZF3zhqxJrLZhaWEZMTswmT008iONWLHnyh9ScOgRt4QivT6IWzsSCi2YViGAAQgAAEIQAACEIAABCAAAQhAAAKCILB5DZnCRhHZ2EhHG84qDo+SfXPiRDBWm80uruTtTSPeZIpENVKXGrqJiIArx0B5BkAFcysoMlVN9MIacZJjIkU715jFqYDEYEm6f5XYuUavN0QkvooIKwqBAAQgAAEIQAACEIAABCAAAQhAIH4EaJhCRiuJt/QWe8SIX6SXDeloQ+6nJAUc4jgpks6QBx3SF5meRoxpvB1qItunhkRLdGph0k+FdKsR79gtDcIS78NktdKbdpNJhX1OJEzqH42fGmlaYzHWIiOhSJjEdkySbjkuTjbscrni5zhATSAAAQhAAAIQgAAEIAABCEAAAhCIKwFFZCOGLqSXDUltnNIXyWVoOkMe9CQ74v/ElIeEPrTACDbT5XLRoIMNazyda5jZhcltvMlP2QCoqHarsdls3rBGGglF5jgmN4Qid64yGsWYhgyG4jhrBHVQFAQgAAEIQAACEIAABCAAAQhAAAIJJkDjFZ7nPXMCe+7tLfa1EWcg9oxvkjrd0F+969CXsOVElojjrOQmUOJtp6QvOmGN2J2FfFvGcsIaT1gjDoMSx0JZxWFQnHgXcfG+4tI9q0i9aV6DzjWRPURQGgQgAAEIQAACEIAABCAAAQhAIPEE2KiFTW28g6RINxpP9xka0LAjnkgJEZch3WrI1MIGg4HGNCQJIakImedYGgtlpfMK+xwGRfrXROOn2LPGMxLKe08odiQUMx5KvDu60WhCXhPxYwUFQgACEIAABCAAAQhAAAIQgAAEEk9AFtmwv5KAhn1EthwNDZfLZTR6wg16Byg2r/HeKXv0bjVRHwZlkb6kzjTitDXi7bKkLzoMShoJJU4wTO5rpdXqrFYrIptoHDcoEwIQgAAEIAABCEAAAhCAAAQgkJACsizG56/Ra7jL5bJarTqdeMdu7027jdItlcQBRWQ2GPEnmWDYbJFCErGHDclMSP8a0tmFLpNZbEiPm4gv05414giogNMMi60gt4US26bXa3U6rU43pNWS78GhoaEh7eDgEP0eGBiUfff3D+AbAhCAAAQgAAEIQAACEIAABCAAAQiELCCLGgYGBmkQMShmE1rphyesINmFTu/JaLyz1Ximq/HRrUYMaMSMhkYzdCQUO8dwlO7YTYv1hDWykVDkhlWKmYZ95zU0shkcGiKRjSy1GRwcUlLiEQhAAAIQgAAEIAABCEAAAhCAAAQgEJoAG9CQjIbENDSpITGNVif2pCG9aQIkNWIMQu4DpWJq4WiPgaITDJPASJxmmHSuEWc/lm4w7mtIlKd/jTgwytu/RqfX0y42NLvRanVarY7ysQmOmmU24sEyOXbhAAccAzgGcAzgGMAxgGMAxwCOARwDOAZwDOAYSLxjgEQHarIC2TokeaCJBFmgMY1Wp9MbPJO60EmFyZ2U6NAns9nMceK0MGR2Yc8tmKSYxGqVTzBMhzvRLjB2uz0ay8M9a2jnGp+DoegUNgbxa0ReQyMb2cCoIa3Y9Yh+Dw1pld80ysECBCAAAQhAAAIQgAAEIAABCEAAAhCQCSiTBDGvYdMG7/QsQ1otG9OIHWr0ejKdi88+NeQu2GInFW9SIw2AYsc/cezQJ7pM05noLcjCGmnmGu9toWjnGjKIS5bXBI5saP8aWb4lS3BYXyxDAAIQgAAEIAABCEAAAhCAAAQgAAF/AsqEQdmVxjPuSR7TDE8nTCMOMpZINgBq1NlqYjAGShwGRZIhOpuxp8OP1eq5u7jnXlFiE0jmRO5uJc2ZLN7vikQ2nuDGIA6MErsYSfEVAWJ/kpQLPyEAAQhAAAIQgAAEIAABCEAAAhCAQGgCbM5Al0kWQX6ySYX3Xt3i4Cc6nbDJZCLdU8gAKHEqGLE/jTg5DB36xHEcudOT8icZ+hTVn56whnbmIcOyOM7KWa3e6npuVUUyJzrrsLejjYm0nAQ3NL7RGwz0m2Q3+AkBCEAAAhCAAAQgAAEIQAACEIAABCIlQGMHcUEv9iphv41GMa+gGc3woCdyX27pfk+e3EOcm4Z8+x73RDOT2HSrGZ5gmNw5nPyUQhnxpuJmi8Uk3WZcEdCQ6XjYn4TARAeD0QXPbcylvjaR2h8oBwIQgAAEIAABCEAAAhCAAAQgAIFxLaAbvscTjSDILMI0pmFjC7LMjoHyJB7i7ZXItzjEiH6NmLqG+YUNbqK3PNyzhtk0uam49NM7JbI43Y73i7ZN1mwy9zDNsVgsLEMAAhCAAAQgAAEIQAACEIAABCAAgWgI0CBCWjDIwgoaYnhTDc+Mwt7pXzwZCJuK+EthojejsKxk32HN8J2hvDfz9t5v3Edk4x0PNawhpTbyDkgj7YbvJxWN/YQyIQABCEAAAhCAAAQgAAEIQAACEEgYAVmkoPhVunH1cCwhLtGMRjYAiuQbAZIaMquvz7xGFqlE79fhsIZMosMmSeSeVeJPpn8NvUUUSaTYxitTGxbKm+Cw/x8xnExhjWchAAEIQAACEIAABCAAAQhAAAIQgACbJPjIZdjwQRZTDPemkaaquSeSmuG7QdHEiA1rpP41npt5k0l36E9xwmTmS2ZBf2W9sAwBCEAAAhCAAAQgAAEIQAACEIAABCIrQCMI2QITWpjFfEP2bSGjn6TbQDFRCI1HlAvR60ejLHlEzxpSFaaS4qI0uY53Fhumiw2ZeIdtPFmW6eBXCEAAAhCAAAQgAAEIQAACEIAABCAQAwFlRiEOD2K+xcjGE9OIcYcsAFEGNPQRZZ4S1UeGwxpy53BaD1pjMjyKNIbcdZyMimLHRnEcR9HZW0fRZTJajIZn7IApLBMWOMABxwCOARwDOAZwDOAYwDGAYwDHAI4BHAM4BnAMqDwGyEw0/rIImtHQ7EIKZqw0qWGngiHLJA9hsxG6bLPZ7HY7TWdisKyhG5Mt0NSGLkjxjefe47KJbEbEVFJXHGWahUcgAAEIQAACEIAABCAAAQhAAAIQgEA0BMgtt9l0gi6T3jQc5wk0fM4fLItE2F/tY/GloT1olAv07uLsgmRKb0I+3JuI3J/c58/Au4HGYFiAAAQgAAEIQAACEIAABCAAAQhAAAJUYJQ8wWz2mUKYzMM35zabmQRDmmOYjTjIsjIPoY/Q/isxXhgeBsV2+2GXvdPWeJojNVlcNpstJgmAtFxc9g4DY7HEm2V5+bBMKOAABxwDOAZwDOAYwDGAYwDHAI4BHAM4BnAM4BjAMRDBY8BssQxnNIq8ggY0NNMgWQeNYNjuNnSZDIOivWysVmvMlj3DoGj9lAuysIa2kCzIO9qMiKxEqVG/jSYTviEAAQhAAAIQgAAEIAABCEAAAhCAgExg1EhBDGhGBhEjfyX3RpIlGZ5faSijTELYXIYGNLFcGJ6zxmflaM8ff5EN2yXJ20/JbDLhGwIQgAAEIAABCEAAAhCAAAQgAAEIxFhATCbYpMJnTsNmHT7DkFjmMj63NRzW0FmOaUXZ2tNlpkMN2/xAy94QRxTDNwQgAAEIQAACEIAABCAAAQhAAAIQCEPAEzMESiIUz5E0g4Yb7AKNQciCz/Qkxg+OCGvYvIatN7vMhlJs25lEBosQgAAEIAABCEAAAhCAAAQgAAEIQGDMBNi8gs0x2HyDXaZ5TYxDGX+bk4c1JK9ha0yX2eaRZdp4n/z0WSxAAAIQgAAEIAABCEAAAhCAAAQgAIEoCQQOJZRpBg062IUxn6eGDW7UhjWytrG+suCGPOVTCg9CAAIQgAAEIAABCEAAAhCAAAQgAIGIC7AxBb3lE/ugLNZgYxqyHNdhDe35Q+7eTWrMNok2Vbp7N/0t0ELE9wEKhAAEIAABCEAAAhCAAAQgAAEIQGCcCwRKIpjn2PiCzTdoXsMmIWz3ljFclvesYatIlmlLaEvZdpIHx/nxgeZDAAIQgAAEIAABCEAAAhCAAAQgEFcCNMQgC2yUQYMOZQYyhgENu+kRYY2yljRnkjXSX0ZjxBcEIAABCEAAAhCAAAQgAAEIQAACEBgjAWVg5DPQoHGHMglhQ5OxWg4U1tCq08zJbDbbbDan08njCwIQgAAEIAABCEAAAhCAAAQgAAEI3CMCTqfTZrPR6WwsFgsNPWR5zVgFNOx2h8MaWeV8zlnjcDgExdc9sl9QTQhAAAIQgAAEIAABCEAAAhCAAATGkYAiwBAcDgftj+IvrImHmYb9hjW00rQZdrtd2U7ZI+Non6OpEIAABCAAAQhAAAIQgAAEIAABCMSZgCymUP5qt9tp0EGjD1n/FbaTy5gsjxLWkAZwHGexWFwul7KRIT8SZ3sT1YEABCAAAQhAAAIQgAAEIAABCEAgTgVCDh+UL3S5XGQMFE08OI6L07BGVi2aLdG0yWKxKFuIRyAAAQhAAAIQgAAEIAABCEAAAhCAwL0lwGYdNACRBSNj0qGGbtTTs0ZWJ1pXNm26t+hRWwhAAAIQgAAEIAABCEAAAhCAAAQgoBSgfWridprhQGENGzWZzWZl8/AIBCAAAQhAAAIQgAAEIAABCEAAAhC4twTYe0LRvEbWi4V2chmTBR9hDduthuY1CGvurSMPtYUABCAAAQhAAAIQgAAEIAABCEDAp4DPsEY2c82YZDR0o6OENWRqYYvFgrDG5w7GgxCAAAQgAAEIQAACEIAABCAAAQjcWwI0rCGhB+2zwnauobnJmCyoCmvM0te9RY/aQgACEIAABCAAAQhAAAIQgAAEIAABpQBJOegsvXEa1rDRkdVqpbVkx0ChZ41y7+IRCEAAAhCAAAQgAAEIQAACEIAABO45ARrW0JmGSRIii0fGpE8N2ajYs0ZWG1JFmtSQMVAIa+65gw8VhgAEIAABCEAAAhCAAAQgAAEIQEApIAtr4nCOYbVhjclkUjYPj0AAAhCAAAQgAAEIQAACEIAABCAAgXtLwGQy0Wlr2M41sr4s90DPGoQ199aRh9pCAAIQgAAEIAABCEAAAhCAAAQg4FPg3g5r2FtBIazxuYPxIAQgAAEIQAACEIAABCAAAQhAAAL3lgAb1rA3hLo3etYgrLm3jjbUFgIQgAAEIAABCEAAAhCAAAQgAIFRBRDWjEqEFSAAAQhAAAIQgAAEIAABCEAAAhCAQOwE7r2whr1vN3rWxO5IwZYgMFLgRkvHyAfwGwQgAAEIQAACEIAABCAAAQhERsBfWMNxHDsSKo4mGEZYE5k9j1IgEJ4Awprw/PBqCEAAAhCAAAQgAAEIQAACfgUSIawhtx/HBMN+dzKegEAUBBDWRAEVRUIAAhCAAAQgAAEIQAACEBAFSFhD7t7NTjB8L/WsGSdhjcFgyM/PT09PNxgMOHjHg0B3d3daWtqePXs4jovD9iKsicOdgipBAAIQgAAEIAABCEAAAokhgLDm3tiPTqdz+vTpGunrd7/7ndVqjXi9c3NzJ0lfubm5ES8cBQYroNfrf/rTn5I9/tFHHwX78hisj7AmBsjYBAQgAAEIQAACEIAABCAwPgUQ1qjd72az+dVXXyVxhuznT3/6008++aS6utrlcqktLsj1TCbTL37xC3Lp/uMf/3hgYCDIAkZfffXq1aT81atXj752qGt88803Tz755KRJk37yk5/cuHEj1GIS/3Xd3d2PPfYY2SMvvPBCNOK5MBER1oQJiJdDAAIQgAAEIAABCEAAAhDwJ4Cwxp+M/HE2LiGX0Mqfzz77bFNTk/yVEfr94MGD90tfeXl5ESpyRDExCGt4np81axZ1mzVrFs/zIyoxzn7Jz8+fKX1dvXpV1nSe59PS0jQazXe/+91Tp07Jno2HXxHWxMNeQB0gAAEIQAACEIAABCAAgYQUQFijdreyYc1DDz1EO9f84Ac/oOmDRqN5+OGHa2tr1RYaT+vFIKxpaGh4+OGHKdejjz7a2toaTwaxrsuMGTOIRnFxcay3Hfb2ENaETYgCIAABCEAAAhCAAAQgAAEI+BZAWOPbRfkoG9bILq1dLtepU6cmTZpELrynTZvmcDiUJcT5IzEIaxYvXkyInnnmGbIQ1SFXcQ4uCALCmvjfR6jhvSJg0BtvNbeG0Fmvs7O7s7P7XmlmaPVsb+/s64v84NnQKoNXQQACEIAABCAAAQioEUBYo0ZJXCdAWEOKOHfu3Le+9S2NRvO9731PNhvLnTt3Pvroo6SkJI1GM2HChKeffjozM9NsNsu2/eGHH06aNOnpp5+uq6trbGx88803H3rooRkzZpDVAkwAbDabMzMzn3766QkTJmg0mkceeeTVV1+9du2az+sWl8t1/Pjx559//m//9m81Gs3f/d3fvffee52dnQHCGofDUVxcPHXq1Pvvv1+j0Tz00EMBypc1iv56586df/qnf9JoND/60Y/Onz//6KOPkuXe3l66jmzBbDYXFBT85Cc/YbdbXV2tbJf6NQcHB5OTkx9//HGSFj322GPvvfeesoNPXV3d008/PWnSpFdffdXfnpo0aVJZWRmtM91BZWVlnZ2d7733Htnj999//9SpU48fP85OaUT2NWkXISV9tdjNkXXC2QqtG9npU6dOJTv9oYceevPNNxsbG2kzP/zwQ7qyyoVge9Zc3r7z8vadssJbK86VJS+WPXhP/Fp37caiBavpd3ZmweWaa263+56ofFxVMlKSX5VXpSxLNxpNwbau+OjJ4qMng32VIAj1dTfXrckdHNSG8NpYvsRud2RlbN27+1AsN4ptQQACEIAABCAAAQiEKYCwRi3gqGGN0WicOnUqiQC+/PJLUq7L5UpPTycZCnmK/pw0aZJsphLSz+KBBx74+OOP6UtoWOMvTCkvL2fHFtHyNRrNm2++KQsaenp6nnvuOXYdsvzAAw/Qew/Jeru0tbX967/+q/IlGo1m7ty56vsQZWZmkkIWL17MTl6za9cun/sgQLv+/Oc/s9tVuSbP8zt27KD5iKxFy5cvZ8usqal54IEHNBrNL37xC5NJfvnns0cM3UHTp0/3uRW22rQEWTXYzdF12J5cQW2FwHZ2dv7sZz+TbYjkhn/4wx++/e1vazQaepj53Bc+Hww2rDmfmXU+M0tWVPPJU8Xvz5E9OCa/zv9kReGew8oc0F9lLl2s3bJpN3mW46xtrR0b0/P37j6kvgR/JQf7eEtLW2bGVo6L/B3igq0JWf+ekwwtrHE6nfmb96xZlVV64kxoUNF7VbwdEtFrKUqGAAQgAAEIQAACCSyAsEbtzh01rPG5Apkjllwn/+53v8vPz8/Ozn7qqafIIw8//HBDQwOtAb04p9fVjzzyCO3yQK/S2TDlm2++efDBB8n63/72t1955ZWZM2dOnjyZljBz5kyaQej1ejapmTx58syZM1955RVyuU5fwpbf2dn5ox/9iDz12GOPLViwoLCwcObMmTSM+Mtf/qLm6pTeiPrBBx+sr68XBOH8+fOkI9JPf/pTvV5PEcgC267777//t7/9raxdqampZLvq1zxw4ACNwB555JEZM2b86U9/ol1sNBoNLVMQhHDCGsJFqv3b3/6WWmk0GppMkamF/+Ef/oGs/Ktf/YrMNLxmzRp64yd6PPgMa9RsRRCEvr4+erxpNBqy02fMmEF6/ZBC4iis4fmhlts3jx1v//q802ajR4Wxu+fu5Stuh7PjwoWbx44PtdwWpKmpDXfvNn15ovXMWZvBSFcWBIF3uQaam28eO95dW+t2ONmn/C031Dd+9JfFW7fsUdk7hg1rSJk6nSEtNYcOqLHbHQ31jRerr/T1DtBzxGg037zR7HA4Oju7L5yvud7Q5HSOqJ7b7SZPNdQ32u3iarRAnuf7egcuVl+5dLFWpzOQjXZ2dhcfPZmyLP1cRfXFb64ajWJ/vaFBbXPTbbalzU23h6QOIC6X6+aNZqPRPNA/eP16k8vl8lksLcTpdLbcartwvqalpU2lTGwklQ2RtZrn+btdPRfO1xBJVoMiE39ZWGOxcLVXr7PI7GvpclNjS3Zmwa3m1vT1m2Xdeeima69et1qHD2N/jzudzusNTRfO13R2drPIdK+RjdrtdqktdkEQAhxIPg8JtiiyTJp5sfrKQP8gbZR47ngPs9qr1y0WTqbKrollCEAAAhCAAAQgAIGoCiCsUcvrM4thX3z79u3vf//7f73m//a3v33x4kVBEG7dukWmH37wwQe//vprurLL5Vq5ciW5Tp4+fTq9WqMX5+TieXBwxGdoZVhDExCNRvPaa6+xnWjKyspoiFNYWEg2nZubSzb64IMPlpaW0gtIg8Hwxz/+kV6307CG5/lFixaRx9966y2O42gTbt269cQTT2g0mm9961vnz5+nj/tbKCwsJOXQO0BxHPfiiy9qNJr77rvvxIkT7AvZdv3xj380GDzXpYIgkHY9++yz169fFwRB/Zqtra1k4JVGo1m8eDENsHieLygoICEO25Yww5rk5GTKZTabX3vtNdJ8tuPMqHPW0OPBX1ijZit0nqBJkyaRw5JQy/p8xUPPGpvBeOjt/979+5dq9+wtX7Yi56c/aykvJ7VtPnmq4P/+v12/e6l82Yqagu15//v/lH762fmNmfnP/erilvySuZ9snPy/7l7x3FHLZjB+8Z+vH3xrZt0X+0vmflLwf/+fvrOTPcD8Ld++3f7xh0tzsgro4eFvTUEQlGENx1nT1uRcuVwnCELLrbalyWn79h75qrxq3drcHQX7yWne0tK2ZlVWxvotudnbT5aeSVuTs2LZBjqORqfVr0/LS1uT81V51b69R5Ymp21MzycjdCwWLn3d5vVpeV+VVx0++OVnn6ZUX7gsCILPK3Nl3bZs2n3pojjxOcdZMzO25mRtT1mWfqz4lE5n8FksaeCaVVnr1uYWbN134suvli1Zn75+s8r+OzGQlDXEbnewrbZYuJys7VQyedEasl8EQRAl12+mT6Wl5mzLL6TDoKovXF62eN3Rw6WnSs+mLEsvOVZG/51kDwaXy7Utv7Cq8iLP8zu3F1VViv/gky/Zppcmp12/Lt4i0N/jrbc7li5ety2/8OyZ8zlZBWtWZ9Pjge41UrJWq0tLzdFqdeIB5v9A8nlIsEVt2bQ7f/Oelcszjh4u3bf3yPxPVnxZ4jnRrFZb/uY9K5ZuOFV69ujh0mWL1+Xl7KA9yLxNxP8hAAEIQAACEIAABGIhgLBGrXLgsIa9IKddRfLy8sgl+uLF8lk5OI57/vnnNRrN97///du3PX8Dpxfnskt6UkVlWFNWVnbfffdpNJpnn31WluwIgrBr1y6y9RdeeMFqtbL1z83NlTWb7X9Bw5qBgYEf//jHGo3G522bTpw4Qba+YMECWWmyX2lj2TREEARawosvvkijDZLIBGhXb28vnfwlsAC7Jt0Xyumf2Uzq/fffJ5UPJ6yhBwB1qK+vJ9nZY4891t09PJUp3eNsHENf5fNZehio2YpWqyVD2O67776DBw/SksmC0+l86623yEESm7DmyLuzbh47zn6XL1vhGQbF86cWJX+dsZF0mREE4e6Vq/nP/UrX0SEIQvPJU2v+4fG7l6+Qmpv7+/P+9/859PZ/014z9UUHjvz5PbfTKfB8WfLiC1nZtJybx44ffGum05W0588AACAASURBVKpqlFBHR9f8T1ZkZWyVWSl/ZaMB8qxOZ0hdldXW2qHXGdLW5Nxq9tzpzOl0FmzdV3aqglxjz/9kxfmqS+Ql0qX+fpIUuFyurVv2Hj08nKL29Q0s+XwtzRFIrxnywvq6mxvT821Srw3lmBdl3ei1upgopebkb95DM2J/xV66WPvJR0tpDx273Z6+fvOli/J7zCtlyCPRllQ2hLaa5/ndOw+wkreaW1OWpff29vt86tOPlxPkjo6utanZdCJei4XLWL/lWq2YC8u+Otq7MjZssVjE/LqpsSVj/RYSYynLv9vV09PT5+9xvc6wZlUWReZ5/tjRU5tyd5J/4uheI1uXhTX+DiRymMlGxrFFbdm0e83qbFJ5QRA62rtWrsggHa+Kj55kjw2LhVu3NhdhjWzv41cIQAACEIAABCAQGwGENWqd2bBj3rx5Rd6v7OxsdiTRhAkTDhw4QAolF9v33Xff4sWLvasP/590ZrnvvvvoJLX04jwvL09ZLXqVTsMU+ojPuIT29CEBQXd392OPPSaLh9itLFiwgFy30/JpYDF58uTCwsLhqktLmzdvJgEECYPYomTLdOrl559/ng1laL8YWYgTuF1s4erXpLa7d3vmGWHLqays/Ju/+Rt2hhradp/BGS2NDVkCVIbGXt/5znfYO7v7LIdWzOezQW2ls7OT9Cd69NFHO331LikuLo6TsMYyNLT3lem69nbafIHnj835oP6AmDE1nzy174+vDQ+M4vkj785qPF5CV+65dq3ojf+ym82knJ66OlNvH/keut1a9MZ/jSiZvkyx0NHRtWzxuszgw5qB/sHc7O3b8gudTmfdtRu52duHhnRaref7yuW6LZt2u1yulpa21FVZBv3woC0aMeh0hjWrs3t7+tlKHTl0goY1giA4nU6dzqDV6tpaO9asyqKdLGRX5rRMWhS9Vuc46/q0vLprN+hT/oq9dLE2Y/0Wu334xnay4UJsCcrlaEsqG0JbbdAb16flsZI8z+dv3lNZUe3vKYJ8uuzcvr1H6F7TanVflVft33dU1jqe54u+KKZT1djt9uyN265eEQe0Kssnr/X3eN21G3k5O2j6TEafrVmVRSpP9xopRBbW+DuQ1IQ1p8vO0UaRPkotLW02q21jev6N6830KUEQqi9cRljDgmAZAhCAAAQgAAEIxEwAYY1aajasIde3yp8TJkzIzMwk3ebNZjM7QYxyZfoIveD3eXFO60ev0mmYQrtF0EfoyoIg0HSGhDW1tbXf+c53NBqNrHMHfYmy/C+//JJWMsCCzziDFut0OqdPn05e/s4778gSn2nTppGn3nrrLfqn/sDtoiX/dQyIyjXZfUG12XKU0YzyEXZ9n3tKCUhfQg+eBx54oKamhj7us5zAzwa1lRs3bnzve98LsNNjHNYEmGDY1Nu363cvmXr7aPMFQaBzEivnIS5+f07zyVN0ZRrWmHr7Nv38l0fenVUy9xP6fWrh5/o7d+jK/haCHbwzZ9ZC8v3J3GUrlm04d/YCOYYvXaxNXpi6Lb+Q/T5WfMpudwToBcNeitMa0nzE6XR+UXh05fIMUuam3J3LFq8LLazJzNja0tJGNhGgWJp9KCtDH/G3EANJGjHQOtAKB5D0+RRNxMTZf5ans3ttW37hV+VVdBNkobe3f9mS9SdKyi+cryHfe3YdzMna7nQ6fZYvCIK/x2md6SbYdgUOawIkdMrDjC2KXaYj41pa2thN0/ooa0ifwgIEIAABCEAAAhCAQFQFENao5aXX2z5ji/vvv5/cC5ktjl6K0+ljySSysp/0nlB0fZ+BgvIqnT6SkpLCbpcs014Vsp41/jpZpKSkkKbR6IcGFg8//PCbb74pqzb9lZ0TV1kNOgLIpxt9kE48LAhC4Haxm1C/JrVVjgYSBOHixYtklmUaPNG2T5061Wgc7gdBJuCkU/ywe4pWhgLSqtKDJ8ZhTW9v7z/+4z9qNBqWl9ZKEAR6i67YDIMKENbYzeZ9f3yt69JwkuV2OA+9/d+tFWIXAPVhjd1sPvCnt/tv3mSbqWY5/Glx6VZaWtpys7fb7eJEsLIv5VU0vRgm91emI6QEQbDb7RvWbSKdPsjdpuiUMYOD2jWrswOENZtyd9LJVkg57Jw1NKwJUCytGG0CTY7oIz4XYiOpTBZohTnOmrF+S1NjC62e0+nMydped+2GxcKtT8tjn2KRL128unN7EXWjL5ctlJ44s2XTbprUXDhfU3num9UpG5saW5SbJq/193hLS9uGdZvoiCQxZL/bu25tLul7tWXTbjIzESmko70rZXl6gJ1Ou8AoDzM2oGGX2bBGHDy7o4gdPkaG6dFiZQ74FQIQgAAEIAABCEAgqgIIa9Ty0uttjUazY8eObuaL3r5HVha9el+0aNGoFwCjTjdLS6NZwNGjR0nYQSMGtgIHDx4kM78899xzZrM58PQlbOto+V1dXX//93+v0Wh+8IMf3Lp1iy1c5TJ7i26ay/hboDP70HbJhk2RjdIOOIIgqF+T6rFdeGgr2GfJg3QQGTupEHmqt7eX3iErzsMatlvTm2++KZs3t62tjUQ5cXI3qJvHju99ZbpRmtOHd7kubt7yxX++bjeLtzdSH9YIgsCWI/B8V83l1jNn6b72tzD/kxX79h5Rc56SEmg0oCyQTFJzYP8xktc4nc7KimoyE4ryKpot51Zza/LC1PLTlYOD2rbWjpys7SuWbqBhzfq0PINBvIu82+0+erj084Wp5Lq9t6d/zaqsoUEtz/PkXkK9vf0py9Ibb4rnLM/zF87XzP1gib+wxl+xbMVIG1WGNbGRDBDWkME769PyBgaGCNeJkvKMDZ5pZc5VVK9NzR5+6suvFs5fSZDJJDVflVcRRqvVdrrsHJukCIJARqt1tHfJ9nvZqYpt+YUul6v6wmV20+fOXqg4e0FZJfK47FAxGs05WQUlx8pI4VWVF9etzSWTCtnt9oKt++hOD3wgKQ8JNqBhl2VhTV/fwIqlGw4WHe/rG7h7t3dHwf5VKRsR1sj2NX6FAAQgAAEIQAACsRFAWKPWmY0z2Ev0AK+nnUq+9a1vHTky4jqQ5/kDBw7QPjWkENr7w2f5NFCgYQqbGqxcuZKd+IDerUmj0dDphOmNgZ544gk2fGHvTqXRaGj5bNTy4osvDg2JVz70q6enJzc3V3b9T58lC/QeTA8++OC5c+eYgGt4saSkhNzDm05jzM52rGzXP//zP8+ePZvcIkr9mnRfTJgwYd++few1+ddff00m35kwYcKpU56RNTTb+usdr1auXEnX/2t7KaNGo2H3lHIHUQ168Mh61rz//vskuqLm9CX+wrtgt0InDCITUZO90NnZmZ+f/93vfpcGZ2Pes0ZsOM9fP3I0439Ozvifkzf8878ceXcWpxNvfBNsWEPKyXrm/xPL+fHTu3//kpoxUGRD6n8qswz2tVarbc+ug/M/WbFower5n6z4ovAoCW4CX2OT8TKHDpakpeYUbN3X3HS7+MhJkiPwPF92smLRgtWLFqxOXrTm6OFS2rOG5/mSY2Wffrx84fxVlee+IdVoqG9cvGjtZ/NSPpuX8kXh0bzsHT7DmgDFKhuoMqxhHdQsKzfEvsqfZOCwhuf581WXFs5fuXD+ys/mpWzK3UnnUZY99UXh0cMHvyTIYhaj1f+1V9Rn81IWfbZqwacrS0+cYe+lLQjCuYpqEsqwlWRDHLb8Tz9enpezg2za3+NWq233zgPz5i5TbtHpdB4rPjVv7rKF81ctWrD6q9OV7N2gAgyDUh4SbEDDLsvCGnLXqhMl5RvWbdqUu/NyzbWL1VcQ1sj2NX6FAAQgAAEIQAACsRFAWKPWmV5vyy7RA7ye5/nU1FR6PfzLX/4yPz+/qKgoOzt78uTJGo3miSeeaGdmVA02rBEE4cCBA+S20+RSPD8/v7CwcObMmffffz/Z7nPPPafX60klOzs7aZeQ+++/f+bMmYWFhdnZ2U899RStJBvWCILQ3t5ObtGt0Wi++93vkpmVCwsL33nnHTJuKDU1lQYZSgqaLPjsz0LWdzgcdOaazMxM8iDbrqeeeio7O1vWro8++iioNWX74je/+c1u6evll1+mbZ85cyabPbGhzNSpU7Ozs5OTk2VWYYY1u3fvJlt/8MEHt2zZUlpaunLlyr4+z7wtPo8HSqrMd+ghykZCPM9nZmbSg4Q2liyQvlex6VmjPDzwSGABOi1u4NXwLASiJ1B89KRyiuXobQ4lQwACEIAABCAAAQhQAYQ1lGKUBXolrD6sEQTB4XDMnTtXdoVMf500aRLbucbnxTmtls+r9MCX4j/72c9k9wC6evXqpEmTaAXYhWeeeYb8KksBArxEo9HMnTuXDThobQVBoB1/ZDd7Ytchy/Qe3k899RSJKgK36ze/+Q1NoNSvGXhfvPrqq7RMUiu9Xu9ziugJEyY8/fTTxCrMsIbtGUT3RWFhIamAz+PB52FA1qeHKBvWkIEw5eXlNKejG5o+fXpBQQH5NQY9a0gl8TOAwLmzF7Iytra1dnCcVa8zHD1cunJ5hl5nCPASPAWBCApcv960NjX7+vUms9liNlv+OoBr8aK1HR3yMV8R3CKKggAEIAABCEAAAhDwJ4Cwxp+M/HF6JRxUWEMulaurq3/zm9/Qi2Qy4eu8efPIWB66JZ8X5/TZAFfpjY2NM2bMYHtPPPnkkzt27GDvk03LMRgM8+bNI/1iSJV+9KMflZeX0/lfZGGNeD9agyE1NfWRRx5hmzBlypSKiooA3WoKCwvJ+j6nnqH1EQSB3sNbo9HQqEIQBGW7kpKSNm7cqGyXyjV5nlfuiylTphw/fpwdREbrZjabP/30U9bq2WefraioWLVqFWlamGGNIAhtbW0vvvgihX3kkUeKiopIBXweDwEOA3qIysIaUhrP83fv3i0uLi4qKjpz5ozJJM5+Qrv2vP/++7TVKhdutHSoXBOrqRRwu911125s2bQ7edGaFcs2HDpYIpswRWU5WA0CoQnwPN/S0rZr54ElyWlLktP27j5EJvcJrTS8CgIQgAAEIAABCEAgHAGENeHoBfdanucHBwe7u7vJdXJwL1axNim/t7fXX1cXWRk6na67u9vf7MiylcmvVqu1u7u7r6/PZ7Th8yXhP6jeTf2aLperT/pS2ZAQrIJquMPh6O3t1XmnaAnqtaOu7HK5fGZq7AC03bt3j1qObAWENTIQ/AoBCEAAAhCAAAQgAAEIQCBSAghrIiWJciAQjwI8zy9atGjy5MmnT59mUzyO45KTk0mPHjq1c1ANQFgTFBdWhgAEIAABCEAAAhCAAAQgoF4AYY16K6wJgXtPoKam5oEHHiChzIQJEx599NFJkyY9+uij7KC5wLNE+2szwhp/MngcAhCAAAQgAAEIQAACEIBAmAIIa8IExMshENcCQ0NDb7/9Np0TR7YwYcKE1NRUtseN+sYgrFFvhTUhAAEIQAACEIAABCAAAQgEJYCwJigurAyBe1JAr9fv37//T3/605NPPjlJ+nruuefS09MHBwdDbg/CmpDp8EIIQAACEIAABCAAAQhAAAKBBRDWBPbBsxCAgG8BhDW+XfAoBCAAAQhAAAIQgAAEIACBsAUQ1oRNiAIgAAEIQAACEIAABCAAAQhAAAIQgEDkBBDWRM4SJUEAAhCAAAQgAAEIQAACEIAABCAAgbAFENaETYgCIAABCEAAAhCAAAQgAAEIQAACEIBA5AQQ1kTOEiVBAAIQgAAEIAABCEAAAhCAAAQgAIGwBRDWhE2IAiAAAQhAAAIQgAAEIAABCEAAAhCAQOQEENZEzhIlQQACEIAABCAAAQhAAAIQgAAEIACBsAUQ1oRNiAIgAAEIQAACEIAABCAAAQhAAAIQgEDkBBDWRM4SJUEAAhCAAAQgAAEIQAACEIAABCAAgbAFENaETYgCIAABCEAAAhCAAAQgAAEIQAACEIBA5AQQ1kTOEiVBAAIQgAAEIAABCEAAAhCAAAQgAIGwBRDWhE2IAiAAAQhAAAIQgAAEIAABCEAAAhCAQOQEENZEzhIlQQACEIAABCAAAQhAAAIQgAAEIACBsAUQ1oRNiAIgAAEIQAACEIAABCAAAQhAAAIQgEDkBBDWRM4SJUEAAhCAAAQgAAEIQAACEIAABCAAgbAFENaETYgCIAABCEAAAhCAAAQgAAEIQAACEIBA5AQQ1kTOEiVBAAIQgAAEIAABCEAAAhCAAAQgAIGwBRDWhE2IAiAAAQhAAAIQgAAEIAABCEAAAhCAQOQEENZEzhIlQQACEIAABCAAAQhAAAIQgAAEIACBsAUQ1oRNiAIgAAEIQAACEIAABCAAAQhAAAIQgEDkBBDWRM4SJUEAAhCAAAQgAAEIQAACEIAABCAAgbAFENaETYgCIAABCEAAAhCAAAQgAAEIQAACEIBA5AQQ1kTOMl5LMhjMd9q7m262Nd5oTYDvppttd9q7DQZzvHpHsl4Jtu9UHn7jahdH8nBBWRCAAAQgAAEIQAACMRSwVlZp537c/+r0/pen4XscCbw6XTv3Y2tlVbSPNYQ10RYe4/L7eofaW7tMRovbzY9xVSK0ebebNxkt7a1dfb1DESoyTotJvH2nEnr87GKVIFgNAhCAAAQgAAEIQCDeBMzbtg2+8cbAy9MGkNSMMwGy0wffeMO8bVtUD0uENVHlHePCDQZze2sXzydITMNq8jzf3tqVwP1rEnjfsfsxwHLC7+IAbcdTEIAABCAAAQhAAALxLGCtrBp8441x1JdknMUxKvfs4BtvRLV/DcKaeP5HINy63WnvNhkt4ZYSr683GS132rvjtXbh1iux951KncTexSoRsBoEIAABCEAAAhCAQLwJaOd+jA41KhONBF5t4OVp2rkfR+/gRFgTPduxL7npZlvCjH5SarrdfNPNNuXjifFIYu87lfsosXexSgSsBgEIQAACEIAABCAQbwL9r05HWJPAKYzKponHwKvTo3dwIqyJnu3Yl9x4o3XsKxHNGiRwAxO4aUEdEXAIigsrQwACEIAABCAAAQjEQEDlxTxWGw8C0TveENZEz3bsS074C90EbmACNy2oEwMOQXFhZQhAAAIQgAAEIACBGAiMhwwCbVQpEL3jDWFN9GzHvuSEv9BN4AYmcNOCOjHgEBQXVoYABCAAAQhAAAIQiIGAyst4rDYeBKJ3vCGsiZ7t2Jec8Be6CdzABG5aUCcGHILiwsoQgAAEIAABCEAAAjEQGA8ZBNqoUiB6xxvCmujZjn3JCX+hm8ANTOCmBXViwCEoLqwMAQhAAAIQgAAEIBADAZWX8VhtPAhE73hDWBM927EvOeEvdBO4gQnctKBODDgExYWVIQABCEAAAhCAAARiIDAeMgi0UaVA9I43hDXRsx37khP+QjeBG5jATQvqxIBDUFxYGQIQgAAEIAABCEAgBgIqL+Ox2ngQiN7xhrAmerZjX3LCX+gmcANj0zS73XGs+FTr7Q5ysLbe7jhWfMpud4z9seutQWwcvFvD/yEAAQhAAAIQgAAEIDC6wHjIINBGlQKjHy6hroGwJlQ57+tcLtfNG81Go9n7QBz9P8wL3TmzFpLvLZt2s62yWm1fFB759OPlc2Yt/PTj5dLlvZ1dIWbLYTYwZvUMYUORbVpV5cWPP1x6/XqTrCYcZ01Lzbl0sZY8fulibVpqDsdZZauN4a+RdRjDhmDTEIAABCAAAQhAAAIJI6DyMj7OVzNmZVvLynQLFgRVT0PqGmvZaUPqmqBeFc7KxpwcR32DcePGYAsx79rNlZQMvT8n2BcGtX70jmqENWptrVbbseJTS5LTFi1YvSQ57cD+Y0ajSRAEjrNmZmxtaWlTW1AM1wvzQler1Wm1uqIvitmwxmLh1q3NXbkio6WlTavVXb/elLIsPX3dZouFi2HLPJsKs4H1dTc35e6UZRMcZ926Ze+djruxbw67xTCbxhYlJjJrcpYkp+Xl7HC5XPKnENawIliGAAQgAAEIQAACEIDAaAJBXcyHtrJ571630chznOzbrdUaNqSHVqbsVdbycp7jjBszZY8H/tVSdIDnOEvRgcCr9b88zX6phq28q7/fevr04Dt/HvWFshVs33wj8Ly1rEz2+Ki/2uvq3ENDuiVLR10znBVGO1hCfx5hjSo7p9OZm7296ItiEklYLNzZM+dv3mhO7LCG0BQfPcmGNQeLjq9Znc1GM3qdYcXSDWWnKlRRRnSlMBMNp9O5dcseWc3LTlUc2H+M5/mI1jTowsJsGru9q1caUpal19fdXLZ4XUd7F/sUetawGliGAAQgAAEIQAACEICAGoFwru1VvlbswPLVV9aKCmtFhVurdWu1ZDmEvjD+thj1sKaujjebbV+ft1ZU2Corne3tgsvlbG8f+uBDf1Xy+fjA6zP0y5YPvD7D57MBHkRYY4vyl8Zms1mZL877ZbFYOI6zWCxm6ctkEvu5ROmrs7N75YoMrVanLJ/2rNHpDJcu1l66WEt63NA1eZ6/29Vz4XxNQ30jmQ3E5XI1NbZYrTa6ztCgtrnpNv2V5/lbza3hD62KyAU/G9YY9MZlS9ZXVV6kVSULpSfOrE7ZyCY4shXorw6H0+Fw0l/JgsPhdCoelK3j89fwG9jT3ZeWmtPXO0DK7+nuW5+WNzioJb9aLFzt1euXLtbqdAZaAZ7n+3oHLlZfkT1uNJpv3mh2OBwtLW2dnd10/dAWwm8a2a7dbt+Ynl964gzP8zu379+5fT+bQ0UjrIm3XRyaP14FAQhAAAIQgAAEIAABfwIBAoJgn3J1dtrr6gK/ytXZ6ersZNfRzp/PlZSI8c2ZM8a8PPqUMSubKynRLVrEHTturajgiosH3/nzwOszTNt3eFZm+tF4wpq8TZ6VS0t1i5fQovxtwtOz5uAhS9EBsczycv2KFfRV7IIyK7GePs07HJbDR8hqhjVrreXl1ooKS9EB2uNm6P05XEmJMSvbmJdnPS2Ot5INvBrRHKbt/S9PG36qvNywZq2sAkMffOizpWydQ1j2d5CE/zh61qgyHBrUpixLZ/MU+jKOs25Mz9+ct2t1ysYTX361Lb9w/icr6CQgFguXk7U9bU3OV+VV+/YeSV605srlOkEQir4oZiOPXTuKVi7PMJk8E9/09vbnZBWoyT5oNXwuROSCnw1rWlrali5e19vTL9vcX0eBLV60Vk1CMTiga25st3LDQZWVszU3tg8N6mVlqvk1Ig0sOVa2o2C/y+VyOp3b8gvPV10im66+cHnZ4nVHD5eeKj2bsiy95FgZz/MWC5e+bvP6tLyvyqsOH/zys09Tqi9cJuu3tLSlpeasWZ2dsWEL2ctqmuBvnYg0TRCEpsaWpclpvb3iLmOXyXajEdbE4S72h4zHIQABCEAAAhCAAAQgEIJACJf0/l4SQlhj2raNt1p5m83V08ObzYLLZT17lpQv5i82mzj4yGbjrVbB7XYPDrq6ugSXS3zQ4RBcLu5EKV1ZcDp5i4W32dxDQ7zDwdvtlgPi+KYAmxDDGrudlOb5abeb932hbKAsK+l/eZpxYybPcdby8v6Xp5Hgxm00urq7eYfD1d+vT1nZ//I03ZKl7qEh1927Yp3NZvPevezAK93iJc47dwSXy63Xu/V6geedt26Rrjr6lJWu7m6xyQYDbzLxDoe4jncYlDEnx63Xi2hdXbzZzNtspKXKagf7SAjHj8qXIKxRBcXzfMXZC/PmLsvN3n71SgM7ywm53M3fvMfp9HQYuXqlYX1aHsdZeZ7fvfPA0cOltC/DrebWlGXpvb39TY0tWzbtJhOI6HSGrI3bcrIKrl5pILWprKguPXFGVc0CrhSRC342rLlyue7zhanKHkaDg9rlS9arnLinq7OX5jUkqenq7A3YDr9PRqSBFgu3Pi3vWu31a7XXN+ftIvuxo6NrbWp2X5+nx43FwmWs33Kt9rogCGyPp/q6mxvT821SJ6mWlrb5n6ygWY/fSqt7IiJNc7lcW7fs3b3zADkCnU5nTtb2g0XHaRWiEdYIghBvu5i2FwsQgAAEIAABCEAAAhAIXyDY63nl+nSUk1urdXV1iV1U/M/1K+tZM/T+HGNeHhkWNPD6DEdTs1uvJ0mHtbxc4Hn7tTryLHfsmJhrGI3GnBwxB1mwwNXT4+rv186fL8Yl5eWCIDhuNpKwQ7dggbOjgxQVYBOWogOC00lHMxnWrHXr9c6ODmUblWGN5fAR3uHgTpQa8/J4s5nWU5+y0j046GxpGXh9BglreIvFVLCdlMmGNfbaWt5mM+/b53nqyBHebrdVVolT5NTVyZ9yOEhYM/T+HLFpg4NEaeD1GfZrdW6jMSKz/4R/OPkrAWGNPxkfj1uttksXa7ds2j3/kxXp6zeTwTIcZ12flld37QZ9gVarS0vN0Wp1Br1xfVoe2w+F5/n8zXsqK6rtdvum3J1kApGqyouHDpRcvdKwLb+Q53n2KVpmaAsRueBXE9ZotboVyzaoDGvoxbxOa2hubA85qREEISINFATh+vWm1SkbU1dl3b7dTqhPl53bt/cImWKZ/PyqvGr/vqPkWafTqdMZtFpdW2vHmlVZJL1qaWlLXZVl0BtD21myV0WkaR3tXUuS09h5aq5eaVixdAMd1RWlsCYOd7GMF79CAAIQgAAEIAABCEAgZAFlMBHsI6bNW5y3bzvb23mOcxsMzvZ2R1OzfuUqn+XIwhoy3seQlmbcmGncmGk7f57OEyz2rLFaSTTT//I0w7r1vMnkqG+gxYqJhslkWLeehDW8zWbK30qfFWMRm40rLg6wCXEdq9Vy8CB9laO+gXZgoQ+S9MSt05m2bSP1tJ45y1ss7sFB3ZKl1rIysZCiIvKU2IpvvhFzotWrSVjjaGykRdGwRvd5sntwkH1q4PUZzjt3XD09xsws99CQ7ClXVxepmCE9g7dYbN98QzdnKSoSB01ILaUbCm0h5KNo1BcirBmVyMcKbrf76OHS7I3b7HYHWvMrCAAAIABJREFUnbOGrkfDGrpAnxIEofjoyeKjJwVBKD1xpvTEGdL3oamxRRowVdDb29/S0lawdZ/srj1sCeqXI3LBz4Y1AYZBfb4wta21Q33durv6G2+0dnfJR1SpLyGCYQ3ZC38dp0b7QBUfPZmyPH1bfiH7/VV5ldPp/KLw6MrlGeTxTbk7ly1eR8OazIytbK+roNoiWzn8fcfzfNEXxenrNw/0D9LUqauze9mS9bTfVvTCGkEQ4moXy3jxKwQgAAEIQAACEIAABEIWCO2q3uerQhgGZdyY6dZqPWOROI4skJs6yeYMJsEHOyeOGNZ47wAlW1kcppSTIw5TKisLsAkandDmKHvQkKfsdeIEIMNfLpezpYVMcEN6AHlGbHnveEVudKWsM92i8qn+l6eRqMi0Y6d7aIhtqfhUYyMJa8jwq2Ex7xbpiDDalhAWhhsY6SWENSGK9vcPpqXm6HSGAGENx1kz1m9pamyh2yDjUEg3HDIxzY3rzZtyd9rtdpLjVFZUHzpQwk5nQ18bwkL4F/ykVvRuUAa9MWVZOh2uRatUWVHNzrlDHw+8YLFYA68w6rMRaSDZCg3RyK+XLl7dub2IZje0Jm2tHRvT82kiMzioXbM6Oz7Dmt7e/s8Xpi6cv3LRgtXs92fzUlJXZpIZkaIa1giCEFe7mO5ELEAAAhCAAAQgAAEIQCAcgRAu6f29JISwxn7pEm82G9IzSJlijxU/+Ysy3ZCFNYLLRaf77X95GnfylDiSaNfuAJug0QltUYCwxmePG3FDxcXirDG+7v+trDPd4tD7c1x377q6u+n9pMSBXf39ztut4lM9PcqnSAX0q1e79XpZlEPrH+ZCOAdS4NcirAns43n29u32vbsP0blaSM+aTbk7XS5XgLBGEITqC5fXp+UNDAwJgjjV0YmS8owNW8ilPunNkZ1ZUFlRTTbT0d6VtiYnfd1mOkpFVeX8rxSRLIPtWUM6a6xbm8tOfmyxcGtWZ5PuQv7rEpVnItJAUjNZWEMmqfmqvMrtdguCYLXaTpeds1i4ttaO9Wl5BoN46zFyGNBJfFpa2uKqZ03x0ZMb1m0iOSCrr9MZli1eRwLBaIc17HZDW47gLg6tAngVBCAAAQhAAAIQgAAEZAJhXt6zL9evXKVbspR9RLksGwZlq6ySko4icSbgLfliL5uQwxqe581my8GD+mXLxaSG45xt7UPvzwmwCRqd0HqGENaIIUtfH282cyUl+mXLzTt3Oe/csRw8RCcYZoMVdoviLDxOp+Nmo3HjRmNOjrOtTZwUef9+MQA6USq4XOxTAs/TtMh+qUZwueyXLxvWrzdsSHfU19uvXg3hduC01XRBdmxE8FeENaow3W73+a8vLUlO+2xeyqIFq+fNXVawdR+ZaDZwWMPz/PmqSwvnr1w4f+Vn81I25e5kp6e9eqUhedEacqceQRBcLldezo5dO4pU1UnFShG50GXDGkEQBge1K5Zu2Jie39vbz/N8T3ffxvR8WXyjomqRWSUiDSRVkYU1giDotPrc7O3iHv9s1YJPV5aeOON2u3meLztZQTqqJC9ac/RwaXz2rGETGaX1waLjJMdBWKPEwSMQgAAEIAABCEAAAhAILEAv1GOzIAtrhj740NHUJEh/VOZtNmfHnZDDGrdWKw5WIrfKcbudLS3k7t0BNsFGJ6T5IYQ1YiizeImzpYW0QnC7ne3thtQ1o4Y1Yihz/Lh4DyxBELMYnc68ezepxsDrM8SpcCwW8pTr7l1HczMNawZen2E7d463SXcl5nm3Xk8invD3YOBDJZxnEdaEoxfvr41IliELa0iKkZO1/YP3P58za+GHc5J37ShiO9rEEiUiDYxlhdVvK8ymnauopmOdlBv9a9CWvGjNtdrrCGuUOHgEAhCAAAQgAAEIQAACgQXCv8JHCQkjEPhQCedZhDXh6MX7a8O84A/cPJ4XJ59SzuoS+FWRfTaqDYxsVYMtLYGbFhQFHILiwsoQgAAEIAABCEAAAjEQSJigAQ0JXyB6xxvCmujZjn3JCX+hm8ANTOCmBXViwCEoLqwMAQhAAAIQgAAEIBADgfCv8FFCwghE73hDWBM927EvOeEvdBO4gQnctKBODDgExYWVIQABCEAAAhCAAARiIJAwQQMaEr5A9I43hDXRsx37khP+QjeBG5jATQvqxIBDUFxYGQIQgAAEIAABCEAgBgLhX+GjhIQRiN7xhrAmerZjX3LCX+gmcAMTuGlBnRhwCIoLK0MAAhCAAAQgAAEIxEAgYYIGNCR8gegdbwhromc79iUn/IVuAjcwgZsW1IkBh6C4sDIEIAABCEAAAhCAQAwEwr/CRwkJIxC94w1hTfRsx77khL/QTeAGJnDTgjox4BAUF1aGAAQgAAEIQAACEIiBQMIEDWhI+ALRO94Q1kTPduxLTvgL3QRuYAI3LagTAw5BcWFlCEAAAhCAAAQgAIEYCIR/hY8SEkYgescbwpro2Y59yQl/oZvADUzgpgV1YsAhKC6sDAEIQAACEIAABCAQA4H+V6cPvDwtYeIGNCQ0AfEYeHV69I43hDXRsx37kptutrnd/NjXIzo1cLv5pptt0Sl77EtN7H2n0jexd7FKBKwGAQhAAAIQgAAEIBBvAtq5HyOsCS3gSKRXDbw8TTv34+gdnAhromc79iXfae82GS1jX4/o1MBktNxp745O2WNfamLvO5W+ib2LVSJgNQhAAAIQgAAEIACBeBOwVlYNvvFGIuUOaEsIAoNvvGGtrIrewYmwJnq2Y1+ywWBub+3i+QTsXMPzfHtrl8FgHnvl6NQggfedSrCE38UqHbAaBCAAAQhAAAIQgEAcCpi3bRt8442Bl6ehi00IMcc9/RKy0wffeMO8bVtUj0yENVHlHfvC+3qH2lu7TEZLwoyHcrt5k9HS3trV1zs09r7RrEHi7TuVWuNnF6sEwWoQgAAEIAABCEAAAnEoYK2s0s79uP/V6fd09IDKBy3w6nTt3I+j2qeGHO0Ia+LwrI9wlQwG85327qabbY03WhPgu+lm25327gTuU8Pu/gTbdyoPv3G1i9ndjWUIQAACEIAABCAAAQhAAAJEAGENjgQIQAACEIAABCAAAQhAAAIQgAAEIBBHAghr4mhnoCoQgAAEIAABCEAAAhCAAAQgAAEIQABhDY4BCEAAAhCAAAQgAAEIQAACEIAABCAQRwIIa+JoZ6AqEIAABCAAAQhAAAIQgAAEIAABCEAAYQ2OAQhAAAIQgAAEIAABCEAAAhCAAAQgEEcCCGviaGegKhCAAAQgAAEIQAACEIAABCAAAQhAAGENjgEIQAACEIAABCAAAQhAAAIQgAAEIBBHAghr4mhnoCoQgAAEIAABCEAAAhCAAAQgAAEIQABhDY4BCEAAAhCAAAQgAAEIQAACEIAABCAQRwIIa+JoZ6AqEIAABCAAAQhAAAIQgAAEIAABCEAAYQ2OAQhAAAIQgAAEIAABCEAAAhCAAAQgEEcCCGviaGegKhCAAAQgAAEIQAACEIAABCAAAQhAAGENjgEIQAACEIAABCAAAQhAAAIQgAAEIBBHAghr4mhnoCoQgAAEIAABCEAAAhCAAAQgAAEIQABhDY4BCEAAAhCAAAQgAAEIQAACEIAABCAQRwIIa+JoZ6AqEIAABCAAAQhAAAIQgAAEIAABCEAAYQ2OAQhAAAIQgAAEIAABCEAAAhCAAAQgEEcCCGviaGegKhCAAAQgAAEIQAACEIAABCAAAQhAAGENjgEIQAACEIAABCAAAQhAAAIQgAAEIBBHAghr4mhnoCoQgAAEIAABCEAAAhCAAAQgAAEIQABhDY4BCEAAAhCAAAQgAAEIQAACEIAABCAQRwIIa+JoZ6AqEIAABCAAAQhAAAIQgAAEIAABCEAAYQ2OAQhAAAIQgAAEIAABCEAAAhCAAAQgEEcCCGviaGegKhCAAAQgAAEIQAACEIAABCAAAQhAAGENjgEIQAACEIAABCAAAQhAAAIQgAAEIBBHAghr4mhnoCoQgAAEIAABCEAAAhCAAAQgAAEIQABhDY4BCEAAAhCAAAQgAAEIQAACEIAABCAQRwIIa1TtjHp8QQACEIAABCAAAQhAAAIQgAAEIAABRkBVoBDSSghrVLHV19enTEzCNwQSQAAHcwLsRDQhrgRwTsXV7kBlIBCaAE7k0NzwqgQWwEmRwDsXTYugQH19vapAIaSVENaoYsO/VhE8oFHU2ArgYB5bf2w98QRwTiXePkWLxqEATuRxuNPR5MACOCkC++BZCBABhDU2K/PFeb8sFgvHcRaLxSx9mUwmVblLSCvhXyucjQkjgIM5YXYlGhInAjin4mRHoBoQCEcAJ3I4enhtQgrgpEjI3YpGRVwAYQ3CGozAgkDEBPDWG/F/o1HgOBfAOTXODwA0PzEEcCInxn5EKyIogJMigpgoKoEFENYgrInYhXoCnydomkoBvPWqhMJqEFApgHNKJRRWg0A8C+BEjue9g7qNiQBOijFhx0bvOQGENQhrENZAIGICeOu9594DUOE4F8A5Fec7CNWDgBoBnMhqlLDOuBLASTGudjcaG7IAwhqENRG7UA/5KMQLE0YAb70JsyvRkDgRwDkVJzsC1YBAOAI4kcPRw2sTUgAnRULuVjQq4gIIaxDWIKyBQMQE8NYb8X+jUeA4F8A5Nc4PADQ/MQRwIifGfkQrIiiAkyKCmCgqgQUQ1iCsidiFegKfJ2iaSgG89aqEwmoQUCmAc0olFFaDQDwL4ESO572Duo2JAE6KMWHHRu85AYQ1CGsQ1kAgYgJ4673n3gNQ4TgXwDkV5zsI1YOAGgGcyGqUsM64EsBJMa52NxobsgDCGoQ1EbtQD/koxAsTRgBvvQmzK9GQOBHAORUnOwLVgEA4AjiRw9HDaxNSACdFQu5WNCriAghrENYgrIFAxATw1hvxf6NR4DgXwDk1zg8AND8xBHAiJ8Z+RCsiKICTIoKYKCqBBRDWIKyJ2IV6Ap8naNrnT/zL50/8y6gOeOsdlQgrQCAoAZxTQXFhZQjEXkDN+yNO5NjvF2xxDAVwUowhPjadYAIIaxDWIKyBwCgCnz/+FP0O/C8gPo8G9sGzEAhWAOdUsGJYHwKxFKBvjp8//lSA7eJEDoCDpxJMACdFgu1QNGdsBRDWIKwZ5UKdHKB7lhY07D8k/86YSw/ffal7G/YXnH5lRGnSqzKOTxx+8HjGoYaCpXukR6RnR7yEfTblLxkN+/NKpwy/Vlka3bq08NrZXcOFe5+adrrgUG3qa95fk1Imzq3af6hm6TTmkaT8v2TU7i/vqq1q3F9w+j+msE+lTPz18Yy9DeU1vVUlDflL9zD1Iav5bzjlKjj7+q9HlpmUMjH02iqKGiaKxlPkTZeUzC773BY+j25/4cUrO3fV7y9iv68V7it647+I2O7fv3R1956vMzaygORVJ+Z9Sh8seuO/rhXuOzbnA/rIxsnPVK7bcOtUWWvFuW/yNm/6+S/pUykTkzb9/Jff5G1urTh361RZ5boNGyc/I3v20tZtFzdvyf23qfTx3H+benHzFllN6LNk4dicD67u3rP79y/JHj+zcjUtrXzZCraBKROTvs7YyD57Zeeu7S+8KCuB/Hpi3qf1+4vYZqZMTDo25wNZgT5fO04exDkVeEeH/t60a/U+P+9NZIvZ/7G0Zn9JW21Ny/69VX+R/xse8F0jKfvTvIb9h6r+MuIf59HewqSVfz23atehlurmrvJDtRlz8z01FN/IZO+/nsLFN8oRb6NS5f2vPzEpxfcmPFX1/4424q088E4ZP8+y74nsslIAJ7LSRM0jnhPt5vBpGPwpL37qk50+5KyRihpx+oz4FDrR++GQ2bqaOo/zddgTgV1WsuCkUJpE9ZEAnz/Ll62gmz6zcnXdF/uPzno/ZWLS7t+/VFOw/U71N+xnS/KRlX0JfS0WoiGAsAZhzYhPk/4OstNVBkH5dWuvd/3VXWbxaXP5cHyTMjFJelVzLfOBuPaWIOirTkuPSM8a2pKHK8A+m1LYLAiC89Ze+nlaWZp361IJqTVOsQp9LSM+Hy9t0wuCYGhbSiOYvQOCYK1a6n3tazW1nqY5zTapiTZdiffZ1wt6xZcLgtPm9DzZ0chUOGVigIZLL/T+cN4cboi46RBrO2zlrX90H1me9Jjsr4WfP/7U8qTH/G0db71HZ8+xm0ze3e75v8vhqFy3gaA1HDos8LxVrz/y7izKSF5l1RtoXlO5boPL4ajd4znFjn/wkbmvTxAEl93u4DiB520G45mVq0kJ59am2QxG8Ti1Wp1WqyAIpt6+o7Pn0PLPZ2a5HU6nzXYmZRV9cM9L04zdPQNNTfQR5ULtnr0CzzefPMU+VTL3E6veYOzu2fOSGHq2natkG5gyMWmgqYl91m4ysZWhReX+29TBlhZBEHrr6tc+/kP6eO2evbIC6VPjcAHnVOCdHsZ7k/hGkO19exrx7jNxyumTHdIbiuA025zSkrUmj/yZIWViwHcNscBpDa3SuV9fQMv3+YYob9rrewekNxpxo9KC9ewCaR3pjcxpEx/31megUPrHX3yjHPE2Osr6fjdB3koCvKONeCuX19zLOK4eD+r9ESdyCMfGvsJm8eQjR764ZGhbQD5Yyt5jBSHQx1HxU5/iSzxrAn8K9bn1EFoxrl6CkyKed3eAz59t5ypJzb9Oz3BarXeqqzf9/Jcn5n1q1Rt4l8tuNpNPnq1nzqZMTCIfWelL4rnJiVE3hDUIa4K72h/5idbz2uz8ekHoG7hlE5z1NUzfE2W8wr488NskCWsEKVghn3eVpTEn4ZQasQrNA2ZBGPH5mIQ1gmBrrn2d1HZEWHP6rJjUWGvyjpBqT5lVXVXf4kl2lrYNiR8OuvJmkQpk/zmvrbb8NNNAdQ3/9Vkp6urNp4FRiLVl2hvcXovZC/F5lFLL0hby+PYXXtR3dhq7ux0Wy62y03RlGvEYu7v3/UHsCMa+fM9L0wx37zpttssFO0iocfzDuW2VVWTN4x98ZNXrbQbj2dWppMCzq1Nvl39Fu96sffyHvXX1lsFBTqdjYxG1YY0gOCyWUws/J4WvffyH3bW1giCwcYwsW1EZ1pxJWeXguMGWFqfVyqZICGvogZEyMQnnFKsRYJl9c6GrBfwnWhAE20Chp98l+/I9u8RLRGdrSemvyb+0vy4tqe/K96wZ8F1DWv8v5WZB0N3qkP3xIOBbmPjCUvH9qK/xz553iuw/Ly31vG1Jb2TDl6PMv/8Bwhpf6/vfhFhmQC6ENQx78OEUTmR6VqpeWCB+Busu8Xw8mzjlyNIF9K93KROT2HOWlunvGBZXSK6yCoIn5ZT2YMBPoaNsnW4RCyEL4KQImS6EFwb+/EmSFzGpsdn6rt8gHyBbz5x1cBztQXP4nXdJJ3GENSH4h/MShDUIa4L7/OHr3XFuS58gtB7aQz6hHhoeYaT8bCq+3FlfPfrbZJIU1tisQzb6eVoqra9ltq8Kezd9vLxPEDoahkdjSZ9x9Qaxs8FQlZSzSH9jqc+TTpu8Xqcg3Clh3/6HT6e8ekEQdMXsECrZplU3/PUSM9udJ8TayrYej7/irZceP2zaQh+s2VbgtNkuZOf01tWb+/tJ2kL/TMFptbzLRd4mycubS0+mTEyq2VbAu1w3jhbTctiF5tKTboezOncT+yC7/NWKlQ6Oazh0+FbZabvZXPrpZ+RZtWENz/Nud1/DdTKE6uuMjU6r1eVwhBnWkNDH3N9/eslSq15/p7qa1hlhDaVAWMNSBF4O/r3JYJXieNLvknlvmiW+o5lrqphcntl0wHcN8a1tSnW9TTDXnJ1S0OsUnNWe7m9qetZISYqhN5+OfqL/yEc2rPG5CXGMsPq3cgaEVhILgQTw5hj8MSPFJfr6GsUgRFJUUKe8+JIQwhr/Ww++OYEOj/FZGk6KWO73wJ8/285VVq1Pd1qtNKlJmZjUeuasy+G4unuPbGQ9wppY7jjyOVDRNzBiD5hMJrP0ZbFYOI4jPznpy8p82cbuS2OzIawJ7v3Dx7ujNKJH6jYi9f0215z1/tFJileUx5PnD3QB/6ZBwhpD21JP95a2pVOU69Oz5Wy1t1PPK4d0Avv52PMZl3RnlQZVSWEN+ZOj9M7NDIkSP2fveXvWEWmKGR+bmzLtwOxZ+zx/a/UMZfLf8OG/Q+7b3yHmPt4YK8TaelVpq+NwAW+9dKcowxoy6kff2bn9hRfPZ2a5HI6GQ4fJ+p53vsqq1opzvNvdWnGuan26y+Egf+tQjjPa9PNfHnl31rbnXyBjjmTjjLY9/8KRd2fRnjV3qqvJqKvSTz+zm800FlEZ1rgcjvavzzttturcTdtfeFHX0dHf2DjY0hJmWEMqQ7oX3amuZlMkhDX0KEJYw1IEXg7+vam5lowJkvpdii8XyD/azHuE91/d/NdnHXl7mtjFMuC7hlhD6T2IjAgW/6ln/nggvacMvy/4aA4z8Nba3dy2a4F3zhrpjYy8l9qkkVC1BZ6XB+hZ43N9v5sI4h3NR829UHjKnwDeHP3JBHh8X369lQxHtBnMN6tqF4yYOiqoU17cSnBhTVLgrQeoNp5SKYCTQiVU+KuN+vlz8NYtm8HotFrLly6nm6MD8N1Op76zk6Y2CGsoUWwW0LMGYU2YYY00osdWXzt71pHZs44fEieaoeN9pM+mfV3M1G5d4rQbnk+r5K+IAeeskYbik8/T+qoGcTCRcnB+Ugr5A2b93iNiHeY2SJ13vKOx6B8kSdYj6PaXiKOXSVgzW+ysPjKsoesnHTnZJ012w/iMeKcfteHSZAfeqQeEPtKvJ4za3gufhvHWS//hVoY1Z1JWOW22lvLyo7PnnPxsoamnlwQ3tGdN27nKTT//Zd/1Gy6Ho+V0OQ1rmktPuhyOqg0ZPgvvqauzm83HP/iIPsuGHUfenWXV63vr6o/OnlP8/l8GmpvpdDnqw5rzmVn9jY3G7p6mL0/YzeavVqxkBzqRv73QSXlUzllzq+y002o9n5l1dPacS1u3uex2Oi6MrT9t1LhdwDmlctcrrtxG/SdafCfKXiqOjBBaDzUOhzVS35nWQ+x0M8OFB3zXSJmYJPXu7GtJFt8Qj2TUWJmp3EYPa8R/5KfsWVrQWFWvE3v9CM6be6WJcqQ3pr6a4UlS6ez+AcIan+v73YQqLpX7AqspBXAiK01UPTJl2un8krbaDim1sQ3sGu67PXxWej4dBTqGxW2N+AgnfrQb5VPoxKQU/1tXVfl74WPbGDYEJ0XM8Ef9/CkIgt1sljpNewbjk7qtffyHpxcvaa04ZxkaEniedLJGWBOzHUc2hLAGYQ0TRqh4X5G/O0ojeuSdZ/rKyR2glJ9NxZd7w5qUXSOSHU8f7L7yI6QazGdQz+dpcTM+whrpw7G8CuaTZKrj4fAlZeJrtbfILMHesIb0+h6eziYpZSKzvtQ0dobjEe/0ozfcZr7ZPHCzWacf0aM+jNoGt6di/E8J/QdlTLYbhxuVhTVk4hjZYcq7XDXbxL+Qs+98+/7wmrG7m3e7BZ4nPWvIuyzbN5Ut/PL2nbzL1Vpxjs7Ry4Ydt8pOyzZKJwxWH9ZUrttwauHndrOZd7tJldiw5srOXbzLdXn7TrIXyLho/Z07pONP27lKWceflIlJJEKSVYzT6Q6/8644EwEmGGb+KcbHWZVnd8jvTZ5pRMXDkfwhQbrkGzEtPTs7hjRWyN+7hvSXA9mBLdjqq6URVco3xIBNm1Jzk1aJeWNijg3x5cwbJVOa//VHvJzZxOjvaAH7BI0o9h54q2KsYlRbnMjhmk8pGHAKwk16Xwv2rJR2YsBjWNy6IqwZ5VMoe1Qrth5uc9jCx+syTorYHEVqPn+SCRPrviiig/FldVv7+A/7rt+wGYxH3p3FfmSVrYZfoyGAsAZhTXCfVGQfiGXdvFMmJu051CEItq5UsVjlZ9MRYc2UvF5xRpq+rl2rjyzIaLwpzvXrDVnkn0G9n6eVYY1094rWQ977dHjvxOEZjTXyM+sUMqiKhjXeP6vaOrr2Z5TOXlC1v8bspM96OuM479Q0ZCw4siCjoUbsF0Rmpwui4ST0qc+T/k4bVm2j8U9AZMvEWy/1ZPMU8S94I4cgpUxM2veH18z9/YMtLbn/NlX2zkdm4BcEgSQjax//IRkepWtvv5CVXZa8uOtSDe92k3tFkc444l88btw8k7LqTMqqgaYmMuMvuwlSMdIVlkyXQ8IaU08vvcu48h7bbG7SfPKUub//wH+9Jes7c/iddzmdzm4y1X2xvyx5cd/1G7zbTW8g1Xau0mmzNX15gm7l2JwPGg4ddjkc5zOzKBc7LozdKF1h3C7gnFK568N4b/L8U+8Na5JSSHdOp2GgvODs7Fln88vFqeu99zH0/PHA17sG+/bnqbY0TJiMgZXeEEd0NZXd2/t4eZ/n7Wb2rNKMcp1Nml1VvJCT3siYnjK1GQsO/Ic0D7EY1tgGyofvTFyzdFqA9f1tIoh3tPF6YanyOPS3Gk5kfzL+H5/b0m3TVR+qWjDryOwFVeXiDdrMJcN3UQzqlBe3ogxrAn0KHWXr/qsd3Ifq8VwOTorY7H31nz/pp03y97/mk6e0beLHzqOz51zcvMVmMGrb2rc9/4LsI2tsWjGet4KwBmFNcO8rI94dX9kr/qFjxN2XPMN8yIOjhDUTk7I/PTQgdfYW/xTptOmq8obn+pX/wZD0i5GHNXvE1YYHXpGTWbodAHlwZFhDO70zt8nIX8DUQRCc3fUNw+Oif126v9kzZFqqobn2kHh/kCAbvq9YDLAGdk0Lv7Zx/q8V3nrpDpKFNSSzYO95lDIxSRwKJN1OW/nOR/6+QcKalIlJGyc/c/3wEfHWidKXy+HoqrlcOP2PZHPbX3ixteKcy+Egzzo4ruV0+fYXXqz7Yr/b6aR9XsjKl7fvJA+SsIa8hPxUdoHxl5uwPWvEWHbxEvHO4jwv3lzc4Wgm5QI4AAAgAElEQVQ9c5bOmNN2rpLdhCAILafLjd09dAgYbYK+s5M86G+j1HZcLeCcUrm7w3pv8uT4w51HxHv/3fH2xBTnp29u8d4WMGVikp93DRKpeDqWeqst9cSReptKb4gjzgb2xjRigJtdPvyGKG60voa9G9SIl3oH8ErvgOwz0sBeqSbso94Bv743EeQ7mrdpwX14GOevwokc/AHwWnU58wFMEKy1BcMfEWV3gxrtGBa3rgxrAn0KHWXrwTcH54tcACdFbI6ioD5/0sH4X2dsrM7ONQ8MkI92As+benrJiHvlR9bYNGTcbgVhDcIa+b+eY3Ay/Po1z9yNY/gnuynTDpD5I33VIfs/3vb8GdPXs2MgFqtqLPkfT87+95fYBs7+95eW/I8n2UfYZbz1shrRWN7z0rQ9Lw0P2pdt4ov/fJ0MPpI9Hptftz3/wsG3ZtLRWLHZaMJvBefUmO7iX++b/Zp3ll/Fe2XAd40wqv3rfbPf3uP7XlSKOoT4XhCDTUSqqvFbzvKkxz5//Cl2R3/++FPLkx5jH6HLOJEpRdALMfiIGGATAZ4K8eyL30M66F2jEMBJEb5hvJWwcfIzh97+b/oXuHir3nioD8IahDWJ/LYxHs7haLdx9r+/RPMadtnndvF51CcLHoRAyAI4p0KmwwshEG2Bzx9/iuY17LJyuziRlSZ4JCEF2BOBXVY2FieF0gSPQEApgLAGYQ3CGgiMIkAymlGTGtxmWPkvLB6BQJgC+DgbJiBeDoGoCpDL0cAXpXhzjOouQOHxJoCTIt72COpzTwsgrEFYM8qF+j19fKPykRJ471fT3/vV9FFLw4XlqERYAQJBCeCcCooLK0Mg9gKfP/Evnz/xL4G3ixM5sA+eTTABnBQJtkPRnDEUQFiDsAZhDQQiJoDPo2P4rzk2nZACOKcScreiUeNNACfyeNvjaO+oAjgpRiXCChAgHTNH3jAgkr+ZTCaz9GWxWDiOIz856cvKfNnG7ktjsyGsidiFOs4oCOCtF8cABCIrgHMqsp4oDQJjIoATeUzY/3/23vQtiiR7/37+SL2638z4cubNfH/tuCMiIktRlOz7ZrGILGoriBu4gqAiLYsWKsgiKEgBtVF7VeYzZVRHZ9dGFEYgRN5eXDNZkSdPRnzivqn2GBmJm+5nAjDFfp4d9G3/EMDKGhRrUKwBAW4E8NW7f365oydyEICn5JhHjELnBGBknQsAw48nAFPEM0ELCMQTQLEGxRpuf1GPlxda9EYAX716m3GMVzQBeEo0YeQHgT0gACPvAWTc4mARgCkO1nyhtz+LAIo1KNagWAMC3Ajgq/dn/SrHfWUlAE/JOrMYl64IwMi6mm4MloUATMFCCTEggGINijXc/qIOO4EAvnqhARDgSwCe4ssT2UDgpxCAkX8Kdtx0PxOAKfbz7KBv+4cAijUo1qBYAwLcCOCrd//8ckdP5CAAT8kxjxiFzgnAyDoXAIYfTwCmiGeCFhCIJ4BiDYo13P6iHi8vtOiNAL569TbjGK9oAvCUaMLIDwJ7QABG3gPIuMXBIgBTHKz5Qm9/FgEUa1CsQbEGBLgRwFfvz/pVjvvKSgCeknVmMS5dEYCRdTXdGCwLAZiChRJiQADFGhRruP1FHXYCAXz1QgMgwJcAPMWXJ7KBwE8hACP/FOy46X4mAFPs59lB3/YPARRrfn6xxvrNgR8QAAEQAAEQAAEQAAEQAAEQAAEQAAEQoARUYX9cLtf29z9ut9vj8ZD/9Xz/49X88f28P/+fz4diDUpFIAACIAACIAACIAACIAACIAACIAAC+4uAsFqNimINE1uhq5uYeoAgEOBEAGLmBBJpQCBKAJ6CFEBAAgIwsgSTiCHwJQBT8OWJbLISEOoUFGuYZCN0Dph6gCAQ4EQAYuYEEmlAIEoAnoIUQEACAjCyBJOIIfAlAFPw5YlsshIQ6hQUa5hkI3QOmHqAIBDgRABi5gQSaUAgSgCeghRAQAICMLIEk4gh8CUAU/DliWyyEhDqFBRrmGQjdA6YeoAgEOBEAGLmBBJpQCBKAJ6CFEBAAgIwsgSTiCHwJQBT8OWJbLISEOoUFGuYZCN0Dph6gCAQ4EQAYuYEEmlAIEoAnoIUQEACAjCyBJOIIfAlAFPw5YlsshIQ6hQUa5hkI3QOmHqAIBDgRABi5gQSaUAgSgCeghRAQAICMLIEk4gh8CUAU/DliWyyEhDqFBRrmGQjdA6YeoAgEOBEAGLmBBJpQCBKAJ6CFEBAAgIwsgSTiCHwJQBT8OWJbLISEOoUFGuYZCN0Dph6gCAQ4EQAYuYEEmlAIEoAnoIUQEACAjCyBJOIIfAlAFPw5YlsshIQ6hQUa5hkI3QOmHqAIBDgRABi5gQSaUAgSgCeghRAQAICMLIEk4gh8CUAU/DliWyyEhDqFBRrmGQjdA6YeoAgEOBEAGLmBBJpQCBKAJ6CFEBAAgIwsgSTiCHwJQBT8OWJbLISEOoUFGuYZCN0Dph6gCAQ4EQAYuYEEmlAIEoAnoIUQEACAno2shL8rHieKK4biusafjQEbkSwBD9LIO/dDUHPptgdMVylTwJCnYJiDZOohM4BUw8QBAKcCEDMnEAiDQhECcBTkAIISEBAv0b2T2nKEyjWJCCg+qckUPguhqBfU/wJyzs0vHXs+Povv64fOoyfBAR++XXr2HHv0PCfwHT6/0KdgmINk6qEzgFTDxAEApwIQMycQCINCEQJwFOQAghIQECfRo6sqcFqGhYCulxfo09T0N9m283NG0eOWA8dtqJSk4QAgbNx5Mh2czPlpsMDoU5BsYZJUULngKkHCAIBTgQgZk4gkQYEogTgKUgBBCQgoE8jf3/6KcFaElRwYgl4nkgg8nSHoE9TEEreoeGNI0cSrCVJUrbQeeTGkSN6Xl8j1Cko1jD94hI6B0w9QBAIcCIAMXMCiTQgECUAT0EKICABAX0aGfvUxBZlkq6yuSGByNMdgj5NQShtHTuOBTXsFSjrocNbx46nKzBp4oU6BcUaJp0InQOmHiAIBDgRgJg5gUQaEIgSgKcgBRCQgIA+jcxcqsDqm2sSiDzdIejTFITS+i+/oliTVrFm/Zdf0xWYNPFCnYJiDZNOhM4BUw8QBAKcCEDMnEAiDQhECcBTkAIISEBAn0ZGsYadgAQiT3cI+jQFocRep0AkJZCuwKSJF+oUFGuYdCJ0Dph6gCAQ4EQAYuYEEmlAIEoAnoIUQEACAvo0MnupApESiDzdIejTFIQSLUDggJ1AugKTJl6oU1CsYdKJ0Dlg6gGCQIATAYiZE0ikAYEoAXgKUgABCQjo08gowbATkEDk6Q5Bn6YglNgrFIikBNIVmDTxQp2CYg2TToTOAVMPEAQCnAhAzJxAIg0IRAnAU5ACCEhAQJ9GZi9VyBQZtPdYxpsdq51pDUoCkac7BH2aglCiBYh0D7ZOn3aWVzhMJus//kmu3e7qDnz4aM8vSDfVXsZvnT7tn5zyDgz8yE3TFZg08UKdgmINk06EzgFTDw5gUDgcHnk+lptTkplhyMo0dl296fX66Dg+L30pK2nIzDDk5pS8GB1XFIWcslo3mxs7MjMMmRkGY0HljOUjabfbHMaCStJO/ndq0kKz4YCdAMTMziphpNvt6ey4mZVp1Kpaq88UyvT7/ffuPMrOMmVmGJobO2xbdlVVWa6lfsnMMJSVNHxZWaV9S5hTVVVte3aW6d7dx8FgkF5ltW62XO7OyjRmZhgMeeUzlll6CgfpEoCn0iXGK17rHfrtMDVpmZq00C8Ru80Rczuf11db1UICBh48JWdTWEx7ebJvqBjHUXerqprsq3DgwVPaZ3pwpe269nY43ksC+jQyS7XCt9X95H5NbnZO5pnsrLMXWhourS9dYbmQS4xt5aoxLzfzTDb9qS0v/DBxOezs2XV+t7WrotgwO21OK8NeqnGf3EufpiDwd1GzcFbXhL5+Vf/8G43i8/mGhzf+9W/vw4eKx+Msr9hFztSXhJaX/yYVRQl9+eIoNKa+KuFZW/aF8Oamf2oq4VnGxr91Rk8fhDoFxRomKQmdA6YeHMCg3lv362pav61ZFUWx2Rx1Na3m5q5QKKSq6uzH+byc0ok3bwOBwOrXb0WFVX23HiiKYl3fKMyvGHk+5vcHgsHg+OvJ7HNFnz4tqqo6N7dQUdbk8XgPIIn91WWI+Ufmw+32lBU33Pr9ntvtcbs9PV29xaZat9tDczbUtY+9mqAftQfBYPByU2fL5S6bzeH3BwYHnuVeKPn2zUpjkl07N7tgyCt/O/0+GAySC/NySjc2tlRVTZYzHA43NXR0Xb1pszkURSEu6+8bIPeam104n1n09Mmo3x9QVXVz0+Z0btNu4CBdAvBUusQExb8YHS8rbqB+3NqymQqrt7ZsyW7Xe+t+7637ke+X5BbTXpviGyqZE1VVTfZVSO9ObhEKhepqWoeHXmnviOO9JKBPI+9YrbB+7sjPudhcW/T1U3vI0bO93vXwTnXm6fOjT+p2vJZLwOZyh6kgb3O5g2QL2Lqnx5ounMuZeNG46/wo1jA6S5+mIHAYyxM0zFVfr2xvh9bWXA2N64cOb/521Pv0aejbN2d5hdBiTWh5+a8+tLQq29vB2Tnawn6AYg2jKRKGCXUKijUJmcc2Cp2D2JtJ+nl5+ashv+L7X1P95aWNb/54Swe6+vWbIb9ibW2dttCDtpae/tuDqqpa3n1sbuygC3BoAA7SJQAxp0tMG3/v7uNWczfVYTAYrKkya/9+lazgoqrqmz/elpc2+v1+klBRlJ6u3us9t2n+FNfSmO//gB8oL238Y3yKJSe9cGrSUnqp3uf1+f3+qvLmkeExegoHP0gAnvpBgFwu/7ZmLStu0FY/2Ys1MR3w+/+yWMypmI/0G2pHd9ML6VdhTLFmbm7BWFAZvw6IXogD0QT0aeTU9Y6ArbumvLCvpyJmGcvyh7bc8xfn3kZWpjhWOy3jzQFb98rHtpHHddNjzb7Nbm3akKPn84fIqdkpc8AWPUUfRNpaufrqWcOrZw2O1avaq+hxTLGGtPf2lLc1XaIxAVv327Hmkcd1nz+0hRx/W3Hj2eh+M9r08kn92vwVOor4Ys3CTOv7N5djrqX5yYFoBe7D/Po0BZkI9jLH+qHD1n/8Mzg/H97asuflx1+oLdZs/OvfvuFhxeNRFUXZ3vY+eUKelvLcvh12OiONgUBobY0sw3GZW0Lr62o4rAQCgQ8fbeezY5KHlpe1xZr1Q4e1LZGVPl++qKGQGgoFl5ac5eXkcntubnBuTgkE1HA4tL7uMresHzocU6zx3LkTtts9/f0xd0z9cR9qeG+6JNQpKNYwTaLQOWDqwcEPmptbKDbVulzby8tfTcZqh91Jx6QoSmP9laGnL2gLOdC2j72aaGroiAnAx10QgJh3AY1c4vcHKsuaYp5yGnv1prrSTJaMqaqaouDS1tIzOPBMe3dqCtKY4lrtVR6Pt7S43vIu8oTgjjnphbSf8QakMTjYHQF4anfcOF5Flry9GB3X5tx1sUZrMW3CmGPtNxS7E2NcT3IqitJq7r5393HMLfBxLwno08gx9YiYj7PT5hJj/vZ6V0y74rp291YlKZeQmPpKY1lRweN7Nc21RVkZ2bNT0SeMtte7ykwF1WUGcspw8eLaQrviuua2dpVfKqivNBouXrxzs7K5tuj08axXzxribxRfrAk7ezpbSvpvVJDgT29bLpzLaa4tenyvprrMYMzPs36OLsN5PdxwLiO7s6Xk4Z3qS4a82opCMhZtsSbs7Bl5XGcq+Ouq+D6Qlr1U4z65lz5NQeCnrkrEnHVcKlZcLt/z5zHt5KO2WOOfmFB8Pu/goLO8wvfsmeL3+8deuxoaFbfb//q1s7zCVV/vffTIlpFBluoEZt47Skpd5pbwxkZwYXHzP/+nvUWkNPP1q7O8gvx4BwYUj8f78NH6ocPO6mrF5QotL7vq611mc+jrV8XlcpSURooyGxvhjY3ttnZXfX3g40fF59tuv0KLNdZ//NP79BnppPZeLMf7RLd73w2hTkGxhmlChc4BUw8OeBBZIk6ewrC8+1haXB/zQFPMvzGS4c5+nDcWVJLHPfpvD544lpOZYcjOMl1u6vz44RNd3XDA2ex19yHmXRN3ubaLTbVzcwvaDDEP6CUruIRCoaqKyzFPSMX8ZTLZtdrbqaoaedajpMHj8bLkJNeSv8qOvXpDFqmVFtcvzC811l8hhrp35xFd7xNzL3xkIQBPsVASGtPRfiMzw/BwcMjpdNEbxfiLttODhN87WovRyIQH9BuK3Ynar0JtzrW19cKCyoTLS7VhOBZKQJ9GTlaYIO3PHtQ2VBkTxnycNJdfKnBbu2anzSf/e067+sYy3mzMy7WtXA07e640X9KeGn1SX11m8G11u61dpoK8xuoiutbmj5HG4sJ8tzW2MLS53JF/4eJgf/XI47qRx3XDDyNdqvuz7EJ2tPkwcZl0Muzs6eupqKswBu09izOthXm5a/PR7XUCtu7m2qLrHaWkVET2rAk7ex7fqykuzN/68zGrhIMljULltz+T69MUZC5YahM0xlle8b1K8pC2aA9osSZa0xkapmd9oy/Cdrv38ePI5U+fbfzr3/SUf2IitL5uy8ggLa7L5rDTud3WTgPIOpoY5YTtdldL6/qhw/6xsbDdTlf6OEymsMPhe/7cc/ee4naTZ7XI41qhtbXA+/ekWBOYnvaPjyt+v3dwUHsjxuOYzujno1CnoFjDJCShc8DUg4McFAwGr/fcvtzUSfY3nZq0FJtqdyzWLC9/Lcgrn/04T4bu8Xi3tmzk538bEmedLRx69vIgU/lpfYeYd43eYXcWFlQyFmv8/gBVrN8f8PsDZcUNjMWaYDBosznI5TFOmZq0FBZUkmc9WHKqqur1+hrq2sm2UKqq/jE+lXmmoLS4/vPSF1VVnU6Xdj+pXcPR84Xw1E+f/e1t95cva3f7H57PLFqYXyL90RZrYvxIAhIWa7QWUxTF4XARJzocLu2/EGi/oRidGPNVqIV2ved2T1evNr/2LI73hoA+jZyiNqG4rg30VyUr1sxOmyuKDaRYY8jN3Vr56yGmoL2ntqJw8mWT/cvV4sL8uemWzeUO8rMy215RbFj91O62dhUX5k++bKIdiF9BQ07FFGuePai9XGfKOnth/HlkGc7ky6baisKg/a9HnzY+XzHm5a5+ah/or+puK6H5Fde12WlzcWG+c62TrKz5OGnu66kw5uXavzK9FmpvdLiv7qJPU5ApYCxPkDDGlTXunmuKx+PuuUaTu3uuhZ1OV22df+x15LkkRYkssRkf3/ztaOzmwd/3KdReG/PQ0/qhwxv/+ndgejrsdDpKSrXPQ5HbhZaX/VNT/qmp8OamLfsC7YN/aiq0vEyKNYrfr4ZCit/vvn6DBrAf7Cv17mVnhDoFxRqmqRQ6B0w9OLBBwWCwo/0GrdSoqrowv0Seh9KOKWYN+fynpbycUlqp0UaS4+mpmfLSRp/m9VLxMWhJSABiToiFpdHn9ZWXNpLnj2j81KSlsqyJ7NSrfQxq/tNSc+NV8jP/KfK3x6aGjphn/WKeSKIra76tWdtar5Fryd405HbjrycL8sq1u3LsmNPt9lRXmmmlhuzVfeZUnnYUmxtbpsJqsoSNjgsH7ATgKXZWoiPv3X3c1tJD7qIt1sT7kWz9SzYYpr2KsZjfH+jrfUCc2Nf7gNo8/htqRyfGfxXSm9psDqOhamlxhbbg4KcQ0KeRtbWM+ON3r5srSyILYeJPPXtQ21hdFHb20KqNNqahyvjqWcPmckfOuZy6isLm2iL609Z8aW3+ivZBJHJhimKNdoNhEvxltu2SIc/+JbLfTUw5iWbu7Snv7SnX9orewm3tKi3KL8zNrSw2mAx5o0/qtWHJjn+KLH/uTfVpCsKcvUIR3bNmbi5stzuMRdoLyVNLf62sKS1Ttrc99x/QGN/z55Gnky4VkxZb9oXIo0xer29oOFJD0aysoZdoD+IrMrQeFLMwx24whO12/9hYJL/L5SgtI3k2//N/odXV4Kf5aLEmUkvq8U9OKdvbrvp67b1Yjn+uXH/i3YU6BcUappkVOgdMPTiYQcFg0Nzcpa3UqKrqdnuKTbUf3s/RMcX8p+rc7MKF85dSVGrI+6TKSxtjFh3QhDhIQQBiTgFnx1PXe25rtwSO32mCFlziUw0PvaqraaW726iqGrNdcYpryaMZeTml2kqNqqqpc7rdntLiem2lRlVVh91pyK/Q+sthdxabatdWE+zwHT8KtMQTgKfimfyslhej4w117eTu2mJNwv7ErKx5MToeb7H4CxN+Q6V2YsKvQpp54MHT5sar2t8M9BQO9pKAPo2crDBB2sn6l/haxtZyR96Fi+R9TLPT5uzMnC+zbTTV9npXiTF/dtrstnZVlRgWLa30FD2gJRXaQisptIUcJGzfXO7Iy744/64lflcdTR2nnjwPRRNOvWqKPIS1+f0hLEOeud4UsHUvzrReOJfzcXLn13jvpRr3yb30aQoCn6U2oY1xVleHnc6w0+m+1bv521F7Xr5/fDxstzsrK2mxxvqPfwZm3itu93ZX98a//r3d1R1ZRzMx4TAW+UZHSQElsn/N9+1vXM3NitcbmHlvO5+9+dtR39CQ79kzshsxvW9MscZhMgU+fFC2tx2lZdrLbeezI/d1uZzV1Q5jUdhuD62sOIxFkbQvXyk+n7u7m+5ZE9lsOCMj9O1beGODPkVF75j6YJ/odu+7IdQpKNYwTajQOWDqwQEMCgaDLZe7Wy53k6eftCN4MTpebKq1Wje/v9rG39TQQd/qPTe7cDG7+H+vFtbGb2xsXW7qXFlZJY1ut6euplX7d2ZtMI5TE4CYU/NJffbbN2thQeXEm7fK9z8jw2P0LdrkwhQFF7JxzKOHw+FwWFXV9zOz9M30O177YnTc8Pc1NeSSFDkjp0oa+vsG4p+tGHjwtKGu3ft9YZqiKA/uPdG+pio1AZyNJwBPxTPZm5ZPnxbNzV305dx2m+NSUQ19O1taxZpkFosZSMJvKPKPEGXFDQndneKrMOG/XsTcER/3jIA+jUwLGckO/rdVcFZG9sM71WRzmbCzZ8HSmpd9ke5EMzttPnsqu66i0LEaeZjIt9V97UppTXkhiR99Ul9cmL++FNk4JuzseT9x+c1o5NGnHynWhBw9D+9Umwrytte7Arbuy3Wma1dKyfIfx2pndZmh/3pk7+HI3sZFBf970Th5x9PafOTxqFfPIotoYu4++qQ+93x05+NkHBTXtT2T4v65kT5NQfinrkokPBt5y9KnefX7f+OpqhpZRHPnTmS/3ocPFY+HvOBp87ej/okJNRiM3CUY9E9MbP521NXYFHnrk6JEGsPh4NwcefHTdnt72GYj7ZFst2/H3Df2USlFCdts7u5uEhbZlphc/r2dvPUpsvdweXno69eYtNpizfqhw2R74+DcXEx5KKYDMR/3j3T3uCdCnYJiDdNsCp0Dph4cwKD+24O//efc2dP5mRkG+jPw4Gnk95eijAyPnT2dn3Eq//jRC50dN8n+pjabIyvTSDYSppcYCyptW/bx15M52cUnj+WcPZ1/7LdseskBBPOTuwwx/+AEfFlZNeRXnDmZd/JYjtFQ9W3Nqk2Yolijqqpty15daT51/OLpE7kXskza5S3aR6i0CcmTgyeP5Zw+kUtNkZlhqK1qIY8BJsvZ1NBx9P+yMs8UaK8ir7IKh8P37j4m7WdO5lVXmm1b9pib4iM7AXiKnRXfyGAw+OTxyNnTBadP5J45mXfiWE5/3wD95wH2Ys3C/FIKi9E+J/uGIu/bTubEFF+FqqrGvPOb3gsHe09An0ZOUZugp9aXrjTXFh3/7dzZU+dP/vdcTlbO1Ksm+hps8hjU2FB9XvbFzNORgPbmS56N6JNTYWfP84d15zKyz546f+bEeZMhj+z4G1MuUVzXEq6gIe1ZZy+cPXU+80x25Of7LWorCkkBSHFd82x0/++OJ/97LvP0+YyT5+/eqqRv4N5a7qguKzx1LOvsqfPnMrLHhupJt2PuTrYlbqox0t2O6di1B3uvyZ9+R32agmCPKUOk9dF2Lmvzt6NpXSJH8E9X7M/qgFCnoFjDNK1C54CpBwgCAU4EIGZOIJEGBKIE4ClIAQQkIKBPI2uLEbs7Trhnze5S7fOrJBB5ukPQpykIJTmqJ3s8inQFJk28UKegWMOkE6FzwNQDBIEAJwIQMyeQSAMCUQLwFKQAAhIQ0KeRf7w+gmKNBOJPNgR9moLQ2OMyhxy3SyYk6duFOgXFGib9CJ0Dph4gCAQ4EYCYOYFEGhCIEoCnIAUQkICAPo3848WahZnW5toi70bXj6fa5xkkEHm6Q9CnKQglOaonezyKdAUmTbxQp6BYw6QToXPA1AMEgQAnAhAzJ5BIAwJRAvAUpAACEhDQp5H3eX1kX3VPApGnOwR9moJQ2uMyhxy3S1dg0sQLdQqKNUw6EToHTD1AEAhwIgAxcwKJNCAQJQBPQQogIAEBfRp5X1VD9nlnJBB5ukPQpykIJTmqJ3s8inQFJk28UKegWMOkE6FzwNQDBIEAJwIQMyeQSAMCUQLwFKQAAhIQ0KeR93l9ZF91TwKRpzsEfZqCUFr/5VfrocN7XOw4uLeLsPrl13QFJk28UKegWMOkE6FzwNQDBIEAJwIQMyeQSAMCUQLwFKQAAhIQ0KeRFdeNfVUQ2ceduSGByNMdgj5NQShtHTuOYg178ch66PDWsePpCkyaeKFOQbGGSSdC54CpBwgCAU4EIGZOIJEGBKIE4ClIAQQkIKBPIyueJ/u4PnJtH/XN80QCkac7BH2aglDyDg1vHDnCXq3QeeTGkSPeoeF0BSZNvFCnoFjDpBOhc8DUAwSBACcCEDMnkEgDAlEC8BSkAAISENCnkZXg531UEHHtp+pMTGeCnyUQebpD0KcpKKXt5uaNI0esh3pFj5sAACAASURBVA5jiU2yUhSBs3HkyHZzM+WmwwOhTkGxhklRQueAqQcIAgFOBCBmTiCRBgSiBOApSAEEJCCgXyP7p1CvSU1A9U9JoPBdDEG/pvgTlndoeOvY8fVffk1WrdB7+y+/bh07ruc1NUQpQp2CYs2fdkz5/0LnIOWdcRIEOBOAmDkDRTrdE4CndC8BAJCBgJ6NHFlfE3keCvvXxCztuRHBoss1NcTSejaFDL/UMIa9IiDUKSjWME2j0Dlg6gGCQIATAYiZE0ikAYEoAXgKUgABCQjAyBJMIobAlwBMwZcnsslKQKhTUKxhko3QOWDqAYJAgBMBiJkTSKQBgSgBeApSAAEJCMDIEkwihsCXAEzBlyeyyUpAqFNQrGGSjdA5YOoBgkCAEwGImRNIpAGBKAF4ClIAAQkIwMgSTCKGwJcATMGXJ7LJSkCoU1CsYZKN0Dlg6gGCQIATAYiZE0ikAYEoAXgKUgABCQjAyBJMIobAlwBMwZcnsslKQKhTUKxhko3QOWDqAYJAgBMBiJkTSKQBgSgBeApSAAEJCMDIEkwihsCXAEzBlyeyyUpAqFNQrGGSjdA5YOoBgkCAEwGImRNIpAGBKAF4ClIAAQkIwMgSTCKGwJcATMGXJ7LJSkCoU1CsYZKN0Dlg6gGCQIATAYiZE0ikAYEoAXgKUgABCQjAyBJMIobAlwBMwZcnsslKQKhTUKxhko3QOWDqAYJAgBMBiJkTSKQBgSgBeApSAAEJCMDIEkwihsCXAEzBlyeyyUpAqFNQrGGSjdA5YOoBgkCAEwGImRNIpAGBKAF4ClIAAQkIwMgSTCKGwJcATMGXJ7LJSkCoU1CsYZKN0Dlg6gGCQIATAYiZE0ikAYEoAXgKUgABCQjAyBJMIobAlwBMwZcnsslKQKhTUKxhks00/oAACIAACIAACIAACIAACIAACIAACICAhgBTQWFXQSjWMGETWjBj6gGCQIATAYiZE0ikAYEoAXgKUgABCQjAyBJMIobAlwBMwZcnsslKQKhTUKxhko3QOWDqAYJAgBMBiJkTSKQBgSgBeApSAAEJCMDIEkwihsCXAEzBlyeyyUpAqFNQrGGSjdA5YOoBgkCAEwGImRNIpAGBKAF4ClIAAQkIwMgSTCKGwJcATMGXJ7LJSkCoU1CsYZKN0Dlg6gGCQIATAYiZE0ikAYEoAXgKUgABCQjAyBJMIobAlwBMwZcnsslKQKhTUKxhko3QOWDqAYJAgBMBiJkTSKQBgSgBeApSAAEJCMDIEkwihsCXAEzBlyeyyUpAqFNQrGGSjdA5YOoBgkCAEwGImRNIpAGBKAF4ClIAAQkIwMgSTCKGwJcATMGXJ7LJSkCoU1CsYZKN0Dlg6gGCQIATAYiZE0ikAYEoAXgKUgABCQjAyBJMIobAlwBMwZcnsslKQKhTUKxhko3QOWDqAYJAgBMBiJkTSKQBgSgBeApSAAEJCMDIEkwihsCXAEzBlyeyyUpAqFNQrGGSjdA5YOoBgkCAEwGImRNIpAGBKAF4ClIAAQkIwMgSTCKGwJcATMGXJ7LJSkCoU1CsYZKN0Dlg6gGCQIATAYiZE0ikAYEoAXgKUgABCQjAyBJMIobAlwBMwZcnsslKQKhTUKxhko3QOWDqAYJAgBMBiJkTSKQBgSgBeApSAAEJCOjZyErws+J5orhuKK5r+NEQuBHBEvwsgbx3NwQ9m2J3xHCVPgkIdQqKNUyiEjoHTD1AEAhwIgAxcwKJNCAQJQBPQQogIAEB/RrZP6UpT6BYk4CA6p+SQOG7GIJ+TfEnLO/Q8Nax4+u//Lp+6DB+EhD45detY8e9Q8N/AtPp/wt1Coo1TKoSOgdMPUAQCHAiADFzAok0IBAlAE9BCiAgAQF9GjmypgaraVgI6HJ9jT5NQX+bbTc3bxw5Yj102IpKTRICBM7GkSPbzc2Umw4PhDoFxRomRQmdA6YeIAgEOBGAmDmBRBoQiBKApyAFEJCAgD6N/P3ppwRrSVDBiSXgeSKByNMdgj5NQSh5h4Y3jhxJsJYkSdlC55EbR47oeX2NUKegWMP0i0voHDD1AEEgwIkAxMwJJNKAQJQAPAUpgIAEBPRpZOxTE1uUSbrK5oYEIk93CPo0BaG0dew4FtSwV6Cshw5vHTuersCkiRfqFBRrmHQidA6YeoAgEOBEAGLmBBJpQCBKAJ6CFEBAAgL6NDJzqQKrb65JIPJ0h6BPUxBK67/8imJNWsWa9V9+TVdg0sQLdQqKNUw6EToHTD1AEAhwIgAxcwKJNCAQJQBPQQogIAEBfRoZxRp2AhKIPN0h6NMUhBJ7nQKRlEC6ApMmXqhTUKxh0onQOWDqAYJAgBMBiJkTSKQBgSgBeApSAAEJCOjTyOylCkRKIPJ0h6BPUxBKtACBA3YC6QpMmnihTkGxhkknQueAqQcIAgFOBCBmTiCRBgSiBOApSAEEJCCgTyOjBMNOQAKRpzsEfZqCUGKvUCCSEkhXYNLEC3UKijVMOhE6B0w9QBAIcCIAMXMCiTQgECUAT0EKICABAX0amb1UIVNk0N5jGW92rHamNSgJRJ7uEPRpCkKJFiDSPdg6fdpZXuEwmaz/+Ce5drurO/Dhoz2/IN1Uexm/dfq0f3LKOzDwIzdNV2DSxAt1Coo1TDoROgdMPTiAQeFweOT5WG5OSWaGISvT2HX1ptfro+P4vPSlrKQhM8OQm1PyYnRcURRyymrdbG7syMwwZGYYjAWVM5aPpN1ucxgLKkk7+d+pSQvNhgN2AhAzOyttZDJlXmm7rpVlZobhStt17YXaY7fb09lxMyvTqHVEvLYzMwwXs4sXF5e116qqmqwPqqoqivLu7QfiEa1xUthwcXH5YnYx7XzCO8Z0AB8TEoCnEmIR2phM2AMPnlJJk4Paqhaf5qtH26tkrqFJkl3r9/vv3XmUnWXKzDBkZ5nu3X0cDAZJ5mQ5VVWl33qZGYaykoYvK6u0M36//8G9J+TrMjvLdOf2YDgcpmdxsDcE9GlklmqFb6v7yf2a3OyczDPZWWcvtDRcWl+6wnIhlxjbylVjXm7mmWz6U1te+GHictjZs+v8bmtXRbFhdtqcVoa90eG+uos+TUGmYBc1C2d1TejrV/XPv9EoPp9veHjjX//2PnyoeDzO8opd5Ex9SWj57/+hqCihL18chcbUVyU8a8u+EN7c9E9NJTzL2Liv1LuXnRHqFBRrmKZS6Bww9eAABvXeul9X0/ptzaoois3mqKtpNTd3hUIhVVVnP87n5ZROvHkbCARWv34rKqzqu/VAURTr+kZhfsXI8zG/PxAMBsdfT2afK/r0aVFV1bm5hYqyJo/HewBJ7K8uQ8y7mI8UytRm+/bNWlhQOftxXttIj91uT1lxw63f77ndHrfb09PVW2yqdbs9W1s2U2H11paNRn54P0dO0ZZIpSa5O1RVfTE6bsgrn/+0FAwG52YXLpy/9GJ0XFXVFDYcezXRUNeuvQWOd0cAntodtx+5KoWwaVriOGIE2qg9SOYaEpPsSyccDjc1dHRdvWmzORRFIV9h/X0D5KpkOedmFwx55W+n3weDQb8/MDjwLC+ndGNjS1VVt9tTWlzfcrnLZnOoqur1+r6tWbX9xPHeENCnkXesVlg/d+TnXGyuLfr6qT3k6Nle73p4pzrz9PnRJ3U7XsslYHO5w1SQt7ncQbIFbN3TY00XzuVMvGjcdX4Uaxg9pU9TEDiM5Qka5qqvV7a3Q2trrobG9UOHN3876n36NPTtm7O8QmixJrS8/FcfWlqV7e3g7BxtYT9AsYbRFAnDhDoFxZqEzGMbhc5B7M0k/by8/NWQX2GzOfx+f3lp45s/3tKBrn79ZsivWFtbpy30oK2lp//2oKqqlncfmxs76AIcGoCDdAlAzOkSSxhPlUnPBoPBy02dKf5meO/u41ZzN9VwMBisqTIPD72KKdaEQqHmxqsDD57SzMkOaB9sNofRULW0uEIj3737EF/uUVWV2lBV1aGnL27euEsvwcGuCcBTu0bH60KtsElORVF6b94n/wyQ8C47uiZZsSY+29SkpfRSvc/r2zEnvdbvD5SXNv4xPqWq6sCDp00NV+jaHBqDgz0moE8jp653BGzdNeWFfT0VMctYlj+05Z6/OPc2sjLFsdppGW8O2LpXPraNPK6bHmv2bXZr04YcPZ8/RE7NTpkDtugp+iDS1srVV88aXj1rcKxe1V5Fj2OKNaS9t6e8rekSjQnYut+ONY88rvv8oS3k+NuKG89G95vRppdP6tfmr9BRxBdrFmZa37+5HHMtzU8O9liQ++F2+jQFIc9e5lg/dNj6j38G5+fDW1v2vPz4C7XFmo1//ds3PKx4PJEV0dvb3idPyNNSntu3w05npDEQCK2tkWU4LnNLaH1dDYeVQCDw4aPtfHZM8tDysrZYs37osLYlstLnyxc1FFJDoeDSkrO8nFxuz80Nzs0pgYAaDofW113mlvVDh2OKNZ47d8J2u6e/P+aOqT/uB9H+lD4IdQqKNUxzKnQOmHpw8IPm5haKTbUu1/by8leTsdphd9IxKYrSWH9l6OkL2kIOtO1jryaaGjpiAvBxFwQg5l1Ai7lEq0xySlGUvlsPLjd1Jvsbl98fqCxrinl2b+zVm+pKM1luRm+xtLhiNFSRf2OnjfEH2j5MTVoqy5r8/gAN83i8pcX1lnfRpwhpO7UhWXRDKqH0LA52RwCe2h03jldphU3SvhgdLytucLs9ye6yo2vYizXUyDvmpJ2hDk34m4GG4WAvCejTyDH1iJiPs9PmEmP+9npXTLviunb3ViUpl5CY+kpjWVHB43s1zbVFWRnZs1PRJ4y217vKTAXVZQZyynDx4tpCu+K65rZ2lV8qqK80Gi5evHOzsrm26PTxrFfPGuJvFF+sCTt7OltK+m9UkOBPb1sunMtpri16fK+musxgzM+zfo4uw3k93HAuI7uzpeThnepLhrzaikIyFm2xJuzsGXlcZyr466r4PpCWvVTjPrmXPk1B4KeuSsScdVwqVlwu3/PnMe3ko7ZY45+YUHw+7+Cgs7zC9+yZ4vf7x167GhoVt9v/+rWzvMJVX+999MiWkUGW6gRm3jtKSl3mlvDGRnBhcfM//6e9RaQ08/Wrs7yC/HgHBhSPx/vw0fqhw87qasXlCi0vu+rrXWZz6OtXxeVylJRGijIbG+GNje22dld9feDjR8Xn226/Qos11n/80/v0Gemk9l4sx/tEt3vfDaFOQbGGaUKFzgFTDw54EFl0QBaKW959LC2uj3mgqffW/d5b92NGOftx3lhQSRaK998ePHEsh2wQcLmp8+OHT3SFQsxV+JiaAMScmg/LWa0ySfzb6fcnj+Vcabv+ZWU1oTJdru1iU+3c3II2f8K/DV7vuX2957Y2LOGxtg9DT1/EP9DUUNc+9mpCe63WhqqqNjV0nD6RS/aNutJ2fUWzg4b2KhzvSACe2hGR0IAYYauqurKymnmmoL627eOHT8k2f9nRNQntGT8Q8rDV2Ks3ZLUaixPJc4tlJQ0ej5f8Zng7/b6v9wHZBKe5scNq3Yy/EVpEE9CnkZMVJkj7swe1DVXGhDEfJ83llwrc1q7ZafPJ/57Trr6xjDcb83JtK1fDzp4rzZe0p0af1FeXGXxb3W5rl6kgr7G6iK61+WOksbgw322NLQxtLnfkX7g42F898rhu5HHd8MNIl+r+LLuQHW0+TFwmnQw7e/p6KuoqjEF7z+JMa2Fe7tp8dHudgK27ubboekcpKRWRPWvCzp7H92qKC/O3/nzMKuFgSaNoBe7D/Po0BZkIltoEjXGWV3yvkjykLdoDWqyJ1nSGhulZ3+iLsN3uffw4cvnTZxv/+jc95Z+YCK2v2zIySIvrsjnsdG63tdMAso4mRjZhu93V0rp+6LB/bCxst9OVPg6TKexw+J4/99y9p7jd5Fkt8rhWaG0t8P49KdYEpqf94+OK3+8dHNTeiPE4pjP6+SjUKSjWMAlJ6Bww9eAgBwWDwes9t+mig6lJS7GpdsdizfLy14K8crr9h8fj3dqykZ//bUicdbZw6NnLg0zlp/UdYv5B9DHKJNn8/sDGxtbYq4n8i2V3+h+qqur3B6hi/f6Aw+4sLKjcsViztrZuyK9Y/fqN7BnscLhIEofDpa0BxfRhcODZjn9FjLGhqqrb226SfGNj6+HgUOaZgviVOD/ISieXw1M/caLjha2qajAYtNkcU5OW8tLGVnN3KBRSFCXGTTu6hhZr4q+l4/V6fQ117fRhqx1zkgunJi2FBZXfvkU2prHZHBeziwvzK4aevQyHw8Fg8OHgEN3Oht4IB3tAQJ9GTlGbUFzXBvqrkhVrZqfNFcUGUqwx5OZurfz1EFPQ3lNbUTj5ssn+5WpxYf7cdMvmcgf5WZltryg2rH5qd1u7igvzJ1820Q7Er6Ahp2KKNc8e1F6uM2WdvTD+PLIMZ/JlU21FYdD+16NPG5+vGPNyVz+1D/RXdbeV0PyK69rstLm4MN+51klW1nycNPf1VBjzcu1fmV4LtQci3G+30KcpyCwwlidIGOPKGnfPNcXjcfdco8ndPdfCTqerts4/9jryXJKiRJbYjI9v/nY0dvPg799t2mtjHnpaP3R441//DkxPh51OR0mp9nkocrvQ8rJ/aso/NRXe3LRlX6B98E9NhZaXSbFG8fvVUEjx+93Xb9AA9oP9JuA9649Qp6BYwzSPQueAqQcHNigYDHa036CVGlVVF+aXyPNQ2jG1tfQMDjyjLfOflvJySmmlhrbTg+mpmfLSxmTv+KBhOIgnADHHM2Fv2VGZS4srRYVVDrtz/tNSc+NV8jP/acnn9ZWXNsZUQ+IfmtDua+P3B/p6H5AMfb0P6FNO8X34Y3wq5nGqmGcr4m0YP+Qnj0fwpGE8FpYWeIqFkoiYHYVtszlMhdXLy1/j3bSja2ixJv5aMha321NdaaaVGlVVd8ypqur468mCvHJSqVFV1ePxmgqruztvUT7kCccUu1/RSBzwJaBPI2trGfHH7143V5ZEFsLEn3r2oLaxuijs7KFVG21MQ5Xx1bOGzeWOnHM5dRWFzbVF9Ket+dLa/BXtg0jkwhTFGu0GwyT4y2zbJUOe/Utkv5uYchLN3NtT3ttTru0VvYXb2lValF+Ym1tZbDAZ8kaf1GvDkh3z1duByKZPU5CpYa9QRPesmZsL2+0OY5H2QvLU0l8ra0rLlO1tz/0HNMb3/Hnk6aRLxaTFln0h8iiT1+sbGo7UUDQra+gl2oP4igytB8UszLEbDGG73T82FsnvcjlKy0iezf/8X2h1NfhpPlqsidSSevyTU8r2tqu+XnsvluMDoWoRnRTqFBRrmKZM6Bww9eBgBgWDQXNzl7ZSQ958UWyq/fB+jo4pZlNG8i6bFJUa8j6p8tLGmOU5NCEOUhCAmFPASX2KRZkbG1tGQ5X21U40Z8zzTYqitJq77919TAPIO7xjVt/Qs+QgYR/W1tYLCyq1W3RrN75JaMOYtOS5jPjlOfFhaIknAE/FM9mDFhZhezzespKGhJ5K7ZodX0FIXuGkrdSoqrpjzhej43k5pbRSQyi1tfTEbPXd1tITv4nbHiDV+S30aeRkhQnSTta/xNcytpY78i5cJO9jmp02Z2fmfJlto6m217tKjPmz02a3tauqxLBoaaWn6AEtqdAWWkmhLeQgYfvmckde9sX5dy3xu+po6jj15HkomnDqVVPkIazN7w9hGfLM9aaArXtxpvXCuZyPkzu/xluHBtGnKchEs9QmtDHO6uqw0xl2Ot23ejd/O2rPy/ePj4ftdmdlJS3WWP/xz8DMe8Xt3u7q3vjXv7e7uiPraCYmHMYi3+goKaBE9q/5vv2Nq7lZ8XoDM+9t57M3fzvqGxryPXtGdiOm940p1jhMpsCHD8r2tqO0THu57Xx25L4ul7O62mEsCtvtoZUVh7EokvblK8Xnc3d30z1rIpsNZ2SEvn0Lb2zQp6joHVMf6NAjZMhCnYJiDZOuhM4BUw8OYFAwGGy53N1yuTt+y9UXo+PFplryWL7f729q6KBv9Z6bXbiYXTw3+7etPTY2ti43ddI9NdxuT11NK8u+HgcQm/AuQ8y7Q5xQmR6P93JT54xlljyjFAwGb964W1fTGrNnMLkjebH3xJu3yvc/I8NjMQ87DA+9SnYtyZCwD+SBqb5bD+pr28h2qk7n9qWiGrJFVDIbLswvtZp7aFHJat0sKqwaHnq1Ozg6vwqe2nsBJBR2KBTqunrrxeg42acmHA4PD700FVYn3GaYbAqe0DVRu80tVJQ1Jfwngcg+NSUN/X0D2ocTUzuR1EMNmjU1FNrS0kphQeXy8lfSsjD/OfdCydLSXy93o5E4EEpAn0amhYxkB//bKjgrI/vhnWqyuUzY2bNgac3Lvkh3opmdNp89lV1XUehYjTxM5NvqvnaltKa8kMSPPqkvLsxfX4psHBN29ryfuPxmNPLo048Ua0KOnod3qk0FedvrXQFb9+U607UrpWT5j2O1s7rM0H89svdwZG/jooL/vWicvONpbT7yeNSrZ5FFNDF3H31Sn3s+uvNxMg6K65pQ+e3P5Po0BZmL1FWJhGcjb1n6NK+GwyRDZBHNnTuR/XofPlQ8HvKCp83fjvonJtRgMBITDPonJjZ/O+pqbIq89UlRIo3hcHBujrz4abu9PWyzkfZIttu3Y+4b+6iUooRtNnd3NwmLbEtMLv/eTt76FNl7uLw89PVrTFptsWb90GGyvXFwbi6mPBTTgZiPZOA6/F+hTkGxhklRQueAqQcHMKj/9uBv/zl39nR+ZoaB/pAXEiuKMjI8dvZ0fsap/ONHL3R23PT7/eTp/axMI9lImF5iLKi0bdnHX0/mZBefPJZz9nT+sd+y6SUHEMxP7jLEvIsJsNkcCZVptznmZheMhqrjRy9knik49lt2daXZtmVPdosvK6uG/IozJ/NOHssxGqq+rUU2rSB/4l9p/+eZ6P+n6APZpKO/b+D0idyMU/knj+Xcu/uY/H01mQ2DweCTxyNnTxecPpF75mTeCc0lMffFxx0JwFM7IuIekEzYq6vfqiouEz8eP5ptyK/4knzn7GAwmNA1pLf0Maj4zjc1dBz9v6zMMwX0eyozw0De9ZYs58L80sljOWRLb3pVbVULeZh39uN8Xk5p5pmCs6fzL2YXv51+H39TtIgmoE8jp6hN0FPrS1eaa4uO/3bu7KnzJ/97LicrZ+pVE30NNnkMamyoPi/7YubpSEB78yXPRvTJqbCz5/nDunMZ2WdPnT9z4rzJkEd2/I0plyiuawlX0JD2rLMXzp46n3kmO/Lz/Ra1FYWkAKS4rnk2uv93x5P/PZd5+nzGyfN3b1XSN3BvLXdUlxWeOpZ19tT5cxnZY0P1pNsxdyfbEjfVGOlux3Ts2gPRCtyH+fVpCjIRMWWItD7azmVt/nY0rUvkCN6HGt6bLgl1Coo1TJModA6YeoAgEOBEAGLmBBJpQCBKAJ6CFEBAAgL6NLK2GLG744R71uwu1T6/SgKRpzsEfZqCUJKjerLHo0hXYNLEC3UKijVMOhE6B0w9QBAIcCIAMXMCiTQgECUAT0EKICABAX0a+cfrIyjWSCD+ZEPQpykIjT0uc8hxu2RCkr5dqFNQrGHSj9A5YOoBgkCAEwGImRNIpAGBKAF4ClIAAQkI6NPIP16sWZhpba4t8m50/XiqfZ5BApGnOwR9moJQkqN6ssejSFdg0sQLdQqKNUw6EToHTD1AEAhwIgAxcwKJNCAQJQBPQQogIAEBfRp5n9dH9lX3JBB5ukPQpykIpT0uc8hxu3QFJk28UKegWMOkE6FzwNQDBIEAJwIQMyeQSAMCUQLwFKQAAhIQ0KeR91U1ZJ93RgKRpzsEfZqCUFr/5VfrocNy1FD2YBQRVr/8mq7ApIkX6hQUa5h0InQOmHqAIBDgRABi5gQSaUAgSgCeghRAQAIC+jSy4rqxz0sk+6Z7NyQQebpD0KcpCKWtY8dRrGGv8lgPHd46djxdgUkTL9QpKNYw6UToHDD1AEEgwIkAxMwJJNKAQJQAPAUpgIAEBPRpZMXzZN9UQ67t6554nkgg8nSHoE9TEEreoeGNI0fYqxU6j9w4csQ7NJyuwKSJF+oUFGuYdCJ0Dph6gCAQ4EQAYuYEEmlAIEoAnoIUQEACAvo0shL8vK9LJK59U8EJfpZA5OkOQZ+moJS2m5s3jhyxHjqMJTbJSlEEzsaRI9vNzZSbDg+EOgXFGiZFCZ0Dph4gCAQ4EYCYOYFEGhCIEoCnIAUQkICAfo3sn0K9JjUB1T8lgcJ3MQT9muJPWN6h4a1jx9d/+TVZtULv7b/8unXsuJ7X1BClCHUKijV/2jHl/wudg5R3xkkQ4EwAYuYMFOl0TwCe0r0EAEAGAno2cmR9TeR5KOxfE7OQ50YEiy7X1BBL69kUMvxSwxj2ioBQp6BYwzSNQueAqQcIAgFOBCBmTiCRBgSiBOApSAEEJCAAI0swiRgCXwIwBV+eyCYrAaFOQbGGSTZC54CpBwgCAU4EIGZOIJEGBKIE4ClIAQQkIAAjSzCJGAJfAjAFX57IJisBoU5BsYZJNkLngKkHCAIBTgQgZk4gkQYEogTgKUgBBCQgACNLMIkYAl8CMAVfnsgmKwGhTkGxhkk2QueAqQcIAgFOBCBmTiCRBgSiBOApSAEEJCAAI0swiRgCXwIwBV+eyCYrAaFOQbGGSTZC54CpBwgCAU4EIGZOIJEGBKIE4ClIAQQkIAAjSzCJGAJfAjAFX57IJisBoU5BsYZJNkLngKkHCAIBTgQgZk4gkQYEogTgKUgBBCQgACNLMIkYAl8CMAVfnsgmKwGhTkGxhkk2QueAqQcIAgFOBCBmTiCRBgSiBOApSAEEJCAAI0swiRgCXwIwBV+eyCYrAaFOQbGGSTZC54CpBwgCAU4EIGZOIJEGBKIE4ClIAQQkIAAjG0a9ZwAAIABJREFUSzCJGAJfAjAFX57IJisBoU5BsYZJNkLngKkHCAIBTgQgZk4gkQYEogTgKUgBBCQgACNLMIkYAl8CMAVfnsgmKwGhTkGxhkk2QueAqQcIAgFOBCBmTiCRBgSiBOApSAEEJCAAI0swiRgCXwIwBV+eyCYrAaFOQbGGSTbT+AMCIAACIAACIAACIAACIAACIAACIAACGgJMBYVdBaFYw4RNaMGMqQcIAgFOBCBmTiCRBgSiBOApSAEEJCAAI0swiRgCXwIwBV+eyCYrAaFOQbGGSTZC54CpBwgCAU4EIGZOIJEGBKIE4ClIAQQkIAAjSzCJGAJfAjAFX57IJisBoU5BsYZJNkLngKkHCAIBTgQgZk4gkQYEogTgKUgBBCQgACNLMIkYAl8CMAVfnsgmKwGhTkGxhkk2QueAqQcIAgFOBCBmTiCRBgSiBOApSAEEJCAAI0swiRgCXwIwBV+eyCYrAaFOQbGGSTZC54CpBwgCAU4EIGZOIJEGBKIE4ClIAQQkIAAjSzCJGAJfAjAFX57IJisBoU5BsYZJNkLngKkHCAIBTgQgZk4gkQYEogTgKUgBBCQgACNLMIkYAl8CMAVfnsgmKwGhTkGxhkk2QueAqQcIAgFOBCBmTiCRBgSiBOApSAEEJCAAI0swiRgCXwIwBV+eyCYrAaFOQbGGSTZC54CpBwgCAU4EIGZOIJEGBKIE4ClIAQQkIAAjSzCJGAJfAjAFX57IJisBoU5BsYZJNkLngKkHCAIBTgQgZk4gkQYEogTgKUgBBCQgACNLMIkYAl8CMAVfnsgmKwGhTkGxhkk2QueAqQcIAgFOBCBmTiCRBgSiBOApSAEEJCAAI0swiRgCXwIwBV+eyCYrAaFOQbGGSTZC54CpBwgCAU4EIGZOIJEGBKIE4ClIAQQkIKBnI684NkaWLP3vX/bNvMAPJdD//uXIkmXFsSGBvHc3BD2bYnfEcJU+CQh1Coo1TKISOgdMPUAQCHAiADFzAok0IBAlAE9BCiAgAQHdGtnybYmWJ3CQkIDl25IECt/FEHRrCsrKYrGYzWaTyWTEn0QETCaT2Wy2WCyUmD4PhDoFxRomUQmdA6YeIAgEOBGAmDmBRBoQiBKApyAFEJCAgD6NvOLYSFieQGMMAX2ur9GnKehvs8HBwbKyskQ1CrT9jUBZWdng4CDlpsMDoU5BsYZJUULngKkHCAIBTgQgZk4gkQYEogTgKUgBBCQgoE8jjyxZYqoS+JiQwMiSHtcO6NMU5LeZxWJBpeZvJZmUH8rKyvS8vkaoU1CsYfoPDKFzwNQDBIEAJwIQMyeQSAMCUQLwFKQAAhIQ0KeRsU9NwtJMfGP/+5cSiDzdIejTFISS2WxOWZ3AyVgCZrM5XYFJEy/UKSjWMOlE6Bww9QBBIMCJAMTMCSTSgECUADwFKYCABAT0aeT4qgRakhGQQOTpDkGfpiCUsE9NbDFmp88mkyldgUkTL9QpKNYw6UToHDD1AEEgwIkAxMwJJNKAQJQAPAUpgIAEBPRp5GSFCbTHE5BA5OkOQZ+mIJR2Kk3gfAIC6QpMmnihTkGxhkknQueAqQcIAgFOBCBmTiCRBgSiBOApSAEEJCCgTyPHlyTQkoyABCJPdwj6NAWhlKAUgaadCKQrMGnihToFxRomnQidA6YeIAgEOBGAmDmBRBoQiBKApyAFEJCAgD6NnKwwgfZ4AhKIPN0h6NMUhNJOdQmcT0AgXYFJEy/UKSjWMOlE6Bww9QBBIMCJAMTMCSTSgECUADwFKYCABAT0aeT4kkRaLdfHn5nv9956N5LWVT89uOflo5aB2+l2QwKRpzsEfZqCUEpQimBram1t7e/vv3nzZmlpKblieHj4y5cv165dY0vwc6JaW1sXFxcnJiZ+5PbpCkyaeKFOQbGGSSdC54CpBwcwKBwOjzwfy80pycwwZGUau67e9Hp9dByfl76UlTRkZhhyc0pejI4rikJOWa2bzY0dmRmGzAyDsaByxvKRtNttDmNBJWkn/zs1qcfXKFKAuz6AmHeNjlzo9/vv3XmUnWXKzDA0N3bYtuyqqvq8vtqqFqLMgQdPk91CUZR3bz8QJWvlPfDgKbm2tqrFp7EJzaO9aXaW6d7dx8FgkJxNljOFARcXly9mF1M3XcwuXlxcpvfCQboE4Kl0ifGKj/9eyMwwTE1apiYtRN7Ggkq7zRFzO+1V5HskhVlirqXfXJkZhrKShi8rqzRAa1L6m0FVVW17jHlVVbVaN1sud2dlGjMzDIa88hnLLE2Igz0moE8jMxYsesYeFVbVnTiVe+LkxdOZBeVtbTenh/tmXrQ+6s8uKLkxMcSYZxdh5VfaT5y8SH9OZxaUms0/eMf6m9cvXqpItzN7LMj9cDt9moKQ30XN4u7du1tbW/RvNIFAYGZmpqamZnJy0u/39/f37yJn6kusVqtWJ4qibG5u3rhxI/VVCc92dna6XK7FxcWEZxkbtZ3R1bFQp6BYw6QloXPA1IMDGNR7635dTeu3NauiKDabo66m1dzcFQqFVFWd/Tifl1M68eZtIBBY/fqtqLCq79YDRVGs6xuF+RUjz8f8/kAwGBx/PZl9rujTp0VVVefmFirKmjwe7wEksb+6DDH/yHwEg8HLTZ0tl7tsNoffHxgceJZ7oeTbt7++LHtv3e+9dT/ZLV6Mjhvyyuc/LQWDwbnZhQvnL70YHafByUQeDoebGjq6rt602RyKohDL9PcNkAuT5UxhwLFXEw117fS+OPhBAvDUDwLkdfmL0fGy4ga320MSbm3ZTIXVW1u2ZPkb6trHXk2oqprCLNpr52YXDHnlb6ffB4NBYv+8nNKNjS1VVZP9Zkht3rnZhfOZRU+fjPr9AVVVNzdtTue29o443ksC+jQyS8Gioff6iRM5lR1Xro0/7bWMdo0M5pdW5xhLb06P7EGxprj5cnHzZdrPnrEnhVV15/OLSbWItqd1gGINo7P0aQoCh7E8QcPu37/v8/lsNtvAwIDRaGxqanr79q3dbu/v7xdarLFarbQPjx8/9vl8q6urtIX9AMUaRlMkDBPqFBRrEjKPbRQ6B7E3k/Tz8vJXQ37F97/i+stLG9/88ZYOdPXrN0N+xdraOm2hB20tPf23B1VVtbz72NzYQcvVNAAH6RKAmNMlpo1/88fb8tJGv99PGhVF6enqvd5zm8akKNbYbA6joWppcYUGv3v3odhUS/9umaxYQ+PpwdSkpfRSvc/r2zEnvYQaUFXVoacvbt64S0/h4AcJwFM/CJDL5d/WrGXFDdrKKXuxJqYDWrPEnNJ+9PsD5aWNf4xPqaq6428GeiE1r9/vrypvHhkeo6dw8HMJ6NPIO9Y4Op8PnDlb0DrYr43stYz2vhuNX1nTaxm9OvSg9nr35bu3bk4/p5eQEk/97z31N6/3jD35q/3daMf3+NaH/bfeJn6WKqZY0zfzomfs0Zlzho6hByRPspv2zbxIdiqmWPP75HBj341rr5/SjiU8+Ln6/Cl316cpCGr2MofRaCwtLV1bW3O5XAmfddIWa2pqamZmZnw+n6IoXq/37du35Gmp169fezweRVFCoZDNZiPLcB49emS32xVFCQaDX758uXr1akyvrN//aBu1LXfv3t3c3Ax//7O+vn779m0S2d3dvbq6GgqFFEWx2+2PHj0yGo0xxZrx8XG32/369Wtt8h2Pf4pK98NNhToFxRqmKRY6B0w9OPhBc3MLxaZal2t7efmryVjtsDvpmBRFaay/MvT0BW0hB9r2sVcTTQ0dMQH4uAsCEPMuoNFL2lp6Bgee0Y9kzRcRNmlMUayZmrRUljWRf0InwR6Pt7S43vIu+qwfe7Fm7NWb6kpzKBTaMSftKjUgWUdAaqD0LA5+hAA89SP0uFzrdnvKihu069RUVd11sUZrlhTd0/p3x98MNA81b/xXIY3BwU8hoE8jJ6xKaBtN9Y2m+kZti/ZYu7LmxsTQhcKyzJyiyqsdxur6E6dyG3tv9M28uPVupKC8+tyFSHt5W9vZLANpvzExdD6v+EJhaVXn1bySqrNZhs7RQW1ychxfrLk6/ODs+UJS9El2076ZFylOaYs118efnc8vLmtt67VEyk8pfn6KLH/uTfVpCsJ8x8KENuDWrVter3dmZkbbSI+1xZqFhYVAIDA5Odnf3//u3bvIOuu5uYGBAZ/PNzc319/ff//+/enp6fb29vv373u93pWVld7e3kePHjmdzvX19YaGBprWaDRardatra3+P/9MTEz4fL6pqSmj0Xj37l2v12u1Wu/fv//o0aPNzU2v19vb29vZ2en8/ufJkyf379//+vVrIBB4+vQpLdaUlpa+e/eOdFJ7L5bjnyvXn3h3oU5BsYZpZoXOAVMPDngQWSJOHtywvPtYWlwf80BTwr/izn6cNxZUkkXm/bcHTxzLycwwZGeZLjd1fvzwCatsdicKiHl33FRVDYVCVRWXyXMTNEnMXwgTKpkEDz19Ef/wEX0Qg/1ZP/L30rFXb8gamdQ5ya21BlRVtamh4/SJXLJj1JW26yuafTfouHDATgCeYmclKLKj/UZmhuHh4JDT6aK3iPEmbacHWvfRxhiz0Pb4g8hTVyUNHo+X5TcDuVxrXvJVuDC/1Fh/hXy13bvziK7ai78dWkQT0KeRU9QmSJ0l21Baf/N6sjBarOm1jBoqaosbL9OSR+tg/5nMgs6RwZ6xR2ezjd0vH2mTROIra0uazTS+7kbPhcLS+Iebipsv5xSV117vJj9lra1nMgtIuSfFTVOc6pt5QYs118Yen7toquq8Sruh7WTMsWgF7sP8+jQFmQiW2gSN6e/v9/v9k5OTtEV7QIs1pKZjsVjo2Q8fPrjd7unpab/f/+7du5qaGnpqYWHB4XC0t7eTlocPH3q93idPntAAUqyJkY3b7X78+LHRaJydnXW73XSlz82bN91u98zMzB9//OHz+cizWuRxLZvNtrKyQos1c3NzwWAw2Vi0d48/jumMfj4KdQqKNUxCEjoHTD04yEHBYPB6z+3LTZ1kS9SpSUuxqXbHYs3y8teCvPLZj/Nk6B6Pd2vLRn7+tyFx1tnCoWcvDzKVn9Z3iHnX6P3+QFlxA2OxRlEUh8NFFOtwuBRFGRx4lrqwQlfWxF9L++z1+hrq2skeT6qq7piT7KahNaCqqtvbbtKxjY2th4NDmWcK6OoeeiMcsBOAp9hZCYrc3nZ/+bJ2t//h+cyihfklchdtsYZq3m5zhMNhEhBfrIn5tgoGgzabg5gl5jtratJSWFBJnrpi+c2gqmqMef8Yn8o8U1BaXP956Yuqqk6nS7uzmyBQSJuCgD6NHFOPiPl4c/r5+dxilmLNtddPzl00dT7/a2lMr2U091JlTXfnjYmhcxeKTPWN3a8e05oIiW97eKdn7BH56RgeyC4o0WYgnYkp1pQ0mzMvGHOMZTcmhlLcNMUpWqyJPOGVWVDd3Ul7FTP8mI8pxCPrKX2agsxmfCUiRQvjypqRkRG/3z8yMkJTjYyMeDye+/fvkxKJoihkiU1TU1PM5sHknwy115JijXbPmpqamsXFRbKCRvs8FLmd1Wpd/P7H5XJ1dnbSPiwuLlqtVlKsCQaD4XA4GAyOjo7SAPYDWY2w47iEOgXFmh35RwKEzgFTDw5sUDAY7Gi/QSs1qqouzC9pHxshI4tZQz7/aSkvp5RWauJHPz01U17amPC9OfHBaNESgJi1NNI9bmroiHleL+ZZBrqyxu8P9PU+aG682tx4ta/3gd8f+GN8ijy7RG/q9wcqy5roe81osSb+WnKJ2+2prjTTSo2qqjvmjDcgvTs9ePJ4BM8YUhq7OICndgFN0CX37j5ua+khybXFmkcPh4kZu67e3N52k4CYYk28Wb6tWdtar5ELyd405MLx15MFeeXa/XF2/M0Qb965uYUzp/K0ddLNjS1TYTVZTCqID9KmIKBPI8fUI+I/FpTXlLW2xbeTFrqypmfs0bkLRT1jf1s+Q59gujExVNbScjbL8N+j58/nF3e/jBRoTmfk5RSV55VU0Z+Citqukb/KPeQWNAntQ69l1FhdX9HRnuKmKU6RYs2p07lnMgsKyqvP5xYzvlsqhXhkPaVPU5DZZK9QkD1rVldX3W7377//rr2QPLVEV9b09fV5vd43b97QmJmZGa/Xe+vWLdLS2dk5MTERCAQsFsvi4qJ2ZQ29RHsQX5Gh9aCYhTnXr193u92zs7MTExNer7evr4/kaWhosNlsa2trpFjj9/ufP39OKj7379/X3ovlWFYj7DguoU5BsWZH/pEAoXPA1IODGRQMBs3NXdpKjaqqbren2FT74f0cHVPMJqnkLTkpKjXkfVLlpY0x/9RJE+IgBQGIOQWcHU8ND72qq2klLzUjwffuPm41d9OH8mixJj7V2tp6YUGldiPtpcUVo6HK9uerhWmxJv5aYpzS4nptpUZV1dQ5ExowPvmL0fH4JT/xYWhJRgCeSkZm79u1YtYWaxL2RFusYTSLqqovRsfzckq1lRpVVVP/ZnC7PfHmddidhvwK7Tedw+4sNtWurSbYaz9h/9HIl4A+jUwrIMkOWh/1Z2QVJtxNRrvBcGQDmtziloE+mufW25ELhWXNd27SlsiOv+9GS80tucWVkQ1lCkquPLmnPZvwOL5Y0zfzorj5MkmS7Kap+1N/8/qxYxdaH/aTp6XySqqSbW+s7RJfvR2IbPo0BZkaltqENobsEePxeF69etXU1HTt2rW5uTm32619G1RpaenKyorP5xseHq6pqRkeHvb5fAsLC7///vuHDx9IAWVgYIBsf/Pw4cNAILCysnL16tWmpqZ33/+Q3YjpfWOKNTdv3vzy5QupxWgvv3r16srKitfrvXv37u+//+52uzc3N3///fempqbZ2dlAIDA8PEwfgzIaje3t7Xa73el00qeo6B1THxwIVYvopFCnoFjDNGVC54CpBwcwKBgMtlzubrncTZ5+0o7gxeh4sanWat1UVdXv9zc1dNC3es/NLlzMLv7fC0218RsbW5ebOunOGm63p66mVfsKHm0wjlMTgJhT80l9lmw58ejhMHmS4v3MLH27PLkwRbFGUZS+Ww/qa9vI65+czu1LRTX0Ddyp96yJ3Lekob9vgFaFyO1S5ExmwIX5pVZzD32fsdW6WVRYNTz0KvXAcTYFAXgqBRyhpz59WjQ3d1Ex222OS0U1VMzsxZpkZonv/IvRccPf19SQmBS/GZKZV1XVgQdPG+ravV6fqqqKojy490T7srn4u6NFKAF9GllbjEh43GsZLTWbT2Xktz26Sx4XuvV2pLq7M6+0KubV3XU3es5dNHW9iCyu6X03WtbScj4vsmjl+h9Pm/p/J9WQXsto5dWO3OLKvpkXf4u3jLYM3G68/bfKDulPfLGm68WjzAvGmp6u2CSam6Y+RfesIfsQn7to0u6ek5BD30zsSzCEqnGfJNenKQj81FWJhGe7u7vX1tbof6d5vd7x8fHS0lK6sobsEbOwsED+zS8UCi0sLDQ1NQ0MDDgcDnKhoiirq6vkxU9Pnz7d3t4m7V6vN/7dTDGPSimKsr29PTw8TLr36NEjcjlpJ299MhqNt2/f3traikmrLdYYjUbyJvLV1dWY8lDCgdPGfaLbve+GUKegWMM0oULngKkHBzCo//bgb/85d/Z0fmaGgf4MPHhK/qt0ZHjs7On8jFP5x49e6Oy4SXZVtNkcWZlGspEwvcRYUGnbso+/nszJLj55LOfs6fxjv2XTSw4gmJ/cZYj5ByfAtmWvrjSfOn7x9IncC1km7T+Mkxct9d66n+wWwWCwv2/g9IncjFP5J4/l3Lv7mG6fkbpY09TQcfT/sjLPFFBfZGYYyPNTyXImM2AwGHzyeOTs6YLTJ3LPnMw7EdeNZJ1HezIC8FQyMqLb48Xc3zdA/3mAvViTzCwx/V+YXzp5LIdszk2dWFvVQh7ITfabIYV5w+HwvbuPSaozJ/OqK822LXvMTfFxzwjo08jJChPa9l7L6OV7vWfOGY7+v6wTJ3KO/r/zOcZSUpShj0GR92TXXus+fuLC8RMXjh27kFNUfn38Wd/Mi2tjj/NKKv979PyJEznHj+ecyykimw33WkZrr3WfOHWRxGfmFMU/A0UW0Rw9ev7EyYvk59ixCydOXazp6STvDidJ4m+aoj90zxo6xs7RwYyswpaB27Ql4cGeSXH/3EifpiD8aQFiFwcdHR1NTU27uPCgX7J/pLvHPRHqFBRrmGZT6Bww9QBBIMCJAMTMCSTSgECUADwFKYCABAT0aeSEVQk0JiQggcjTHYI+TUEoHfS6yU/pf7oCkyZeqFNQrGHSidA5YOoBgkCAEwGImRNIpAGBKAF4ClIAAQkI6NPICasSaExIQAKRpzsEfZqCUPopxY6DftN0BSZNvFCnoFjDpBOhc8DUAwSBACcCEDMnkEgDAlEC8BSkAAISENCnkRNWJdCYkIAEIk93CPo0BaF00OsmP6X/6QpMmnihTkGxhkknQueAqQcIAgFOBCBmTiCRBgSiBOApSAEEJCCgTyMnrEqgMSEBCUSe7hD0aQpC6acUOw76TdMVmDTxQp2CYg2TToTOAVMPEAQCnAhAzJxAIg0IRAnAU5ACCEhAQJ9GTliVQGNCAhKIPN0h6NMUhJLJZDropZM97r/JZEpXYNLEC3UKijVMOhE6B0w9QBAIcCIAMXMCiTQgECUAT0EKICABAX0auf/9y4SFCTTGEOh//1ICkac7BH2aglAym817XOw46Lczm83pCkyaeKFOQbGGSSdC54CpBwgCAU4EIGZOIJEGBKIE4ClIAQQkIKBPI48sWWKqEviYkMDIkkUCkac7BH2aglCyWCxlZWUHvYCyZ/0vKyuzWPToEaIWoU5BsYbpF5fQOWDqAYJAgBMBiJkTSKQBgSgBeApSAAEJCOjTyCuOjYS1CTTGEFhxbEgg8nSHoE9TUEqDg4Oo17CUe8rKygYHByk3HR4IdQqKNUyKEjoHTD1AEAhwIgAxcwKJNCAQJQBPQQogIAEB3RrZ8m0ppjCBjzEELN+WJFD4LoagW1NQVhaLxWw2Y/+aZCUbk8lkNpv1vKaGSEWoU1CsoX5MdSB0DlLdGOdAgDcBiJk3UeTTOwF4Su8KwPilIKBnI684NkaWLNi/JqZG0//+5ciSRZ9raoin9WwKKX6rYRB7RECoU1CsYZpFoXPA1AMEgQAnAhAzJ5BIAwJRAvAUpAACEhCAkSWYRAyBLwGYgi9PZJOVgFCnoFjDJBuhc8DUAwSBACcCEDMnkEgDAlEC8BSkAAISEICRJZhEDIEvAZiCL09kk5WAUKegWMMkG6FzwNQDBIEAJwIQMyeQSAMCUQLwFKQAAhIQgJElmEQMgS8BmIIvT2STlYBQp6BYwyQboXPA1AMEgQAnAhAzJ5BIAwJRAvAUpAACEhCAkSWYRAyBLwGYgi9PZJOVgFCnoFjDJBuhc8DUAwSBACcCEDMnkEgDAlEC8BSkAAISEICRJZhEDIEvAZiCL09kk5WAUKegWMMkG6FzwNQDBIEAJwIQMyeQSAMCUQLwFKQAAhIQgJElmEQMgS8BmIIvT2STlYBQp6BYwyQboXPA1AMEgQAnAhAzJ5BIAwJRAvAUpAACEhCAkSWYRAyBLwGYgi9PZJOVgFCnoFjDJBuhc8DUAwSBACcCEDMnkEgDAlEC8BSkAAISEICRJZhEDIEvAZiCL09kk5WAUKegWMMkG6FzwNQDBIEAJwIQMyeQSAMCUQLwFKQAAhIQgJElmEQMgS8BmIIvT2STlYBQp6BYwyQboXPA1AMEgQAnAhAzJ5BIAwJRAvAUpAACEhCAkSWYRAyBLwGYgi9PZJOVgFCnoFjDJBuhc8DUAwSBACcCEDMnkEgDAlEC8BSkAAISEICRJZhEDIEvAZiCL09kk5WAUKegWMMkm2n8AQEQAAEQAAEQAAEQAAEQAAEQAAEQAAENAaaCwq6CUKxhwia0YMbUAwSBACcCEDMnkEgDAlEC8BSkAAISEICRJZhEDIEvAZiCL09kk5WAUKegWMMkG6FzwNQDBIEAJwIQMyeQSAMCUQLwFKQAAhIQgJElmEQMgS8BmIIvT2STlYBQp6BYwyQboXPA1AMEgQAnAhAzJ5BIAwJRAvAUpAACEhCAkSWYRAyBLwGYgi9PZJOVgFCnoFjDJBuhc8DUAwSBACcCEDMnkEgDAlEC8BSkAAISEICRJZhEDIEvAZiCL09kk5WAUKegWMMkG6FzwNQDBIEAJwIQMyeQSAMCUQLwFKQAAhIQgJElmEQMgS8BmIIvT2STlYBQp6BYwyQboXPA1AMEgQAnAhAzJ5BIAwJRAvAUpAACEhCAkSWYRAyBLwGYgi9PZJOVgFCnoFjDJBuhc8DUAwSBACcCEDMnkEgDAlEC8BSkAAISEICRJZhEDIEvAZiCL09kk5WAUKegWMMkG6FzwNQDBIEAJwIQMyeQSAMCUQLwFKQAAhIQgJElmEQMgS8BmIIvT2STlYBQp6BYwyQboXPA1AMEgQAnAhAzJ5BIAwJRAvAUpAACEhCAkSWYRAyBLwGYgi9PZJOVgFCnoFjDJBuhc8DUAwSBACcCEDMnkEgDAlEC8BSkAAISEICRJZhEDIEvAZiCL09kk5WAUKegWMMkG6FzwNQDBIEAJwIQMyeQSAMCUQLwFKQAAhIQ0LORVxwbI0uW/vcv+2Ze4IcS6H//cmTJsuLYkEDeuxuCnk2xO2K4Sp8EhDoFxRomUQmdA6YeIAgEOBGAmDmBRBoQiBKApyAFEJCAgG6NbPm2RMsTOEhIwPJtSQKF72IIujUFZWWxWMxms8lkMuJPIgImk8lsNlssFkpMnwdCnYJiDZOohM4BUw8QBAKcCEDMnEAiDQhECcBTkAIISEBAn0ZecWwkLE+gMYaAPtfX6NMU9LfZ4OBgWVlZohoF2v5GoKysbHBwkHLT4YFQp6AphENZAAAgAElEQVRYw6QooXPA1AMEgQAnAhAzJ5BIAwJRAvAUpAACEhDQp5FHliwxVQl8TEhgZEmPawf0aQry28xisaBS87eSTMoPZWVlel5fI9QpKNYw/QeG0Dlg6gGCQIATAYiZE0ikAYEoAXgKUgABCQjo08jYpyZhaSa+sf/9SwlEnu4Q9GkKQslsNqesTuBkLAGz2ZyuwKSJF+oUFGuYdCJ0Dph6gCAQ4EQAYuYEEmlAIEoAnoIUQEACAvo0cnxVAi3JCEgg8nSHoE9TEErYpya2GLPTZ5PJlK7ApIkX6hQUa5h0InQOmHqAIBDgRABi5gQSaUAgSgCeghRAQAIC+jRyssIE2uMJSCDydIegT1MQSjuVJnA+AYF0BSZNvFCnoFjDpBOhc8DUAwSBACcCEDMnkEgDAlEC8BSkAAISENCnkeNLEmhJRkACkac7BH2aglBKUIpA004E0hWYNPFCnYJiDZNOhM4BUw8QBAKcCEDMnEAiDQhECcBTkAIISEBAn0ZOVphAezwBCUSe7hD0aQpCaae6RNLzra2t/f39N2/eLC0tJUHDw8Nfvny5du1a0mv2wYnW1tbFxcWJiYkf6Uu6ApMmXqhTUKxh0onQOWDqAYJAgBMBiJkTSKQBgSgBeApSAAEJCOjTyPElibRaro8/M9/vvfVuJK2rfnpwz8tHLQO30+2GBCJPdwj6NAWhtIuaxd27d7e2thRFIRkCgcDMzExNTc3k5KTf7+/v799FztSXWK1W7ZwqirK5uXnjxo3UVyU829nZ6XK5FhcXE55lbNR2RlfHQp2CYg2TloTOAVMPDmBQOBweeT6Wm1OSmWHIyjR2Xb3p9froOD4vfSkracjMMOTmlLwYHae/2qzWzebGjswMQ2aGwVhQOWP5SC6x2xzGgkrSTv53alKPr1GkAHd9ADHvGh250O/337vzKDvLlJlhaG7ssG3ZVVX1eX21VS1EmQMPnia7haIo795+IErWynvgwVNybW1Vi09jE5pHe9PsLNO9u4+DwSA5myxnCgMuLi5fzC6mbrqYXby4uEzvhYN0CcBT6RLjGH+l7TpVMjm40nZd+32R8Jsi3nH0Kykzw1BW0vBlZTVhJ+HEhFjkaNSnkRkLFj1jjwqr6k6cyj1x8uLpzILytrab08N9My9aH/VnF5TcmBhizLOLsPIr/397d/4VxZX4fXz+iznOyc+ek38jP+SvyfN8zdeYxWiMGyoyBI1bRCIuI0RjUJRxCIus3Q0N2myNLLFBEZAdeqte63ngMjeV3qhuu3qrN4czp6i+devW697LhI+3qu4e+vKk/P76yJmq2toPPOP1Rw9P/vPHdBtTGuM8rasw56QQRDrjCVmsublZUZT19fWWlpby8vKamprR0dGNjY2mpiZDw5rl5WXZhufPnyuKsrCwIPfo3yCsSWtqxBQ2dKYQ1sRoJ/7R0D5IfMri39v4uPmnq7ffLy5Ho9H19c2frt6u/fmXcDisqurU5OvTJ6ocL0eDweDC/Pvz5y4/efx7NBpdXlo5V/ajpdceCARDodDgwND3R8//8ceMqqrT064fL9T4fP7ih8nzFTCYP6QDQqHQzZr6Wzd/WV/fDASCrS1dp47/8P79n/+y0fi4ufFxc7JT2KyDZ09ffP3HbCgUmp5yHT/2T5t1UBZONsgjkUhN9b1f6h6tr29Go1ExZZqetIgDk9WZYgLa+x3VP92V52XjAwWYUx8ImK3D379fPnfm0tTka1lh9U937f0O+WPMhpxx01Ous6cvjo68CoVCYl6fPlG1srIWU56ZGANSYj+acyLrCSyqGx8eOnTi0r1//TrY2ei0/mJpLau6cqK86tGIJQdhTeXPNyt/vinb+cDece7yT8fKKkVaJPentUFYo3PymnNSCBz9MUd5eXlVVdXi4qLb7U54r5M2rLl69er4+LiiKNFo1O/3j46OirulBgYGfD5fNBoNh8Pr6+tiGU57e/vGxkY0Gg2FQu/evaurq4tp1fLOl3ands+zZ89WV1cjO19LS0tPnz4VJe/fv7+wsBAOh6PR6MbGRnt7e3l5eUxYMzg46PV6BwYGtJXvua1zXJVeMUNnCmGNrgFjaB/oakHxF3r7dv5s2Y87f+IGLlbdePliVF7Twvz7s2U/Li4uyT1y486tB01PW1VVdY5N/nzjnlyAIwuwka4AgzldMW35ly9GL1bdCAQCYmc0Gn3wS+PDB09lmRRhzfr6ZvnZy7Mzc7Lw2NhEZcU1r9cn9sg/HWWBZBvDQ86qf15X/Mqedcoa5ARUVbW70/bot2fyIzY+UIA59YGAWTlcBKna9FNVVZ1hTUwDAoHgxaobLwaHY/bH/8hMjDcp3j3mnMh7Zhz1vS3ffHvmdmuTtmSj09o4Zo1fWdPotNZ1/37t4f2bzx4/GumVh4iI53rDg+uPHj6wd/y5f8x6b6f87bamx6OJ76WKCWuejNse2Nu/OXr2Xvfvop5kJ30ybkv2UUxY0zDUc+PJb78OdMqGJdwo3rGdccvNOSkE157BhLbA48eP/X7/+Pi4dqfc1oY1LpcrGAwODQ01NTWNjY1t/9Pd9HRLS4uiKNPT001NTc3NzSMjI3fv3m1ubvb7/XNzc42Nje3t7VtbW0tLS9XV1bLa8vLy5eXltbW1pv9+ORwORVGGh4fLy8ufPXvm9/uXl5ebm5vb29tXV1f9fn9jY2N9ff3WzldHR0dzc/P8/HwwGOzs7JRhTVVV1djYmGik9lx6tjMeacV+oKEzhbBG1/AwtA90taD4C01Puyorrrndnrdv5yvKr2xubMlrikajN67/q7vTJveIDe1+e7+jpvpeTAF+zECAwZwBmjzkzq0HrS1d8kex5ksMbLEzRVgzPOS8dKEmEAjKw30+f1XldefY7r1++sMae//LK5dqw+HwnnXKc8kJqKpq4+NmkYHKT9n4EAHm1IfoZeXYaDT65PHvN2vq5e2BotrMwpqYiZmihczEFDhF95E5J3LCVEK7s+L6jYrrN7R7tNvalTW/ObqPn7tw5MT5S3X3yq9cP/TVqRuNvz0Ztz0es5y5eOXo8e39F+/c+fa7s2L/b47uY6crj5+rulxfd/qHy99+d7be2qqtXGzHhzV1Pb9/e+ycCH2SnfTJuC3FR9qw5uFg17Gyygu37zQ6t+OnFN9FN6Q/vMHmnBTCTU82Ics0NTUFAoGhoSG5R7shwxqR6TidTvnpxMSE1+sdGRkJBAJjY2NXr16VH7lcrs3Nzbt374o9bW1tfr+/o6NDFhBhTUwve73e58+fl5eXT01Neb1eudLn0aNHXq93fHz8xYsXiqKIe7XE7Vrr6+tzc3MyrJmeng6FQsmuRXv2+O2YxpjnR0NnCmGNroFkaB/oakGRFxL/5ilu3HCOTVZVXo+5oSnhn7hTk6/Lz1wSa9GbnrYeOnjiyOGz339XcbOmfnLiD1bZZDYoGMyZuamqGg6HL/94M+auirW19YpzV9bW1kW1CUey+Ki70xZ/85H2j0mdYY3X67tQWW3vfynWyKSuU5xaOwFVVa2pvvf1oVPiiVH/uvNwLsnjOTKGMtuBzKm89/joyKsvD574152H7+YWtP/XoJ1f8Y1MNuNs1sELP1TH/J9U/OHMxHiTot5jzomcIpsQOcv3Z6uuP3qYrJgMaxqd1rM/Xqu8cVNGHrdbm745cqbe0vrA3v7t9+X3+9q1lWyXv3Tth59rZfmffntw/FxV/M1NlT/fPHH+4rWH98X3hdu3vzlyRsQ9KU6a4qMn4zYZ1vxqf370ZMXl+jrZDG0jY7aLenhn1nhzTgphFZ9EpNijc2WNxWIJBAIWi0VWZbFYfD5fc3OziEii0ahYYlNTUxPz8GDxX6HaY0VYo31mzdWrV2dmZsQKGu39UOJ0y8vLMztfbre7vr5etmFmZmZ5eVmENaFQKBKJhEIhq9UqC+jfyGyYlcBRhs4UwhpdI8TQPtDVgmIuFAqFHj54Kv/Nc3jIWVlxLea/g+P/xH37dv7M6Yvy6QM+n39tbV18//8HEn/37bnurr5iVslb2xnMGdMHAsGdlOQvj8BIFtZEo9HNTbcYsZub7mg02trSlTpYkX86xh8r2+z3K9U/3RXPeFJVdc86VVWNmYCqqno8XtGwlZW1ttbuI9+ckat75InY0C/AnNJvZVDJQCC4srJm73eUnbzw76Y2eRYZ1oRCofX1TTHs5f/7yBkny6uqOjzkPHfmkngQFTNRK1Py2+acyDF5RMyPj0Z6j52q1BPW/DrQcfRkRX3vn0tjGp3WU/+8dPV+/W+O7qPHz1dcv3G//7nMRET5O23/fmBvF9/3elq+P/ODtgbRmJiw5oefa48cLz9RfuE3R3eKk6b4SIY123d4HTlz5X69bFXM5cf8WPJTIP4CzTkphIP+hEI8s2ZhYcHr9TY0NGgPFHctyZU1T5488fv9L1++lGXGx8f9fv/jx4/Fnvr6eofDEQwGnU7nzMyMdmWNPES7EZ/IyDwoZmHOw4cPvV7v1NSUw+Hw+/1PnjwR9VRXV6+vry8uLoqwJhAI9Pb2isSnublZey492/FDyCR7DJ0phDW6RpGhfaCrBUVbKBQK3bv7m0xqVFV1vZ7V3jYirizm7pLXf8yePlElk5r4qx8ZHr9YdSPhe3PiC7NHK8Bg1mqku11TfS/mfr2Y2/pk7BgIBJ80/v7zjbqfb9Q9afw9EAi+GBwW9y7JkwYCwUsXauTbauSfjvHHikO8Xt+VS7UyqVFVdc864yegPLvc6Hhu4R5DqZHBBnMqAzSDDpmdmTt/7rK8zVaGNe8Xl+/c/lXMR/kwGjnjZGMGB4bOnL4oHxnOTJQyZtgw50SOySPifzxz8eqF23fi94s9cmXNA3v70ePnH9j/snxG3sH0m6P7wq1b33539n8/P3asrPJ+33ZA8/Xh0yfOXzz9w2X5febHa79Y/ox7xClkJbINjU5r+ZXrP967m+KkKT4SYc1XX5/65siZMxevHDtVqfPdUmaYBTHXaM5JIRD0ZBPaMuIZMT6fr7+/v6am5tdff52envZ6vdq3QVVVVc3NzSmK0tPTc/Xq1Z6eHkVRXC5XQ0PDxMSECFBaWlrE42/a2tqCweDc3FxdXV1NTc3Yzpd4GrE8b0xY8+jRo3fv3oksRnt4XV3d3Nyc3+9/9uxZQ0OD1+tdXV1taGioqamZmpoKBoM9PT3yNqjy8vK7d+9ubGxsbW3Ju6jkGVNvxIwf8/xo6EwhrNE1kAztA10tKM5CoVCo9udftEmNqqper6+y4trEq2l5TTEPSRVvyUmR1Ij3SV2suiH/gVRWxcaeAgzmPYlSFOjp7v/p6m3xUjNR7D/Pnt+uvS/vvJBhTXwli4tL585c0j5Ie3Zmrvzs5fX1TVE4/k9HbSVer6+q8ro2qVFVNXWdCSegtk6xbbMOxi/5iS/GnmQCzKlkMrnfv7KyVn72srwtUYY1CVsSM+Ns1sHTJ6pkUpPwEPF/YczEZDhFvd+cE1kmIMk2brc3Hf7uXMKnyWgfMLz9AJpTlbdansh6Ho9ajp+78PO/H8k920/8HbNW1d46VXlp+4EyZ374V8d/tJ8m3I4Pa56M2yp/vikqSXbS1O25/ujhwYPHb7c1ibulTv9wOdnjjbVNKurhnVnjzTkphFXqVCLhp/fv319cXJT/Qej3+wcHB6uqquTKGvGMGJfLJf4zMhwOu1yumpqalpaWzc3t132qqrr90s+FBfHip87OTo/HI/b7/f74dzPF3CoVjUY9Hk9PT49oXnt7uzhc7BdvfSovL3/69Ona2lpMtdqwpry8XLyJfGFhISYeSnjhcmdmw6wEjjJ0phDW6BohhvaBrhYUYaFQKHTr5v1bN+/HPPFRVVWbdbCy4try8qqqqoFAoKb6nnyr9/SU6+T3ldNTLu0Vr6ys3aypl0/W8Hp9P129rX0Fj7Yw26kFGMypfVJ/Kp5S0d7WE4lEVFV9NT4l3y4vDkwR1ohnoF6/dke8/mlry/PP81flG7hTv59++7w/VDc9aZH/ESBOl6LOZBPQ9Xr2du0D+dfs8vLq+XOXe7r7U184n6YQYE6lwDH0I5/Pf7Omftw5JeZFKBR69NszbZyqP6yxWQfPatbUJGs2MzGZTAnsN+dE1oYRCbcbndaq2tqvDpfdaX8mbhd6PGq5cr/+dNXlmFd3//Tbg6MnK36xbS+uaRyzXrh169jp7UUrD1901jQ1iDSk0Wm9VHfvVOWlJ+O2v5R3Wm+1PL3x9C/JjmhPfFjzi639yPHyqw9+ia1Ec9LUH8ln1ojnEB89WaF9ek5ChyfjsS/BKIExv+clmHNSCBYZQGSwce/evZqamgwOLPZD9hxRpVrA0JlCWKNr2BjaB7paUISFmp62Hvg/R7/9uuzI4bPyu+X3ThEbW3rs335ddvirsi8+P15/75F4F/L6+uZ3R8rFg4TlIeVnLq2vbQwODJ34vvLLgye+/brs4IHv5SFFCJPnJjOYP7AD1tc2rlyq/eqLk18fOnX8u4qYJWApwhrx+JimJy1fHzp1+KuyLw+e+M+z5yL0EU2K+Xd+bTtrqu99/n+/O/LNGTkvjhw+K+6fCoVCCetMNgFDoVDHc8u3X5/5+tCpb748fSiuGdrzsq1HgDmlR8mgMtNTrvKzl7/4/PiRb84cPPD9lUu162sb8lw6wxrX69kvD54QT92WU+za5Vvxd9oyE6Vt6W2YcyInCya0+xud1pv/afzm6NnP/+e7Q4dOfP4/x06UV4lQRt4GJd6Tfe3X+18cOv7FoeMHDx4/cf7iw8GuJ+O2X+3PT/9w6X8/P3bo0Ikvvjhx9MR58bDhRqf12q/3D311UpQ/cuJ8/D1QYhHN558fO/TlSfF98ODxQ1+dvPqgXrw7XFQSf9IU7ZHPrJHXWG9tPfzduVstT+WehBulN+b3vCJzTgrBUuy5SV7av+eIKtUChs4Uwhpdw8bQPtDVAgohkCUBBnOWIKkGgV0B5hRDAYESEDDnRE6YSrAzoUAJDPJ0L8Gck0Io5SXsKPaTpjvASqa8oTOFsEbXODG0D3S1gEIIZEmAwZwlSKpBYFeAOcVQQKAEBMw5kROmEuxMKFACgzzdSzDnpBBKxZ6b5KX96Q6wkilv6EwhrNE1TgztA10toBACWRJgMGcJkmoQ2BVgTjEUECgBAXNO5ISpBDsTCpTAIE/3Esw5KYRSXsKOYj9pugOsZMobOlMIa3SNE0P7QFcLKIRAlgQYzFmCpBoEdgWYUwwFBEpAwJwTOWEqwc6EAiUwyNO9BHNOCqFU7LlJXtqf7gArmfKGzhTCGl3jxNA+0NUCCiGQJQEGc5YgqQaBXQHmFEMBgRIQMOdETphKsDOhQAkM8nQvwZyTQihVVFTkJe8o3pNWVFSkO8BKpryhM4WwRtc4MbQPdLWAQghkSYDBnCVIqkFgV4A5xVBAoAQEzDmRm171JQwm2Bkj0PSqrwQGebqXYM5JIZRqa2uLNzfJS8tra2vTHWAlU97QmUJYo2ucGNoHulpAIQSyJMBgzhIk1SCwK8CcYiggUAIC5pzIlllnTCrBjwkFLLPOEhjk6V6COSeFUHI6nRcuXMhL6lGMJ71w4YLTacY5IkaLoTOFsEbXLy5D+0BXCyiEQJYEGMxZgqQaBHYFmFMMBQRKQMCcE3lucyVhNsHOGIG5zZUSGOTpXoI5J4VUam1tJa/RkxxduHChtbVVuplww9CZQlija0QZ2ge6WkAhBLIkwGDOEiTVILArwJxiKCBQAgKmncjO97MxwQQ/xgg438+WwAjP4BJMOymkldPprK2t5fk1ySKbioqK2tpaM6+pEUPF0JlCWCPnY6oNQ/sg1Yn5DIFsCzCYsy1KfWYXYE6ZfQRw/SUhYOaJPLe5Ypl18vyamIym6VWfZdZpzjU1Yk6beVKUxG81LiJHAobOFMIaXb1oaB/oagGFEMiSAIM5S5BUg8CuAHOKoYBACQgwkUugE7mE7AowKbLrSW2lKmDoTCGs0TVsDO0DXS2gEAJZEmAwZwmSahDYFWBOMRQQKAEBJnIJdCKXkF0BJkV2PamtVAUMnSmENbqGjaF9oKsFFEIgSwIM5ixBUg0CuwLMKYYCAiUgwEQugU7kErIrwKTIrie1laqAoTOFsEbXsDG0D3S1gEIIZEmAwZwlSKpBYFeAOcVQQKAEBJjIJdCJXEJ2BZgU2fWktlIVMHSmENboGjaG9oGuFlAIgSwJMJizBEk1COwKMKcYCgiUgAATuQQ6kUvIrgCTIrue1FaqAobOFMIaXcPG0D7Q1QIKIZAlAQZzliCpBoFdAeYUQwGBEhBgIpdAJ3IJ2RVgUmTXk9pKVcDQmUJYo2vYGNoHulpAIQSyJMBgzhIk1SCwK8CcYiggUAICTOQS6EQuIbsCTIrselJbqQoYOlMIa3QNG0P7QFcLKIRAlgQYzFmCpBoEdgWYUwwFBEpAgIlcAp3IJWRXgEmRXU9qK1UBQ2cKYY2uYWNoH+hqAYUQyJIAgzlLkFSDwK4Ac4qhgEAJCDCRS6ATuYTsCjApsutJbaUqYOhMIazRNWwM7QNdLaAQAlkSYDBnCZJqENgVYE4xFBAoAQEmcgl0IpeQXQEmRXY9qa1UBQydKYQ1uobNCF8IIIAAAggggAACCCCAAAIIIICARkBXoJBRIcKajNg4CAEEEEAAAQQQQAABBBBAAAEEEDBGgLDGGFdqRQABBBBAAAEEEEAAAQQQQAABBDISIKzJiI2DEEAAAQQQQAABBBBAAAEEEEAAAWMECGuMcaVWBBBAAAEEEEAAAQQQQAABBBBAICMBwpqM2DgIAQQQQAABBBBAAAEEEEAAAQQQMEaAsMYYV2pFAAEEEEAAAQQQQAABBBBAAAEEMhIgrMmIjYMQQAABBBBAAAEEEEAAAQQQQAABYwQIa4xxpVYEEEAAAQQQQAABBBBAAAEEEEAgIwHCmozYOAgBBBBAAAEEEEAAAQQQQAABBBAwRoCwxhhXakUAAQQQQAABBBBAAAEEEEAAAQQyEiCsyYiNgxBAAAEEEEAAAQQQQAABBBBAAAFjBAhrjHGlVgQQQAABBBBAAAEEEEAAAQQQQCAjAcKajNg4CAEEEEAAAQQQQAABBBBAAAEEEDBGgLDGGFdqRQABBBBAAAEEEEAAAQQQQAABBDISIKzJiI2DEEAAAQQQQAABBBBAAAEEEEAAAWMECGuMcaVWBBBAAAEEEEAAAQQQQAABBBBAICMBwpqM2DgIAQQQQAABBBBAAAEEEEAAAQQQMEaAsMYYV2pFAAEEEEAAAQQQQAABBBBAAAEEMhIgrMmIjYMQQAABBBBAAAEEEEAAAQQQQAABYwQIa4xxpVYEEEAAAQQQQAABBBBAAAEEEEAgIwHCmozYOAgBBBBAAAEEEEAAAQQQQAABcwhEItFgMKz4gz5vwONW3Ft+475X55fsd+oaPjtQ/cmnFfs/Ltv3Udm+jyr2f1z9yacNnx2w36lbnV8y7uzuLb/Hrfi8AcUfDAbDkUg0Xz1MWJMvec6LAAIIIIAAAggggAACCCCAQEELhEMRRQl5PcYGNCJ8cdkdDZ8dKNv30em//yPFd9m+jxo+O+CyOwyNbETlXo+iKKFwKJL7TiKsyb05Z0QAAQQQQAABBBBAAAEEEECgoAUikWhACXlyEtO4t/zPDh9NEdAk/OjZ4aM5yGt21tr4FSWY41U2hDUFPT1oHAIIIIAAAggggAACCCCAAAI5FgiHI35fIDdRiMvuqP7k04RxzJ47qz/5NDdLbNxbfr8vEA7nbokNYU2OxzynQwABBBBAAAEEEEAAAQQQQKBwBULBcG7ue3Jv+Sfauir2f7xnKJOiQMX+jyfaunKTK3k9SigYzk3PEdbkxpmzIIAAAggggAACCCCAAAIIIFDoAqFQ7pIal93xgUmNCHEq9n+cs/U123lNKBd5DWFNoU8V2ocAAggggAACCCCAAAIIIIBADgSikajPm6O7n9xb/ozvfopfaFP9yae5WVzj3vL7vIGo8W+JIqzJwYDnFAgggAACCCCAAAIIIIAAAggUukBACeUs8sjgicLxGY12T86eN+ze8geUkNF9SVjzocLhcOTt2wWv1/ehFSU6XlECb98uhMO5WGSV6Py527e56Z6enn3zZr6gLtY8/rnrac6EAAIIIIAAAggggAACBSkQDkc87ly8otu95XfZHdqcJVvbObsZyuNWjH7YMGGN3lmiKIGRkYnnz23t7dbnz20Oh9Pj2Q5oFCVgsbyYn1/SW1E65d68mW9vty4vr6VzUNKyMzPv2tut7e3W7m771pYnablMPwiHwwMDo69e/ZFuBQsLS52d/U7n9Ojo5MbGVsLDM648YW06d2bXX+dJKYYAAggggAACCCCAAAII5F5A8Qdztqym4bMD2QpotPU0fHYgZ5egKEFD+4iwRhdvOBy2Wl++fOn0+fyqqvp8/lev/nj7dsHosEZX49IstLnp7u4e2Nx0xxyXbH9MsWQ/RqPq8PCE3T6cwdKYkZHJoaFXyWpWVfVDKk9R7fDwq+HhVOdNcSwfIYAAAggggAACCCCAAAIlIxCJ5G5Zzer8Utm+j7QhS7a2y/Z9tDq/lJu8xuNWIhED3+RNWKNrci0trXZ19ccHHNqwZmvL8/r1m9ev34gVN7LeaFRdXl6bmpp582Y+GNy+sS0cjszNLSpKQJbZ2HC/e/de/hiNqu/evfd6fV6vb+c2qO0RILZDodDS0qqoLSYWCQZDb97MT03NLC2thkKhZDdnJQxlNjbc4+PTz5/bxsenp6ZmNjZ2o5xwOCzrjKR8hNKbNwsWywsRZskLidmIry0cjrx5M2+zOWw2x38vKsFw11O5z+efmZl7/fqNdtFQMrRk53337v3Ghtvj8c3OvgsGg1p/kRmtrW2I27VEV4oLDIfD8/PvtV0cc+H8iAACCCCAAAIIIIAAAggUskAoGM5NxuHe8tvv1GohqTgAABgiSURBVOlKZ26OhDyK+F5vPqzrkL//w36nLmcXYuhrvAlrdM2XjQ13Z2e/Nk+RhylKoLf3hc3m6Oqyj45O9vcPt7ZaXr9+Iwr4fH6r9WV398D4+B8vXow9f25zud6qqvrypXNy0iUrGRgY6ezs93q3l+2oqrq6umG1vvT5/PPzSxbLCxHrzM8vdXfbe3sHrdaXY2NT3d0DHR198qah2dntW5z6+4dfvXq9c0Z7d7c94c1Z+sOahYXljo4+bZ3ydLLlYmNtbbOry76wkOpesIS1JQtNtPXrqXx6erajo29o6NXY2FRnZ//IyEQ0ul1HMrRk5+3rc/T1OTo6+gYHR2P8w+Gw3T7S0/NnV87Pb+drGxtbXV39/f3Dk5OuFy/GenoSrFrSXg7bCCCAAAIIIIAAAggggEChCWR2D9TC/EpLi2Xu7fu08hG990CJsEbZpvL3HNcZ1qR7J9Tbt+9bWiwL8ytpXYIorPgNvBOKsEbXHIlG1VevXre29lqtL12uOe2iGEUJdHcP9PUNyXUuLtdcT8+AogSiUXVgYGRo6JUIDlR1e71MZ2f/6urG3NziziHbq0i2tjwWywtRs2jNxIRrbGxKZA3asKa11TI5OSPKRKOq3T4i7uJZX9/s6vpLljQ9PdvWZtEf1qiqGhPibG15urvtMp8SNyLZbI74pyj5fP7e3sHp6VlxLTbbS+3aFtHa1LWluB1JT+Xv3690d9vX1jbFucQhMzNzAjAZmqqq8eft63N0d9vl+iBtWOZ0Tmtv8nr37n1394BYTmWzOWQXizbwvwgggAACCCCAAAIIIIBAEQlk8Mbu+fnVlhaL3T6ytelLK+lI743ddZNphTXpvsN7a9Nnt4+0tFjm51fTugrxDm/jupiwJg1bRQm8fv2mr2+otdXS2zsolpkoSqCnZ2Bm5p2sSKYebre3p2dgdXVDfhSNqn19QxMTrmAwaLM53r9fUVV1ctLlcIy7XHP9/cPRqKr9SBsWzM8vdXXZ3W6vrG2nMQ5VVV2ut1brS22M4vcrvb2JH3ssmyfrERsx+2dm3tlsf6lzY8Pd3W3XXs7OLV1hu314eHh3JUtMJfIUqWuLD03EgTuLWfau3OmcfvFibHPTLb/FOiYR1iRDSxbWOJ3TstnSPxgM7aRpb+UpNjfdNpvj7duFubnFjo6+6elZbYQna2ADAQQQQAABBBBAAAEEECh8AY/bn1ZUkXFS497yV+z/WOcyme1iaYY1Ffs/TutC3Fv+jPMaj3v35hgj+pewJhPVSCQ6NPTKYnkZDIbi3wYlAwu5oT2HDCbGxqbGxqbC4Uh//9Dc3KK4YWp1dWN+fmlnBcf2ohsZFsRsiwplWCM35IniWyU/Stiq+JU1OuscGZno6OibnHRNTc1MTc3IB9/svIT7z6fPpK5NmshGig2dlQ8Pv+rs3L4RSfs9Pr79UiotoKhT25L48/b1OeQtbNrDRSRnsbzQnqK/f3hhYVlVt59JNDAw8vy5ra3N4nCMyzVWMZfDjwgggAACCCCAAAIIIIBAYQqkFdYsL623tFgGB0fTXVMjYpT0ni6cZlhTtu+jdMMakdcMDo62tFiWlzb0H05Yo/g1X77/fnm9Xp/P5/V6PTtfbnfs640MnQPr65viLpj4WESmITuPsxmcm1uULRFvlRLLcMSDad6+XbDZHMHg9q1uw8OvJia2V9nIx9loswbttqhQ5g47zz+2r639uYTn/fuV9nbbh9wGNT+/1Ns7KG8IUlV1ZWW9p2dAu7RH3NglYprUYU3q2uJDE3GB795tP7VXfidLgv74483AwEjCG5FSoCVbWZMwrIlG1f7+YZdr+9aqFF8+n9LTMygeS5SiGB8hgAACCCCAAAIIIIAAAgUlkEFY43C8KqWwxuF4RVijpPP1N0XJf1izsLA0ODgq3wYlVtaIB7ikCGtUVZ2enu3pGRA3TEUi0dHRyd7e3QcGizU1VuvLiYndJw3vPHtloLd3UD7zRZs1aLfFrJZhjXigTGdn/5s3C5ub7unp2e5ue0dHX1phjdfr7+kZEIeEwxFxC5LD4RRBktfrs1pfjoxMpP6FIoOqmGKpa0sW1sRUkqxy8ZCa8fE/xPuqFCXgdE6LmCkFmqqqExOuvr6haFSNRKIi60m2skbEUl1d/YuL20tpxGqaycmZaFRdXFxeXFwWhweDQYvlBWFNTMfxIwIIIIAAAggggAACCBS4QFphjXvLz21Q7i0/K2vyH9ZEItGpqRlxn0t7u7W1tbe/f9jr9Wlf3S3nnjZTiEbVycmZtjbrzrfFZnOIo0Rhl2uuvd0mnwITDkdstpcDAyOyKm3WoN0WBWRYI94q/e7d+/7+4e7uAYdjfGVlzWJJ75k1IlpqbbW0t1sdjnFxaQMDI62tve3t2+0fG5tK/fbu+Hup5IWkru0Dw5qdBxu7rdaXbW3bjdc2NTWaSHna2iwdHX0rK+uqqqYIa1RVffNmvqOjT/RmR0efePry27cLXV124dbWZn3xYozboLT9zjYCCCCAAAIIIIAAAggUvgAPGOYBw+msqtkuWxArawp/asW0MOHDgGPK8CMCCCCAAAIIIIAAAggggAAC2/+47g/qf1aLLGnsq7v//o8MHjDMq7vTzVwyLk9Ys/evjlAo3NfncDjG19c3FSWwtLRqsbxI9hiXvaujBAIIIIAAAggggAACCCCAgJkEQsGwjGCM3rDfqTPubVD2O3VGt1/WHwqGjRsjvA3KONuc1uzzKePjf/T0DLS3W3t6BqanZ/e8ZSmn7eNkCCCAAAIIIIAAAggggAAChSoQiUQ8bkXGEIZurM4vpfdCKLHERsf/lu37aHV+ydDGy8o9biUS+fMNyFnvWMKarJNSIQIIIIAAAggggAACCCCAAAJFJqAomdwJJcOLtDYaPjuQxuIaHTGNqC3de6DSanNMYcW//U5n474Ia4yzpWYEEEAAAQQQQAABBBBAAAEEikMgHM7d4hqX3WFEWOOyO2IiFYN+9LiVcNjAZTWqqhLWFMe0oZUIIIAAAggggAACCCCAAAIIGCoQUEIGpRvx1T47fDS7ec2zw0fjz2LQnoASMrQjCGuM5qV+BBBAAAEEEEAAAQQQQAABBIpDIBqJZvAO74wDkepPPs1WXlP9yacZNyPdA33eQDQSNbpHWVljtDD1I4AAAggggAACCCCAAAIIIFAcAqFQ2OvJ0ZOGXXZHxf6PPzyvqdj/cc5ugPJ6lFDIwJdAyVFCWCMp2EAAAQQQQAABBBBAAAEEEEDA7AKhYO7ymom2rg/Mayr2fzzR1pXu6pjMym8nNUa+rls78ghrtBpsI4AAAggggAACCCCAAAIIIGB2gXA44vcFMks00j3KZXdkfD9U9Sef5mxNjd8XMPqhwtphR1ij1WAbAQQQQAABBBBAAAEEEEAAAQTUSCSqKEGP259u+JJZ+QyeN5yzJwp7PEpACUWMf06NdtgR1mg12EYAAQQQQAABBBBAAAEEEEAAgV2BcCiiKKHcPMXGZXc0fHagbN9HqZ9iU7bvo4bPDuRmQY3XoyhKKBwy9i3dCUcbYU1CFnYigAACCCCAAAIIIIAAAggggMC2QCQSDQbDij/o8wY8bmMfP7w6v2S/U9fw2YHqTz6t2P9x2b6PyvZ9VLH/4+pPPm347ID9Tt3q/FJmi3d0HuVxKz5vQPEHg8FwjlfTaEcbYY1Wg20EEEAAAQQQQAABBBBAAAEEEEAgzwKENXnuAE6PAAIIIIAAAggggAACCCCAAAIIaAUIa7QabCOAAAIIIIAAAggggAACCCCAAAJ5FiCsyXMHcHoEEEAAAQQQQAABBBBAAAEEEEBAK0BYo9VgGwEEEEAAAQQQQAABBBBAAAEEEMizAGFNnjuA0yOAAAIIIIAAAggggAACCCCAAAJaAcIarQbbCCCAAAIIIIAAAggggAACCCCAQJ4FCGvy3AGcHgEEEEAAAQQQQAABBBBAAAEEENAKENZoNdhGAAEEEEAAAQQQQAABBBBAAAEE8ixAWJPnDuD0CCCAAAIIIIAAAggggAACCCCAgFaAsEarwTYCCCCAAAIIIIAAAggggAACCCCQZwHCmjx3AKdHAAEEEEAAAQQQQAABBBBAAAEEtAKENVoNthFAAAEEEEAAAQQQQAABBBBAAIE8CxDW5LkDOD0CCCCAAAIIIIAAAggggAACCCCgFSCs0WqwjQACCCCAAAIIIIAAAggggAACCORZgLAmzx3A6RFAAAEEEEAAAQQQQAABBBBAAAGtAGGNVoNtBBBAAAEEEEAAAQQQQAABBBBAIM8ChDV57gBOjwACCCCAAAIIIIAAAggggAACCGgFCGu0GmwjgAACCCCAAAIIIIAAAggggAACeRYohbDG6/V6PB63251nS06PAAIIIIAAAggggAACCCCAAAIIfLCACGu8O18+n8/r9fr+++XXfCn5+/qboiialvj/27zdtoqmE9Z88EigAgQQQAABBBBAAAEEEEAAAQQQKAiB4gtr/P7dvEYES4Q1BTGOaAQCCCCAAAIIIIAAAggggAACCGRJIFlYo13L4vf787ewRoldWUNYk6WupxoEEEAAAQQQQAABBBBAAAEEEChEAcKaQuwV2oQAAggggAACCCCAAAIIIIAAAqYVKO6wRtwDxQOGTTt8uXAEEEAAAQQQQAABBBBAAAEESk9AG9aI6EM8wLc4boMirCm9EckVIYAAAggggAACCCCAAAIIIGBygdIJazwej8n7kstHAAEEEEAAAQQQQAABBBBAAIESEPDsfMkVKvLV3UWwska8aVw0XVxGCfQHl4AAAggggAACCCCAAAIIIIAAAiYXiAlrxD1QPp+vsMIaRVG0DZKtlG/vJqwx+Tjm8hFAAAEEEEAAAQQQQAABBBAoGQEZ1oh1KjIG0WYjeXxvt6LsvLp7z7BGPGO4ZHqFC0EAAQQQQAABBBBAAAEEEEAAAdMKeDwe+VxheQ9UzMqagg5r5B1cPLPGtIOYC0cAAQQQQAABBBBAAAEEEECglARkWCMjm/i3QRVcWOP3+0UrZVLDyppSGpRcCwIIIIAAAggggAACCCCAAAJmFkgY1mjvgfL7/YUb1sh7t0RqY+aO5NoRQAABBBBAAAEEEEAAAQQQQKA0BOSCmmT3QBVBWCPX15RGl3AVCCCAAAIIIIAAAggggAACCCBgZgEZdBR6WBPzjOGYO6HEEptwOGzmvuTaEUAAAQQQQAABBBBAAAEEEECg2AXC4bB8+bUMawrqHqg/3waVLKwRMY3InAKBQLF3Ce1HAAEEEEAAAQQQQAABBBBAAAEzCwQCAbmyJuFLu/N+D1SqsEYurtHmNcFg0Mw9yrUjgAACCCCAAAIIIIAAAggggEDxCgSDwT2TmsIKa/QsrvF6vYFAgPuhindc0nIEEEAAAQQQQAABBBBAAAEETCgQDoe1a2rkDVA+n6/Q7oH6y8qa+LAm4eIaGUGJ93l7/vrl5gsBBBBAAAEEEEAAAQQQQAABBBDIk8BfU4rtn7Q5htxOdgNUISyriQ1rdOY12hujxHXGW7AHAQQQQAABBBBAAAEEEEAAAQQQyJeAzGXEhjbKKPCkRldYo11fE3NtMVee7Md8dQznRQABBBBAAAEEEEAAAQQQQACBUhVIlkLE7I+JMlIkNQWyrCZBWJNwcU1MXqO9TnmXV4wFPyKAAAIIIIAAAggggAACCCCAAAJ5ERCJjPbUMqMRGzHPqRE/KgXz9beELUnY6JgLi4lstARiO748exBAAAEEEEAAAQQQQAABBBBAAIHsCsQnEto98edKGHokjEfytTNxWJNsfU38Eht5zVoIthFAAAEEEEAAAQQQQAABBBBAAIF8CciwImYjYUxTOHc/yWwoaViTIq9JEdnEKPAjAggggAACCCCAAAIIIIAAAgggkHeBZDFNASY1iZ9ZI4Oc1HmNuM68c9MABBBAAAEEEEAAAQQQQAABBBBAIKFAioxGfKTNQApnO9XKGtHKPS8sRYGEUuxEAAEEEEAAAQQQQAABBBBAAAEEsiKQIpTY86PCSWdiWrJ3WPPhkc2eOhRAAAEEEEAAAQQQQAABBBBAAAEEciYQE44U2o96wxoim5yNGE6EAAIIIIAAAggggAACCCCAAAIGCRRaLpOwPemFNbIKg8ioFgEEEEAAAQQQQAABBBBAAAEEEMi6gAw0imIjw7Am/tqy7kiFCCCAAAIIIIAAAggggAACCCCAQAYC8alFce3JWlhTXJdNaxFAAAEEEEAAAQQQQAABBBBAAIHCFCCsKcx+oVUIIIAAAggggAACCCCAAAIIIGBSAcIak3Y8l40AAggggAACCCCAAAIIIIAAAoUpQFhTmP1CqxBAAAEEEEAAAQQQQAABBBBAwKQChDUm7XguGwEEEEAAAQQQQAABBBBAAAEEClOAsKYw+4VWIYAAAggggAACCCCAAAIIIICASQUIa0za8Vw2AggggAACCCCAAAIIIIAAAggUpgBhTWH2C61CAAEEEEAAAQQQQAABBBBAAAGTChDWmLTjuWwEEEAAAQQQQAABBBBAAAEEEChMAcKawuwXWoUAAggggAACCCCAAAIIIIAAAiYVIKwxacdz2QgggAACCCCAAAIIIIAAAgggUJgChDWF2S+0CgEEEEAAAQQQQAABBBBAAAEETCpAWGPSjueyEUAAAQQQQAABBBBAAAEEEECgMAUIawqzX2gVAggggAACCCCAAAIIIIAAAgiYVICwxqQdz2UjgAACCCCAAAIIIIAAAggggEBhChDWFGa/0CoEEEAAAQQQQAABBBBAAAEEEDCpAGGNSTuey0YAAQQQQAABBBBAAAEEEEAAgcIUIKwpzH6hVQgggAACCCCAAAIIIIAAAgggYFIBwhqTdjyXjQACCCCAAAIIIIAAAggggAAChSlAWFOY/UKrEEAAAQQQQAABBBBAAAEEEEDApAKENSbteC4bAQQQQAABBBBAAAEEEEAAAQQKU4CwpjD7hVYhgAACCCCAAAIIIIAAAggggIBJBQhrTNrxXDYCCCCAAAIIIIAAAggggAACCBSmAGFNYfYLrUIAAQQQQAABBBBAAAEEEEAAAZMKENaYtOO5bAQQQAABBBBAAAEEEEAAAQQQKEwBwprC7BdahQACCCCAAAIIIIAAAggggAACJhUgrDFpx3PZCCCAAAIIIIAAAggggAACCCBQmAKENYXZL7QKAQQQQAABBBBAAAEEEEAAAQRMKkBYY9KO57IRQAABBBBAAAEEEEAAAQQQQKAwBQhrCrNfaBUCCCCAAAIIIIAAAggggAACCJhUgLDGpB3PZSOAAAIIIIAAAggggAACCCCAQGEKENYUZr/QKgQQQAABBBBAAAEEEEAAAQQQMKkAYY1JO57LRgABBBBAAAEEEEAAAQQQQACBwhQgrCnMfqFVCCCAAAIIIIAAAggggAACCCBgUgHCGpN2PJeNAAIIIIAAAggggAACCCCAAAKFKUBYU5j9QqsQQAABBBBAAAEEEEAAgdIU8POFAAJ7CRDWlOavP64KAQQQQAABBBBAAAEEEMiLwF5/hPI5AgjsLUBYk5dfX5wUAQQQQAABBBBAAAEEECgRgb3/7qQEAgikKUBYUyK/H7kMBBBAAAEEEEAAAQQQQCCXAmn+7UlxBBBIQ4CwJpe/zTgXAggggAACCCCAAAIIIFAKAmn80UlRBBBIX4CwphR+UXINCCCAAAIIIIAAAggggIBBAun/mVlqR/j4KkWBAh+mhDUG/UKjWgQQQAABBBBAAAEEEECguAU+/K/ZUvwbn2tCIBcChDXF/duT1iOAAAIIIIAAAggggAACRgikm9Tk4u9XzoGAaQQIa4z4tUadCCCAAAIIIIAAAggggEARC+hPakzzt/PeF+rlqzAE9u6qYihBWFPEv0BpOgIIIIAAAggggAACCCBghMCeYU3h/LVbGPkArTC7QNZnBGGNEb/ZqBMBBBBAAAEEEEAAAQQQKEqBD4xpzP4nu8HX7ynRL4PZirJ6wpqi/AVKoxFAAAEEEEAAAQQQQACB7Ap8SEyTx7+GSzS+4LKKTCDrU4CwJru/36gNAQQQQAABBBBAAAEEECgygYxjmmR/oBbZ39m5ba6br6wK5Lb3cnc2wpoi+zVKcxFAAAEEEEAAAQQQQACBLApkltQkjGly94es5kxZ/cOfyhDIUEAzJLOzSViTxd9yVIUAAggggAACCCCAAAIIFJNA6qQm2TNT45OaZH+eZviHb4EdtsVX8QsU2Jjauzn/D+SWNzru2Oz2AAAAAElFTkSuQmCC;" vertex="1" parent="WIyWlLk6GJQsqaUBKTNV-1">
          <mxGeometry x="570" y="1050" width="498" height="188.24" as="geometry" />
        </mxCell>
        <mxCell id="JEA_5MePLRgP0R8tFWte-89" value="Text" style="text;html=1;align=center;verticalAlign=middle;whiteSpace=wrap;rounded=0;" vertex="1" parent="WIyWlLk6GJQsqaUBKTNV-1">
          <mxGeometry x="1110" y="1060" width="60" height="30" as="geometry" />
        </mxCell>
        <mxCell id="JEA_5MePLRgP0R8tFWte-143" value="" style="edgeStyle=orthogonalEdgeStyle;rounded=0;orthogonalLoop=1;jettySize=auto;html=1;" edge="1" parent="WIyWlLk6GJQsqaUBKTNV-1" source="JEA_5MePLRgP0R8tFWte-92" target="JEA_5MePLRgP0R8tFWte-142">
          <mxGeometry relative="1" as="geometry" />
        </mxCell>
        <mxCell id="JEA_5MePLRgP0R8tFWte-92" value="Periode Anggaran" style="rounded=1;whiteSpace=wrap;html=1;fontSize=12;glass=0;strokeWidth=1;shadow=0;" vertex="1" parent="WIyWlLk6GJQsqaUBKTNV-1">
          <mxGeometry x="1560" y="285" width="120" height="40" as="geometry" />
        </mxCell>
        <mxCell id="JEA_5MePLRgP0R8tFWte-102" value="" style="edgeStyle=orthogonalEdgeStyle;rounded=0;orthogonalLoop=1;jettySize=auto;html=1;" edge="1" parent="WIyWlLk6GJQsqaUBKTNV-1" source="JEA_5MePLRgP0R8tFWte-103" target="JEA_5MePLRgP0R8tFWte-92">
          <mxGeometry relative="1" as="geometry" />
        </mxCell>
        <mxCell id="JEA_5MePLRgP0R8tFWte-103" value="Start" style="ellipse;whiteSpace=wrap;html=1;" vertex="1" parent="WIyWlLk6GJQsqaUBKTNV-1">
          <mxGeometry x="1585" y="180" width="70" height="60" as="geometry" />
        </mxCell>
        <mxCell id="JEA_5MePLRgP0R8tFWte-105" value="Buat Periode Anggaran" style="text;html=1;align=center;verticalAlign=middle;whiteSpace=wrap;rounded=0;" vertex="1" parent="WIyWlLk6GJQsqaUBKTNV-1">
          <mxGeometry x="1550" y="140" width="140" height="30" as="geometry" />
        </mxCell>
        <mxCell id="JEA_5MePLRgP0R8tFWte-113" value="Periode Anggaran" style="swimlane;" vertex="1" parent="WIyWlLk6GJQsqaUBKTNV-1">
          <mxGeometry x="1490" y="80" width="280" height="810" as="geometry" />
        </mxCell>
        <mxCell id="JEA_5MePLRgP0R8tFWte-125" value="" style="edgeStyle=orthogonalEdgeStyle;rounded=0;orthogonalLoop=1;jettySize=auto;html=1;" edge="1" parent="JEA_5MePLRgP0R8tFWte-113" source="JEA_5MePLRgP0R8tFWte-122" target="JEA_5MePLRgP0R8tFWte-123">
          <mxGeometry relative="1" as="geometry" />
        </mxCell>
        <mxCell id="JEA_5MePLRgP0R8tFWte-122" value="Pilih Tahun Periode Anggaran +1" style="rounded=1;whiteSpace=wrap;html=1;fontSize=12;glass=0;strokeWidth=1;shadow=0;" vertex="1" parent="JEA_5MePLRgP0R8tFWte-113">
          <mxGeometry x="70" y="540" width="120" height="40" as="geometry" />
        </mxCell>
        <mxCell id="JEA_5MePLRgP0R8tFWte-127" value="" style="edgeStyle=orthogonalEdgeStyle;rounded=0;orthogonalLoop=1;jettySize=auto;html=1;" edge="1" parent="JEA_5MePLRgP0R8tFWte-113" source="JEA_5MePLRgP0R8tFWte-123" target="JEA_5MePLRgP0R8tFWte-104">
          <mxGeometry relative="1" as="geometry" />
        </mxCell>
        <mxCell id="JEA_5MePLRgP0R8tFWte-123" value="Pilih Tanggal Mulai selesai planning, revision, running" style="rounded=1;whiteSpace=wrap;html=1;fontSize=12;glass=0;strokeWidth=1;shadow=0;" vertex="1" parent="JEA_5MePLRgP0R8tFWte-113">
          <mxGeometry x="68" y="615" width="124" height="50" as="geometry" />
        </mxCell>
        <mxCell id="JEA_5MePLRgP0R8tFWte-104" value="End" style="ellipse;whiteSpace=wrap;html=1;" vertex="1" parent="JEA_5MePLRgP0R8tFWte-113">
          <mxGeometry x="95" y="715" width="70" height="60" as="geometry" />
        </mxCell>
        <mxCell id="JEA_5MePLRgP0R8tFWte-149" style="edgeStyle=orthogonalEdgeStyle;rounded=0;orthogonalLoop=1;jettySize=auto;html=1;entryX=0.5;entryY=0;entryDx=0;entryDy=0;" edge="1" parent="JEA_5MePLRgP0R8tFWte-113" source="JEA_5MePLRgP0R8tFWte-141" target="JEA_5MePLRgP0R8tFWte-122">
          <mxGeometry relative="1" as="geometry" />
        </mxCell>
        <mxCell id="JEA_5MePLRgP0R8tFWte-141" value="Buat periode anggaran" style="rounded=1;whiteSpace=wrap;html=1;fontSize=12;glass=0;strokeWidth=1;shadow=0;" vertex="1" parent="JEA_5MePLRgP0R8tFWte-113">
          <mxGeometry x="70" y="460" width="120" height="40" as="geometry" />
        </mxCell>
        <mxCell id="JEA_5MePLRgP0R8tFWte-144" value="" style="edgeStyle=orthogonalEdgeStyle;rounded=0;orthogonalLoop=1;jettySize=auto;html=1;" edge="1" parent="JEA_5MePLRgP0R8tFWte-113" source="JEA_5MePLRgP0R8tFWte-142" target="JEA_5MePLRgP0R8tFWte-141">
          <mxGeometry relative="1" as="geometry" />
        </mxCell>
        <mxCell id="JEA_5MePLRgP0R8tFWte-152" value="Tidak" style="edgeLabel;html=1;align=center;verticalAlign=middle;resizable=0;points=[];" vertex="1" connectable="0" parent="JEA_5MePLRgP0R8tFWte-144">
          <mxGeometry x="-0.4274" y="-3" relative="1" as="geometry">
            <mxPoint as="offset" />
          </mxGeometry>
        </mxCell>
        <mxCell id="JEA_5MePLRgP0R8tFWte-150" style="edgeStyle=orthogonalEdgeStyle;rounded=0;orthogonalLoop=1;jettySize=auto;html=1;entryX=1;entryY=0.5;entryDx=0;entryDy=0;" edge="1" parent="JEA_5MePLRgP0R8tFWte-113" source="JEA_5MePLRgP0R8tFWte-142" target="JEA_5MePLRgP0R8tFWte-104">
          <mxGeometry relative="1" as="geometry">
            <Array as="points">
              <mxPoint x="220" y="345" />
              <mxPoint x="220" y="745" />
            </Array>
          </mxGeometry>
        </mxCell>
        <mxCell id="JEA_5MePLRgP0R8tFWte-151" value="Ya" style="edgeLabel;html=1;align=center;verticalAlign=middle;resizable=0;points=[];" vertex="1" connectable="0" parent="JEA_5MePLRgP0R8tFWte-150">
          <mxGeometry x="-0.2313" y="1" relative="1" as="geometry">
            <mxPoint y="1" as="offset" />
          </mxGeometry>
        </mxCell>
        <mxCell id="JEA_5MePLRgP0R8tFWte-142" value="periode anggran tahun sekarang dan tahun besok sudah ada?" style="rhombus;whiteSpace=wrap;html=1;shadow=0;fontFamily=Helvetica;fontSize=12;align=center;strokeWidth=1;spacing=6;spacingTop=-4;" vertex="1" parent="JEA_5MePLRgP0R8tFWte-113">
          <mxGeometry x="60" y="280" width="140" height="130" as="geometry" />
        </mxCell>
        <mxCell id="JEA_5MePLRgP0R8tFWte-121" value="" style="group" vertex="1" connectable="0" parent="WIyWlLk6GJQsqaUBKTNV-1">
          <mxGeometry x="850" y="80" width="550" height="790" as="geometry" />
        </mxCell>
        <mxCell id="JEA_5MePLRgP0R8tFWte-9" value="" style="edgeStyle=orthogonalEdgeStyle;rounded=0;orthogonalLoop=1;jettySize=auto;html=1;" edge="1" parent="JEA_5MePLRgP0R8tFWte-121" source="JEA_5MePLRgP0R8tFWte-0" target="JEA_5MePLRgP0R8tFWte-6">
          <mxGeometry relative="1" as="geometry" />
        </mxCell>
        <mxCell id="JEA_5MePLRgP0R8tFWte-0" value="Periode Accounting" style="rounded=1;whiteSpace=wrap;html=1;fontSize=12;glass=0;strokeWidth=1;shadow=0;" vertex="1" parent="JEA_5MePLRgP0R8tFWte-121">
          <mxGeometry x="70" y="205" width="120" height="40" as="geometry" />
        </mxCell>
        <mxCell id="JEA_5MePLRgP0R8tFWte-8" value="" style="edgeStyle=orthogonalEdgeStyle;rounded=0;orthogonalLoop=1;jettySize=auto;html=1;" edge="1" parent="JEA_5MePLRgP0R8tFWte-121" source="JEA_5MePLRgP0R8tFWte-1" target="JEA_5MePLRgP0R8tFWte-7">
          <mxGeometry relative="1" as="geometry" />
        </mxCell>
        <mxCell id="JEA_5MePLRgP0R8tFWte-11" value="Tidak" style="edgeLabel;html=1;align=center;verticalAlign=middle;resizable=0;points=[];" vertex="1" connectable="0" parent="JEA_5MePLRgP0R8tFWte-8">
          <mxGeometry x="0.1371" relative="1" as="geometry">
            <mxPoint as="offset" />
          </mxGeometry>
        </mxCell>
        <mxCell id="JEA_5MePLRgP0R8tFWte-27" style="edgeStyle=orthogonalEdgeStyle;rounded=0;orthogonalLoop=1;jettySize=auto;html=1;entryX=1;entryY=0.5;entryDx=0;entryDy=0;" edge="1" parent="JEA_5MePLRgP0R8tFWte-121" source="JEA_5MePLRgP0R8tFWte-1" target="JEA_5MePLRgP0R8tFWte-26">
          <mxGeometry relative="1" as="geometry">
            <Array as="points">
              <mxPoint x="220" y="430" />
              <mxPoint x="220" y="660" />
            </Array>
          </mxGeometry>
        </mxCell>
        <mxCell id="JEA_5MePLRgP0R8tFWte-29" value="Ya" style="edgeLabel;html=1;align=center;verticalAlign=middle;resizable=0;points=[];" vertex="1" connectable="0" parent="JEA_5MePLRgP0R8tFWte-27">
          <mxGeometry x="-0.2381" y="-2" relative="1" as="geometry">
            <mxPoint as="offset" />
          </mxGeometry>
        </mxCell>
        <mxCell id="JEA_5MePLRgP0R8tFWte-1" value="Sudah punya periode accounting sebelumnya?" style="rhombus;whiteSpace=wrap;html=1;shadow=0;fontFamily=Helvetica;fontSize=12;align=center;strokeWidth=1;spacing=6;spacingTop=-4;" vertex="1" parent="JEA_5MePLRgP0R8tFWte-121">
          <mxGeometry x="70" y="375" width="120" height="110" as="geometry" />
        </mxCell>
        <mxCell id="JEA_5MePLRgP0R8tFWte-10" value="" style="edgeStyle=orthogonalEdgeStyle;rounded=0;orthogonalLoop=1;jettySize=auto;html=1;" edge="1" parent="JEA_5MePLRgP0R8tFWte-121" source="JEA_5MePLRgP0R8tFWte-6" target="JEA_5MePLRgP0R8tFWte-1">
          <mxGeometry relative="1" as="geometry" />
        </mxCell>
        <mxCell id="JEA_5MePLRgP0R8tFWte-6" value="Buat periode accounting" style="rounded=1;whiteSpace=wrap;html=1;fontSize=12;glass=0;strokeWidth=1;shadow=0;" vertex="1" parent="JEA_5MePLRgP0R8tFWte-121">
          <mxGeometry x="70" y="285" width="120" height="40" as="geometry" />
        </mxCell>
        <mxCell id="JEA_5MePLRgP0R8tFWte-28" value="" style="edgeStyle=orthogonalEdgeStyle;rounded=0;orthogonalLoop=1;jettySize=auto;html=1;" edge="1" parent="JEA_5MePLRgP0R8tFWte-121" source="JEA_5MePLRgP0R8tFWte-7" target="JEA_5MePLRgP0R8tFWte-26">
          <mxGeometry relative="1" as="geometry" />
        </mxCell>
        <mxCell id="JEA_5MePLRgP0R8tFWte-7" value="Input Saldo Awal" style="rounded=1;whiteSpace=wrap;html=1;fontSize=12;glass=0;strokeWidth=1;shadow=0;" vertex="1" parent="JEA_5MePLRgP0R8tFWte-121">
          <mxGeometry x="70" y="555" width="120" height="40" as="geometry" />
        </mxCell>
        <mxCell id="JEA_5MePLRgP0R8tFWte-25" value="" style="edgeStyle=orthogonalEdgeStyle;rounded=0;orthogonalLoop=1;jettySize=auto;html=1;" edge="1" parent="JEA_5MePLRgP0R8tFWte-121" source="JEA_5MePLRgP0R8tFWte-24" target="JEA_5MePLRgP0R8tFWte-0">
          <mxGeometry relative="1" as="geometry" />
        </mxCell>
        <mxCell id="JEA_5MePLRgP0R8tFWte-24" value="Start" style="ellipse;whiteSpace=wrap;html=1;" vertex="1" parent="JEA_5MePLRgP0R8tFWte-121">
          <mxGeometry x="95" y="100" width="70" height="60" as="geometry" />
        </mxCell>
        <mxCell id="JEA_5MePLRgP0R8tFWte-26" value="End" style="ellipse;whiteSpace=wrap;html=1;" vertex="1" parent="JEA_5MePLRgP0R8tFWte-121">
          <mxGeometry x="95" y="630" width="70" height="60" as="geometry" />
        </mxCell>
        <mxCell id="JEA_5MePLRgP0R8tFWte-30" value="Buat Periode Accounting" style="text;html=1;align=center;verticalAlign=middle;whiteSpace=wrap;rounded=0;" vertex="1" parent="JEA_5MePLRgP0R8tFWte-121">
          <mxGeometry x="60" y="60" width="140" height="30" as="geometry" />
        </mxCell>
        <mxCell id="JEA_5MePLRgP0R8tFWte-31" value="" style="edgeStyle=orthogonalEdgeStyle;rounded=0;orthogonalLoop=1;jettySize=auto;html=1;" edge="1" parent="JEA_5MePLRgP0R8tFWte-121" source="JEA_5MePLRgP0R8tFWte-32" target="JEA_5MePLRgP0R8tFWte-39">
          <mxGeometry relative="1" as="geometry" />
        </mxCell>
        <mxCell id="JEA_5MePLRgP0R8tFWte-32" value="Periode Accounting" style="rounded=1;whiteSpace=wrap;html=1;fontSize=12;glass=0;strokeWidth=1;shadow=0;" vertex="1" parent="JEA_5MePLRgP0R8tFWte-121">
          <mxGeometry x="345" y="205" width="120" height="40" as="geometry" />
        </mxCell>
        <mxCell id="JEA_5MePLRgP0R8tFWte-87" value="" style="edgeStyle=orthogonalEdgeStyle;rounded=0;orthogonalLoop=1;jettySize=auto;html=1;" edge="1" parent="JEA_5MePLRgP0R8tFWte-121" source="JEA_5MePLRgP0R8tFWte-39" target="JEA_5MePLRgP0R8tFWte-86">
          <mxGeometry relative="1" as="geometry" />
        </mxCell>
        <mxCell id="JEA_5MePLRgP0R8tFWte-39" value="Close periode accounting" style="rounded=1;whiteSpace=wrap;html=1;fontSize=12;glass=0;strokeWidth=1;shadow=0;" vertex="1" parent="JEA_5MePLRgP0R8tFWte-121">
          <mxGeometry x="345" y="285" width="120" height="40" as="geometry" />
        </mxCell>
        <mxCell id="JEA_5MePLRgP0R8tFWte-42" value="" style="edgeStyle=orthogonalEdgeStyle;rounded=0;orthogonalLoop=1;jettySize=auto;html=1;" edge="1" parent="JEA_5MePLRgP0R8tFWte-121" source="JEA_5MePLRgP0R8tFWte-43" target="JEA_5MePLRgP0R8tFWte-32">
          <mxGeometry relative="1" as="geometry" />
        </mxCell>
        <mxCell id="JEA_5MePLRgP0R8tFWte-43" value="Start" style="ellipse;whiteSpace=wrap;html=1;" vertex="1" parent="JEA_5MePLRgP0R8tFWte-121">
          <mxGeometry x="370" y="100" width="70" height="60" as="geometry" />
        </mxCell>
        <mxCell id="JEA_5MePLRgP0R8tFWte-45" value="Close Periode Accounting" style="text;html=1;align=center;verticalAlign=middle;whiteSpace=wrap;rounded=0;" vertex="1" parent="JEA_5MePLRgP0R8tFWte-121">
          <mxGeometry x="335" y="60" width="140" height="30" as="geometry" />
        </mxCell>
        <mxCell id="JEA_5MePLRgP0R8tFWte-56" value="Periode Accounting" style="swimlane;" vertex="1" parent="JEA_5MePLRgP0R8tFWte-121">
          <mxGeometry width="550" height="790" as="geometry" />
        </mxCell>
        <mxCell id="JEA_5MePLRgP0R8tFWte-46" value="Auto Create Row baru untuk m_coa (coa 1,2,3 cash balance dari periode sebelumnya) (coa 4,5 diforce ke 0)" style="rounded=1;whiteSpace=wrap;html=1;fontSize=12;glass=0;strokeWidth=1;shadow=0;" vertex="1" parent="JEA_5MePLRgP0R8tFWte-56">
          <mxGeometry x="330" y="450" width="150" height="85" as="geometry" />
        </mxCell>
        <mxCell id="JEA_5MePLRgP0R8tFWte-52" value="Langsung open periode selanjutnya" style="rounded=1;whiteSpace=wrap;html=1;fontSize=12;glass=0;strokeWidth=1;shadow=0;" vertex="1" parent="JEA_5MePLRgP0R8tFWte-56">
          <mxGeometry x="345" y="580" width="120" height="40" as="geometry" />
        </mxCell>
        <mxCell id="JEA_5MePLRgP0R8tFWte-50" value="End" style="ellipse;whiteSpace=wrap;html=1;" vertex="1" parent="JEA_5MePLRgP0R8tFWte-56">
          <mxGeometry x="370" y="670" width="70" height="60" as="geometry" />
        </mxCell>
        <mxCell id="JEA_5MePLRgP0R8tFWte-53" value="" style="edgeStyle=orthogonalEdgeStyle;rounded=0;orthogonalLoop=1;jettySize=auto;html=1;" edge="1" parent="JEA_5MePLRgP0R8tFWte-56" source="JEA_5MePLRgP0R8tFWte-46" target="JEA_5MePLRgP0R8tFWte-52">
          <mxGeometry relative="1" as="geometry" />
        </mxCell>
        <mxCell id="JEA_5MePLRgP0R8tFWte-54" value="" style="edgeStyle=orthogonalEdgeStyle;rounded=0;orthogonalLoop=1;jettySize=auto;html=1;" edge="1" parent="JEA_5MePLRgP0R8tFWte-56" source="JEA_5MePLRgP0R8tFWte-52" target="JEA_5MePLRgP0R8tFWte-50">
          <mxGeometry relative="1" as="geometry" />
        </mxCell>
        <mxCell id="JEA_5MePLRgP0R8tFWte-88" value="" style="edgeStyle=orthogonalEdgeStyle;rounded=0;orthogonalLoop=1;jettySize=auto;html=1;" edge="1" parent="JEA_5MePLRgP0R8tFWte-56" source="JEA_5MePLRgP0R8tFWte-86" target="JEA_5MePLRgP0R8tFWte-46">
          <mxGeometry relative="1" as="geometry" />
        </mxCell>
        <mxCell id="JEA_5MePLRgP0R8tFWte-86" value="Langsung create row periode accounting baru untuk tahun selanjutnya" style="rounded=1;whiteSpace=wrap;html=1;fontSize=12;glass=0;strokeWidth=1;shadow=0;" vertex="1" parent="JEA_5MePLRgP0R8tFWte-56">
          <mxGeometry x="340" y="350" width="130" height="60" as="geometry" />
        </mxCell>
        <mxCell id="JEA_5MePLRgP0R8tFWte-135" value="Anggaran" style="swimlane;" vertex="1" parent="WIyWlLk6GJQsqaUBKTNV-1">
          <mxGeometry x="1860" y="90" width="950" height="880" as="geometry" />
        </mxCell>
        <mxCell id="JEA_5MePLRgP0R8tFWte-128" value="" style="edgeStyle=orthogonalEdgeStyle;rounded=0;orthogonalLoop=1;jettySize=auto;html=1;" edge="1" parent="JEA_5MePLRgP0R8tFWte-135" source="JEA_5MePLRgP0R8tFWte-129" target="JEA_5MePLRgP0R8tFWte-131">
          <mxGeometry relative="1" as="geometry" />
        </mxCell>
        <mxCell id="JEA_5MePLRgP0R8tFWte-129" value="Anggaran" style="rounded=1;whiteSpace=wrap;html=1;fontSize=12;glass=0;strokeWidth=1;shadow=0;" vertex="1" parent="JEA_5MePLRgP0R8tFWte-135">
          <mxGeometry x="172" y="205" width="120" height="40" as="geometry" />
        </mxCell>
        <mxCell id="JEA_5MePLRgP0R8tFWte-154" value="" style="edgeStyle=orthogonalEdgeStyle;rounded=0;orthogonalLoop=1;jettySize=auto;html=1;" edge="1" parent="JEA_5MePLRgP0R8tFWte-135" source="JEA_5MePLRgP0R8tFWte-131" target="JEA_5MePLRgP0R8tFWte-153">
          <mxGeometry relative="1" as="geometry" />
        </mxCell>
        <mxCell id="JEA_5MePLRgP0R8tFWte-131" value="Buat Anggaran" style="rounded=1;whiteSpace=wrap;html=1;fontSize=12;glass=0;strokeWidth=1;shadow=0;" vertex="1" parent="JEA_5MePLRgP0R8tFWte-135">
          <mxGeometry x="172" y="285" width="120" height="40" as="geometry" />
        </mxCell>
        <mxCell id="JEA_5MePLRgP0R8tFWte-132" value="" style="edgeStyle=orthogonalEdgeStyle;rounded=0;orthogonalLoop=1;jettySize=auto;html=1;" edge="1" parent="JEA_5MePLRgP0R8tFWte-135" source="JEA_5MePLRgP0R8tFWte-133" target="JEA_5MePLRgP0R8tFWte-129">
          <mxGeometry relative="1" as="geometry" />
        </mxCell>
        <mxCell id="JEA_5MePLRgP0R8tFWte-133" value="Start" style="ellipse;whiteSpace=wrap;html=1;" vertex="1" parent="JEA_5MePLRgP0R8tFWte-135">
          <mxGeometry x="197" y="100" width="70" height="60" as="geometry" />
        </mxCell>
        <mxCell id="JEA_5MePLRgP0R8tFWte-157" value="" style="edgeStyle=orthogonalEdgeStyle;rounded=0;orthogonalLoop=1;jettySize=auto;html=1;" edge="1" parent="JEA_5MePLRgP0R8tFWte-135" source="JEA_5MePLRgP0R8tFWte-153" target="JEA_5MePLRgP0R8tFWte-156">
          <mxGeometry relative="1" as="geometry" />
        </mxCell>
        <mxCell id="JEA_5MePLRgP0R8tFWte-160" value="Tidak" style="edgeLabel;html=1;align=center;verticalAlign=middle;resizable=0;points=[];" vertex="1" connectable="0" parent="JEA_5MePLRgP0R8tFWte-157">
          <mxGeometry x="-0.6167" relative="1" as="geometry">
            <mxPoint as="offset" />
          </mxGeometry>
        </mxCell>
        <mxCell id="JEA_5MePLRgP0R8tFWte-158" value="" style="edgeStyle=orthogonalEdgeStyle;rounded=0;orthogonalLoop=1;jettySize=auto;html=1;" edge="1" parent="JEA_5MePLRgP0R8tFWte-135" source="JEA_5MePLRgP0R8tFWte-153" target="JEA_5MePLRgP0R8tFWte-155">
          <mxGeometry relative="1" as="geometry" />
        </mxCell>
        <mxCell id="JEA_5MePLRgP0R8tFWte-159" value="Ya" style="edgeLabel;html=1;align=center;verticalAlign=middle;resizable=0;points=[];" vertex="1" connectable="0" parent="JEA_5MePLRgP0R8tFWte-158">
          <mxGeometry x="-0.1583" y="1" relative="1" as="geometry">
            <mxPoint as="offset" />
          </mxGeometry>
        </mxCell>
        <mxCell id="JEA_5MePLRgP0R8tFWte-153" value="User adalah user unit?" style="rhombus;whiteSpace=wrap;html=1;shadow=0;fontFamily=Helvetica;fontSize=12;align=center;strokeWidth=1;spacing=6;spacingTop=-4;" vertex="1" parent="JEA_5MePLRgP0R8tFWte-135">
          <mxGeometry x="182" y="360" width="100" height="100" as="geometry" />
        </mxCell>
        <mxCell id="JEA_5MePLRgP0R8tFWte-166" style="edgeStyle=orthogonalEdgeStyle;rounded=0;orthogonalLoop=1;jettySize=auto;html=1;entryX=0;entryY=0.5;entryDx=0;entryDy=0;" edge="1" parent="JEA_5MePLRgP0R8tFWte-135" source="JEA_5MePLRgP0R8tFWte-155" target="JEA_5MePLRgP0R8tFWte-139">
          <mxGeometry relative="1" as="geometry">
            <Array as="points">
              <mxPoint x="80" y="645" />
            </Array>
          </mxGeometry>
        </mxCell>
        <mxCell id="JEA_5MePLRgP0R8tFWte-155" value="Pilih Tahun" style="rounded=1;whiteSpace=wrap;html=1;fontSize=12;glass=0;strokeWidth=1;shadow=0;" vertex="1" parent="JEA_5MePLRgP0R8tFWte-135">
          <mxGeometry x="10" y="385" width="124" height="50" as="geometry" />
        </mxCell>
        <mxCell id="JEA_5MePLRgP0R8tFWte-161" value="" style="edgeStyle=orthogonalEdgeStyle;rounded=0;orthogonalLoop=1;jettySize=auto;html=1;" edge="1" parent="JEA_5MePLRgP0R8tFWte-135" source="JEA_5MePLRgP0R8tFWte-156" target="JEA_5MePLRgP0R8tFWte-139">
          <mxGeometry relative="1" as="geometry" />
        </mxCell>
        <mxCell id="JEA_5MePLRgP0R8tFWte-156" value="Pilih Tahun dan Unit" style="rounded=1;whiteSpace=wrap;html=1;fontSize=12;glass=0;strokeWidth=1;shadow=0;" vertex="1" parent="JEA_5MePLRgP0R8tFWte-135">
          <mxGeometry x="170" y="510" width="124" height="50" as="geometry" />
        </mxCell>
        <mxCell id="JEA_5MePLRgP0R8tFWte-165" value="" style="edgeStyle=orthogonalEdgeStyle;rounded=0;orthogonalLoop=1;jettySize=auto;html=1;" edge="1" parent="JEA_5MePLRgP0R8tFWte-135" source="JEA_5MePLRgP0R8tFWte-139" target="JEA_5MePLRgP0R8tFWte-164">
          <mxGeometry relative="1" as="geometry" />
        </mxCell>
        <mxCell id="JEA_5MePLRgP0R8tFWte-139" value="Klik Import -&amp;gt; Download Template" style="rounded=1;whiteSpace=wrap;html=1;fontSize=12;glass=0;strokeWidth=1;shadow=0;" vertex="1" parent="JEA_5MePLRgP0R8tFWte-135">
          <mxGeometry x="170" y="620" width="124" height="50" as="geometry" />
        </mxCell>
        <mxCell id="JEA_5MePLRgP0R8tFWte-169" style="edgeStyle=orthogonalEdgeStyle;rounded=0;orthogonalLoop=1;jettySize=auto;html=1;entryX=0;entryY=0.5;entryDx=0;entryDy=0;" edge="1" parent="JEA_5MePLRgP0R8tFWte-135" source="JEA_5MePLRgP0R8tFWte-164" target="JEA_5MePLRgP0R8tFWte-167">
          <mxGeometry relative="1" as="geometry" />
        </mxCell>
        <mxCell id="JEA_5MePLRgP0R8tFWte-164" value="Input Manual di file excel hasil download" style="rounded=1;whiteSpace=wrap;html=1;fontSize=12;glass=0;strokeWidth=1;shadow=0;" vertex="1" parent="JEA_5MePLRgP0R8tFWte-135">
          <mxGeometry x="170" y="710" width="124" height="50" as="geometry" />
        </mxCell>
        <mxCell id="JEA_5MePLRgP0R8tFWte-171" value="" style="edgeStyle=orthogonalEdgeStyle;rounded=0;orthogonalLoop=1;jettySize=auto;html=1;" edge="1" parent="JEA_5MePLRgP0R8tFWte-135" source="JEA_5MePLRgP0R8tFWte-167" target="JEA_5MePLRgP0R8tFWte-170">
          <mxGeometry relative="1" as="geometry" />
        </mxCell>
        <mxCell id="JEA_5MePLRgP0R8tFWte-167" value="Masukan file ke form &amp;amp; upload" style="rounded=1;whiteSpace=wrap;html=1;fontSize=12;glass=0;strokeWidth=1;shadow=0;" vertex="1" parent="JEA_5MePLRgP0R8tFWte-135">
          <mxGeometry x="370" y="110" width="124" height="50" as="geometry" />
        </mxCell>
        <mxCell id="JEA_5MePLRgP0R8tFWte-173" value="" style="edgeStyle=orthogonalEdgeStyle;rounded=0;orthogonalLoop=1;jettySize=auto;html=1;" edge="1" parent="JEA_5MePLRgP0R8tFWte-135" source="JEA_5MePLRgP0R8tFWte-170" target="JEA_5MePLRgP0R8tFWte-172">
          <mxGeometry relative="1" as="geometry" />
        </mxCell>
        <mxCell id="JEA_5MePLRgP0R8tFWte-170" value="Masuk ke preview + cek dan edit kalau ada yang kurang sesuai" style="rounded=1;whiteSpace=wrap;html=1;fontSize=12;glass=0;strokeWidth=1;shadow=0;" vertex="1" parent="JEA_5MePLRgP0R8tFWte-135">
          <mxGeometry x="362" y="215" width="140" height="70" as="geometry" />
        </mxCell>
        <mxCell id="JEA_5MePLRgP0R8tFWte-177" value="" style="edgeStyle=orthogonalEdgeStyle;rounded=0;orthogonalLoop=1;jettySize=auto;html=1;" edge="1" parent="JEA_5MePLRgP0R8tFWte-135" source="JEA_5MePLRgP0R8tFWte-172" target="JEA_5MePLRgP0R8tFWte-176">
          <mxGeometry relative="1" as="geometry" />
        </mxCell>
        <mxCell id="JEA_5MePLRgP0R8tFWte-172" value="Submit" style="rounded=1;whiteSpace=wrap;html=1;fontSize=12;glass=0;strokeWidth=1;shadow=0;" vertex="1" parent="JEA_5MePLRgP0R8tFWte-135">
          <mxGeometry x="364" y="330" width="138" height="45" as="geometry" />
        </mxCell>
        <mxCell id="JEA_5MePLRgP0R8tFWte-134" value="Buat Anggaran" style="text;html=1;align=center;verticalAlign=middle;whiteSpace=wrap;rounded=0;" vertex="1" parent="JEA_5MePLRgP0R8tFWte-135">
          <mxGeometry x="170" y="60" width="140" height="30" as="geometry" />
        </mxCell>
        <mxCell id="JEA_5MePLRgP0R8tFWte-174" value="End" style="ellipse;whiteSpace=wrap;html=1;" vertex="1" parent="JEA_5MePLRgP0R8tFWte-135">
          <mxGeometry x="424" y="780" width="70" height="60" as="geometry" />
        </mxCell>
        <mxCell id="JEA_5MePLRgP0R8tFWte-181" value="" style="edgeStyle=orthogonalEdgeStyle;rounded=0;orthogonalLoop=1;jettySize=auto;html=1;" edge="1" parent="JEA_5MePLRgP0R8tFWte-135" source="JEA_5MePLRgP0R8tFWte-176" target="JEA_5MePLRgP0R8tFWte-178">
          <mxGeometry relative="1" as="geometry" />
        </mxCell>
        <mxCell id="JEA_5MePLRgP0R8tFWte-176" value="Muncul di list anggaran dengan status waiting" style="rounded=1;whiteSpace=wrap;html=1;fontSize=12;glass=0;strokeWidth=1;shadow=0;" vertex="1" parent="JEA_5MePLRgP0R8tFWte-135">
          <mxGeometry x="364" y="430" width="138" height="45" as="geometry" />
        </mxCell>
        <mxCell id="JEA_5MePLRgP0R8tFWte-180" value="" style="edgeStyle=orthogonalEdgeStyle;rounded=0;orthogonalLoop=1;jettySize=auto;html=1;" edge="1" parent="JEA_5MePLRgP0R8tFWte-135" source="JEA_5MePLRgP0R8tFWte-178" target="JEA_5MePLRgP0R8tFWte-179">
          <mxGeometry relative="1" as="geometry" />
        </mxCell>
        <mxCell id="JEA_5MePLRgP0R8tFWte-178" value="User Biro Keuangan?" style="rhombus;whiteSpace=wrap;html=1;shadow=0;fontFamily=Helvetica;fontSize=12;align=center;strokeWidth=1;spacing=6;spacingTop=-4;" vertex="1" parent="JEA_5MePLRgP0R8tFWte-135">
          <mxGeometry x="383" y="520" width="100" height="100" as="geometry" />
        </mxCell>
        <mxCell id="JEA_5MePLRgP0R8tFWte-183" style="edgeStyle=orthogonalEdgeStyle;rounded=0;orthogonalLoop=1;jettySize=auto;html=1;entryX=0;entryY=0.5;entryDx=0;entryDy=0;" edge="1" parent="JEA_5MePLRgP0R8tFWte-135" source="JEA_5MePLRgP0R8tFWte-179" target="JEA_5MePLRgP0R8tFWte-182">
          <mxGeometry relative="1" as="geometry" />
        </mxCell>
        <mxCell id="JEA_5MePLRgP0R8tFWte-179" value="Export list anggaran" style="rounded=1;whiteSpace=wrap;html=1;fontSize=12;glass=0;strokeWidth=1;shadow=0;" vertex="1" parent="JEA_5MePLRgP0R8tFWte-135">
          <mxGeometry x="364" y="665" width="138" height="45" as="geometry" />
        </mxCell>
        <mxCell id="JEA_5MePLRgP0R8tFWte-186" value="" style="edgeStyle=orthogonalEdgeStyle;rounded=0;orthogonalLoop=1;jettySize=auto;html=1;" edge="1" parent="JEA_5MePLRgP0R8tFWte-135" source="JEA_5MePLRgP0R8tFWte-182" target="JEA_5MePLRgP0R8tFWte-184">
          <mxGeometry relative="1" as="geometry" />
        </mxCell>
        <mxCell id="JEA_5MePLRgP0R8tFWte-182" value="Pilih tahun dan langsung download excel" style="rounded=1;whiteSpace=wrap;html=1;fontSize=12;glass=0;strokeWidth=1;shadow=0;" vertex="1" parent="JEA_5MePLRgP0R8tFWte-135">
          <mxGeometry x="580" y="120" width="140" height="70" as="geometry" />
        </mxCell>
        <mxCell id="JEA_5MePLRgP0R8tFWte-187" value="" style="edgeStyle=orthogonalEdgeStyle;rounded=0;orthogonalLoop=1;jettySize=auto;html=1;" edge="1" parent="JEA_5MePLRgP0R8tFWte-135" source="JEA_5MePLRgP0R8tFWte-184" target="JEA_5MePLRgP0R8tFWte-185">
          <mxGeometry relative="1" as="geometry" />
        </mxCell>
        <mxCell id="JEA_5MePLRgP0R8tFWte-184" value="Lakukan perubahan manual di excel" style="rounded=1;whiteSpace=wrap;html=1;fontSize=12;glass=0;strokeWidth=1;shadow=0;" vertex="1" parent="JEA_5MePLRgP0R8tFWte-135">
          <mxGeometry x="580" y="245" width="140" height="70" as="geometry" />
        </mxCell>
        <mxCell id="JEA_5MePLRgP0R8tFWte-185" value="Klik import final budget" style="rounded=1;whiteSpace=wrap;html=1;fontSize=12;glass=0;strokeWidth=1;shadow=0;" vertex="1" parent="JEA_5MePLRgP0R8tFWte-135">
          <mxGeometry x="580" y="350" width="140" height="70" as="geometry" />
        </mxCell>
        <mxCell id="JEA_5MePLRgP0R8tFWte-140" value="End" style="ellipse;whiteSpace=wrap;html=1;" vertex="1" parent="WIyWlLk6GJQsqaUBKTNV-1">
          <mxGeometry x="2320" y="1109" width="70" height="60" as="geometry" />
        </mxCell>
      </root>
    </mxGraphModel>
  </diagram>
</mxfile>
